<svg width="23" height="15" viewBox="0 0 23 15" fill="none" xmlns="http://www.w3.org/2000/svg">
<path d="M0.0976562 0.00219727H22.9548V14.9972H0.0976562V0.00219727Z" fill="white"/>
<path d="M10.5612 0.00219727V6.31505H0.0976562V8.98791H10.5612V14.9979H12.6805V8.98791H22.9548V6.31505H12.6805V0.00219727H10.5612Z" fill="#BD0034"/>
<path d="M9.85408 0.00219727H1.88337L9.85408 5.04291V0.00219727ZM0.0976562 5.42434H5.71551L0.0976562 1.8622V5.42434Z" fill="#1A237B"/>
<path d="M0.0976562 0V0.877143L6.8398 5.08643H8.49551C8.49551 5.08643 1.85051 0.970714 0.271942 0H0.0976562Z" fill="#BD0034"/>
<path d="M9.85408 14.9978H1.88337L9.85408 9.95711V14.9978ZM0.0976562 9.57568H5.71551L0.0976562 13.1378V9.57568Z" fill="#1A237B"/>
<path d="M0.0976562 15V14.1229L6.8398 9.91357H8.49551C8.49551 9.91357 1.85051 14.0293 0.271942 15H0.0976562Z" fill="#BD0034"/>
<path d="M13.1992 0.00219727H21.1699L13.1992 5.04291V0.00219727ZM22.9556 5.42434H17.3378L22.9556 1.8622V5.42434Z" fill="#1A237B"/>
<path d="M22.9545 0V0.877143L16.2124 5.08643H14.5566C14.5566 5.08643 21.1995 0.970714 22.7802 0.0021427L22.9545 0Z" fill="#BD0034"/>
<path d="M13.1992 14.9978H21.1699L13.1992 9.95711V14.9978ZM22.9556 9.57568H17.3378L22.9556 13.1378V9.57568Z" fill="#1A237B"/>
<path d="M22.9545 15V14.1229L16.2124 9.91357H14.5566C14.5566 9.91357 21.1995 14.0293 22.7802 14.9979L22.9545 15Z" fill="#BD0034"/>
</svg>
