<svg width="627" height="551" viewBox="0 0 627 551" fill="none" xmlns="http://www.w3.org/2000/svg">
<rect x="0.0878906" y="0.612305" width="625.98" height="550.135" fill="#003624"/>
<path d="M208.943 204.624C209.124 204.492 208.968 204.178 208.979 203.955C209.022 203.025 209.096 202.139 209.275 201.222L209.388 203.859C209.982 204.164 210.524 204.278 211.171 204.402C211.694 204.88 211.888 205.152 211.878 205.891L211.68 207.078C211.086 207.454 210.031 207.467 209.348 207.35L208.85 207.225L208.615 207.282C208.915 206.501 208.878 205.46 208.943 204.624Z" fill="#01873E"/>
<path d="M451.94 361.634C454.047 361.11 457.639 361.061 459.737 361.607C461.357 363.347 459.618 367.984 460.548 370.156C460.474 370.711 460.319 371.192 460.562 371.71L460.483 371.957C460.296 372.74 460.393 373.649 460.393 374.457C460.391 376.131 460.397 377.805 460.403 379.479H460.071L459.735 379.59C459.736 380.14 459.644 380.45 459.958 380.922C459.958 381.733 459.744 383.153 460.181 383.807L460.119 384.155C460.054 384.618 460.162 384.82 460.181 385.251L460.15 385.538C460.115 385.886 460.19 385.987 460.293 386.305C460.556 387.112 460.387 387.879 459.994 388.608L459.834 388.891L459.426 380.709L459.398 380.438C459.004 379.071 459.132 377.475 458.979 376.022L458.938 361.683L451.94 361.634Z" fill="#00622E"/>
<path d="M258.994 342.738C259.157 342.489 259.035 342.641 259.441 342.362C262.552 342.311 265.694 342.433 268.797 342.334C274.952 342.135 281.096 341.89 287.252 342.174C288.491 342.232 290.095 342.101 291.251 342.471L290.718 342.772L290.715 361.822L285.89 361.62C287.339 361.416 288.988 361.569 290.459 361.576C290.391 358.921 290.964 344.348 290.206 343.101C288.195 343.855 285.188 343.592 283.025 343.614C278.416 343.66 273.662 343.838 269.077 343.357L269.038 360.25C268.532 359.16 268.805 356.8 268.798 355.544C268.772 351.235 268.749 346.928 268.858 342.62C266.875 342.533 264.877 342.571 262.891 342.571C261.62 342.571 260.231 342.454 258.994 342.738Z" fill="#01873E"/>
<path d="M390.322 181.57C391.148 181.472 392.164 181.201 392.913 181.628C393.226 183.16 393.069 184.842 393.069 186.402C393.068 191.725 392.556 196.946 392.147 202.242C392.034 203.706 392.18 205.271 391.865 206.696C391.626 205.063 391.861 203.232 391.8 201.563L391.63 201.674C391.209 201.796 390.973 201.741 390.6 201.551L390.385 196.396L390.322 181.57Z" fill="#019646"/>
<path d="M348.818 362.951L350.227 362.852L351.953 362.965C352.416 363.792 352.19 365.425 352.185 366.396C352.165 371.122 351.669 375.467 351.121 380.144C351.029 380.932 351.077 381.801 350.892 382.566L350.84 382.744L350.79 380.736L350.715 379.937L350.281 379.925C349.671 379.83 349.478 379.557 349.087 379.13L349.012 375.277L348.818 362.951Z" fill="#019646"/>
<path d="M348.818 362.951L350.221 362.852L349.688 363.496L349.712 363.677C349.922 365.372 350.091 378.446 349.573 379.116L349.086 379.13L349.011 375.277L348.818 362.951Z" fill="#01873E"/>
<path d="M312.021 171.814C312.056 173.55 312.383 174.914 312.682 176.591C313.032 178.551 313.176 180.696 313.324 182.688C313.761 188.551 313.494 194.534 313.463 200.406C313.447 203.432 313.725 206.585 313.58 209.59C312.91 209.255 312.278 209.073 311.553 208.894L312.021 171.814Z" fill="url(#paint0_linear_122_130759)"/>
<path d="M359.892 201.912L358.955 180.895C360.167 180.993 361.431 181.185 362.641 181.029L362.891 179.91L362.894 180.13C362.906 183.19 362.381 186.254 362.422 189.339C362.478 193.428 363.261 197.559 363.662 201.629L359.892 201.912Z" fill="url(#paint1_linear_122_130759)"/>
<path d="M280.459 389.266L279.932 388.955C279.456 388.683 278.763 388.412 278.451 387.945C277.654 386.757 277.896 383.644 277.873 382.234C277.758 375.192 277.933 368.332 278.844 361.337L282.947 361.58L281.129 361.695C280.913 363.138 280.978 364.691 280.945 366.149C280.85 370.375 281.073 374.589 281.038 378.814C281.371 379.26 281.15 379.105 281.72 379.253L281.694 379.672C281.381 379.829 281.052 379.86 280.96 380.221C280.747 381.052 280.819 382.062 280.796 382.922L280.459 389.266Z" fill="#019646"/>
<path d="M169.498 362.387C170.13 362.297 170.349 362.149 170.893 362.51C171.68 367.094 171.346 372.113 171.354 376.762C171.359 379.647 171.873 384.024 170.674 386.638C170.217 387.635 169.634 388.277 168.6 388.657C168.265 388.766 167.962 388.792 167.614 388.83L167.32 388.47C167.128 385.584 167.74 382.515 167.875 379.61C168.016 376.589 167.518 364.59 168.572 362.767C168.734 362.486 169.202 362.468 169.498 362.387Z" fill="#006D34"/>
<path d="M127.724 181.426L130.428 181.771C131.071 189.528 130.613 197.434 130.528 205.203C130.504 207.446 130.498 209.685 130.435 211.928C130.405 212.972 130.49 214.208 130.236 215.216C129.904 215.286 129.626 215.342 129.284 215.346L129.201 215.08L128.92 214.783L129.087 214.55C127.786 213.411 128.156 211.95 127.887 210.381C127.165 206.164 127.574 201.33 127.62 197.055C127.677 191.846 127.632 186.635 127.724 181.426Z" fill="#01CD60"/>
<path d="M309.254 342.718C310.274 342.358 311.633 342.461 312.711 342.408C317.33 342.184 321.977 342.283 326.602 342.286C336.91 342.293 347.221 342.329 357.529 342.324C359.935 342.322 362.348 342.237 364.758 342.242C365.676 342.244 366.894 342.104 367.759 342.359L368.006 342.458C368.965 341.842 371.995 342.201 373.236 342.307L372.982 342.332L368.446 342.442L368.246 378.699L367.975 379.01L367.754 378.887L367.808 342.539L359.01 342.534L359.062 347.223L358.769 343.74L358.379 343.776C357.839 343.92 357.615 344.105 357.013 344.121C353.635 344.208 350.152 343.895 346.751 343.902C338.99 343.917 331.231 343.898 323.47 343.865C320.698 343.852 317.924 343.852 315.152 343.79C313.21 343.747 311.222 343.784 309.328 343.308L309.19 342.942L309.254 342.718Z" fill="#01873E"/>
<path d="M118.998 340.003C120.596 340.278 122.192 340.533 123.798 340.754C124.527 340.855 125.461 340.849 126.073 341.24L126.111 343.855L126.089 356.152C124.108 356.038 122.263 355.925 120.335 356.482L119.351 356.76C118.897 355.659 119.056 353.371 119.027 352.125C118.934 348.153 118.651 343.957 118.998 340.003Z" fill="#01CD60"/>
<path d="M119.342 356.758L120.326 356.48C122.254 355.923 124.099 356.037 126.079 356.15L126.8 374.623C126.489 374.509 125.763 374.619 125.41 374.627C124.117 374.66 120.528 375.046 119.664 374.294L119.342 356.758Z" fill="#2FDD89"/>
<path d="M240.869 389.109C240.36 388.852 239.84 388.584 239.408 388.208C238.599 387.504 238.02 386.763 237.837 385.695C237.281 382.45 237.71 378.68 237.788 375.372C238.044 364.406 239.452 352.989 238.307 342.075C240.697 342.645 242.805 342.407 245.215 342.52L244.985 342.554L240.981 342.78C240.948 352.585 240.971 362.37 241.131 372.174C241.155 373.67 241.175 375.164 241.176 376.659C241.177 377.286 241.073 378.02 241.29 378.611L241.213 379.477C240.423 382.45 241 386.044 240.869 389.109Z" fill="#019646"/>
<path d="M177.528 389.875C176.149 389.604 175.098 389.626 174.089 388.57C173.719 388.182 173.297 387.732 173.143 387.208C172.538 385.161 172.742 382.524 172.705 380.388C172.588 373.545 172.787 366.695 172.929 359.853C174.383 359.818 176.015 359.659 177.44 359.945L177.62 359.985L178.068 359.64L177.607 372.343C177.398 373.618 177.484 374.979 177.48 376.268C177.477 377.109 177.356 378.121 177.598 378.924C177.893 379.91 177.546 381.41 177.526 382.476C177.48 384.94 177.517 387.41 177.528 389.875Z" fill="#06BA5B"/>
<path d="M126.068 341.24L127.381 341.049C129.59 340.632 132.513 340.938 134.793 340.943C141.559 340.959 148.328 341.104 155.095 341.193C157.048 341.417 159.06 341.32 161.026 341.319C164.169 341.317 167.31 341.327 170.452 341.379C173.011 341.421 175.649 341.451 178.122 342.177C179.64 342.622 182.239 342.327 183.895 342.338C184.556 342.342 185.285 342.255 185.907 342.508L178.402 342.521C178.079 342.931 178.079 343.062 178.004 343.561C173.177 343.963 168.351 343.898 163.511 343.91C156.91 343.926 150.31 343.932 143.709 343.968C140.005 343.988 136.302 344.032 132.598 344.065C130.53 344.084 128.105 344.332 126.106 343.855L126.068 341.24Z" fill="#01873E"/>
<path d="M470.312 341.189C476.752 341.29 483.187 340.992 489.624 340.965C492.406 340.954 495.189 340.95 497.971 340.943C499.796 340.939 501.704 341.045 503.506 340.725L502.763 341.143C502.501 345.072 502.725 349.106 502.665 353.051C502.641 354.572 502.756 356.241 502.441 357.732C502.236 356.186 502.387 354.464 502.4 352.898C502.426 349.874 502.457 346.852 502.54 343.829L450.237 343.62L449.798 343.296C449.535 342.799 449.447 342.582 449.519 342.02C450.966 341.094 453.992 341.257 455.693 341.239C460.427 341.19 465.387 341.635 470.083 341.212L470.312 341.189Z" fill="#01873E"/>
<path d="M282.953 361.58L285.888 361.619L290.712 361.821C290.723 362.644 290.91 363.893 290.655 364.653C289.888 365.769 290.182 367.842 290.168 369.169C290.134 372.421 290.112 375.673 290.107 378.924C288.234 378.883 286.36 378.84 284.488 378.824C283.619 378.816 282.44 378.712 281.726 379.253C281.156 379.104 281.377 379.259 281.044 378.814C281.079 374.588 280.857 370.374 280.952 366.149C280.984 364.691 280.919 363.138 281.135 361.695L282.953 361.58Z" fill="#01CD60"/>
<path d="M321.606 351.815C322.43 351.442 323.587 351.593 324.481 351.587C326.858 351.571 329.234 351.553 331.609 351.677L331.702 378.273L332.01 378.74C333.689 378.749 335.369 378.756 337.048 378.753C337.696 378.752 338.547 378.867 339.156 378.627L339.359 378.517C340.348 378.879 341.657 378.724 342.705 378.732C344.751 378.746 346.785 378.735 348.826 378.895L349.015 375.279L349.09 379.131C349.48 379.558 349.673 379.831 350.283 379.926L350.718 379.939L350.792 380.737L350.447 380.676C349.957 380.576 350.142 380.642 349.726 380.366L349.53 380.416L348.834 380.555C348.462 380.221 348.435 380.148 348.276 379.7L347.944 379.59L347.942 379.202C347.033 379.165 344.615 379.38 343.93 378.925C342.292 378.925 334.795 378.552 333.898 379.147C333.249 379.131 332.835 379.041 332.226 378.925L331.445 378.979C329.295 379.013 327.106 378.921 324.947 378.923C324.276 378.924 323.537 378.774 322.974 379.147C322.566 378.985 322.443 378.857 321.97 378.981C321.75 379.038 321.412 379.199 321.327 379.424C321.175 379.828 321.297 380.175 321.3 380.59L321.245 381.145L321.3 381.699L320.948 382.222C319.99 383.759 320.301 388.042 320.305 389.909C319.015 389.775 317.112 389.808 316.16 388.814C314.955 387.554 315.217 383.532 315.167 381.842C314.977 375.463 314.919 369.032 315.081 362.652L320.549 362.701C320.495 366.606 320.306 370.51 320.202 374.414C320.135 376.908 319.939 379.498 320.405 381.962L320.968 378.7L330.983 378.603L330.621 351.796L321.606 351.815Z" fill="#06BA5B"/>
<path d="M451.942 361.635L458.94 361.684L458.981 376.022C459.134 377.475 459.006 379.072 459.4 380.439L459.428 380.71L459.093 380.346C456.287 380.348 453.279 380.336 450.488 380.067C449.451 379.968 447.48 380.048 446.586 379.745C446.161 379.601 446.14 379.458 445.631 379.445C445.239 379.435 445.196 379.455 444.834 379.257C445.88 379.238 447.487 379.409 448.441 379.023L448.675 378.896C449.013 376.888 448.883 374.717 448.893 372.683C448.91 369.026 448.886 365.368 448.868 361.71L449.34 361.792L451.942 361.635Z" fill="#2FD67B"/>
<path d="M448.868 361.71L449.34 361.792L449.462 379.339L458.966 379.315L458.981 376.022C459.134 377.475 459.006 379.071 459.4 380.438L459.428 380.709L459.093 380.345C456.287 380.348 453.279 380.335 450.488 380.067C449.451 379.967 447.48 380.047 446.586 379.745C446.161 379.601 446.14 379.457 445.631 379.444C445.239 379.435 445.196 379.455 444.834 379.257C445.88 379.238 447.487 379.409 448.441 379.022L448.675 378.896C449.013 376.888 448.883 374.717 448.893 372.683C448.91 369.025 448.886 365.367 448.868 361.71Z" fill="#019646"/>
<path d="M309.513 360.511L312.577 360.348L312.772 383.608C307.382 383.443 302.018 383.587 296.63 383.568C294.483 383.561 292.331 383.329 290.182 383.281C287.076 383.211 283.868 383.494 280.803 382.921C280.826 382.062 280.754 381.051 280.967 380.221C281.059 379.86 281.388 379.828 281.701 379.671L281.726 379.252C282.441 378.711 283.62 378.816 284.489 378.823C286.361 378.84 288.235 378.883 290.108 378.924C290.113 375.673 290.134 372.421 290.169 369.169C290.183 367.842 289.889 365.769 290.656 364.653L290.791 378.914C292.634 378.916 294.477 378.918 296.32 378.922C297.273 378.923 298.374 378.819 299.3 378.997L300.024 379.17C301.079 379.008 302.27 379.115 303.342 379.118C305.401 379.124 307.462 379.131 309.521 379.137C310.045 374.915 310.059 370.633 310 366.385C309.973 364.513 310.123 362.289 309.513 360.511Z" fill="url(#paint2_linear_122_130759)"/>
<path d="M280.796 382.92C283.861 383.493 287.069 383.21 290.174 383.28C292.324 383.328 294.476 383.56 296.623 383.567C302.011 383.586 307.375 383.442 312.765 383.607C312.799 385.43 313.002 388.006 311.623 389.44C311.267 389.809 310.731 389.949 310.234 389.996C306.489 390.341 302.428 390.012 298.655 390.001C293.334 389.985 287.932 390.197 282.62 389.897C281.823 389.853 281.048 389.871 280.459 389.265L280.796 382.92Z" fill="#2FDD89"/>
<path d="M133.244 212.554C133.442 211.112 133.287 209.505 133.262 208.045C141.167 207.897 149.188 208.291 157.093 208.543C159.562 208.621 163.279 208.213 165.597 208.999L165.653 210.594C165.558 212.033 165.57 214.412 164.877 215.651L133.302 215.451L133.244 212.554Z" fill="#2FDD89"/>
<path d="M126.802 374.626C127.202 376.4 127.099 378.331 127.127 380.144C127.611 378.914 127.403 377.165 127.411 375.851C127.436 371.447 127.25 367.039 127.172 362.635L131.902 362.293L131.06 388.94L130.791 388.943C127.029 389.048 123.683 391.123 119.834 391.243L119.666 374.297C120.529 375.049 124.119 374.662 125.411 374.63C125.765 374.621 126.491 374.511 126.802 374.626Z" fill="#06BA5B"/>
<path d="M119.837 391.241C118.539 391.221 117.187 391.032 116.153 390.178C115.542 389.673 114.989 388.898 114.838 388.113C114.591 386.833 114.748 385.34 114.748 384.029C114.749 381.098 114.732 378.167 114.733 375.236C114.737 362.875 115.192 350.389 114.545 338.047L118.995 340.001C118.647 343.955 118.931 348.152 119.024 352.123C119.053 353.369 118.893 355.658 119.347 356.759L119.67 374.295L119.837 391.241Z" fill="#019646"/>
<path d="M479.76 389.877C476.948 389.864 474.137 389.894 471.325 389.893C469.213 389.891 466.312 390.166 464.476 389.025C463.64 387.354 463.851 384.375 463.796 382.51C463.603 375.943 463.65 369.334 464.13 362.779C465.611 362.883 466.949 363.179 468.382 363.554C468.679 367.261 468.557 371.012 468.482 374.727C468.451 376.233 468.6 377.984 468.279 379.44L468.19 379.813L468.486 379.924L468.878 378.753L469.098 379.26L470.117 379.159C472.763 378.853 475.65 379.08 478.323 379.077L478.24 372.376L478.461 372.157C479.22 373.294 478.7 374.89 478.907 376.152C479.636 380.609 479.223 385.32 479.76 389.877Z" fill="#01CD60"/>
<path d="M321.609 351.815L330.624 351.796L330.985 378.604L320.971 378.7C321.169 372.946 321.31 367.199 321.369 361.442C321.389 359.39 321.408 357.339 321.431 355.288C321.443 354.148 321.349 352.928 321.609 351.815Z" fill="#2FDD89"/>
<path d="M120.05 187.522L120.002 181.104L126.648 181.116L127.125 181.585L127.185 187.357L127.366 187.468L127.34 181.634L127.73 181.425C127.637 186.635 127.682 191.845 127.626 197.054C127.579 201.33 127.17 206.163 127.893 210.38C128.162 211.949 127.792 213.41 129.093 214.549L128.925 214.782L129.207 215.079L129.289 215.346L128.893 215.452C125.942 215.919 122.052 215.507 119.787 213.513L120.05 187.522Z" fill="#06BA5B"/>
<path d="M245.206 342.52L248.454 342.49L248.521 378.518L241.281 378.611C241.064 378.02 241.168 377.286 241.167 376.659C241.166 375.163 241.146 373.669 241.122 372.174C240.963 362.37 240.939 352.585 240.972 342.78L244.977 342.554L245.206 342.52Z" fill="#2FDD89"/>
<path d="M168.78 181.294L177.436 181.169L177.437 200.349L177.212 200.304C176.889 200.219 176.761 200.096 176.525 199.875C176.155 200.484 176.71 213.059 176.726 214.883L171.868 214.844C171.086 214.627 169.848 214.437 169.255 213.882C169.032 213.673 168.975 213.391 168.923 213.102C168.648 211.578 168.846 209.651 168.84 208.087C168.825 204.867 168.783 201.65 168.72 198.431C168.428 196.36 168.502 194.251 168.483 192.165C168.457 189.455 168.38 186.748 168.295 184.039C168.499 183.662 168.431 183.869 168.477 183.369L168.78 181.294Z" fill="#2FDD89"/>
<path d="M362.887 179.912L362.866 165.665C368.023 165.248 373.636 165.093 378.783 165.566L378.49 165.583L371.614 165.576C371.584 171.646 371.568 177.717 371.55 183.787C371.542 186.668 371.871 190.18 371.338 193.01L371.003 191.797L370.669 201.652L363.658 201.63C363.257 197.561 362.474 193.43 362.418 189.341C362.377 186.256 362.902 183.192 362.89 180.131L362.887 179.912Z" fill="#2FDD89"/>
<path d="M291.244 342.47L299.477 342.772L299.295 378.996C298.369 378.818 297.267 378.922 296.314 378.92C294.471 378.917 292.628 378.914 290.785 378.913L290.65 364.652C290.905 363.892 290.718 362.642 290.707 361.82L290.71 342.77L291.244 342.47Z" fill="#2FDD89"/>
<path d="M378.784 165.565C379.371 165.584 379.985 165.511 380.503 165.799C380.278 168.467 380.409 171.217 380.414 173.895C380.424 178.469 380.438 183.043 380.447 187.617C380.452 190.711 380.449 193.804 380.443 196.899C380.441 198.388 380.283 200.057 380.447 201.531C379.412 201.713 378.251 201.618 377.196 201.622C375.235 201.628 373.273 201.633 371.311 201.638L371.339 193.009C371.872 190.179 371.543 186.667 371.551 183.786C371.57 177.716 371.585 171.646 371.615 165.575L378.491 165.582L378.784 165.565Z" fill="#2FD67B"/>
<path d="M377.378 343.772L377.725 345.738L377.867 342.321L386.439 342.416L386.699 379.483C386.137 379.27 385.61 379.39 385.053 379.259C383.01 378.782 380.212 379.085 378.066 379.099C378.072 377.113 377.911 375.164 377.91 373.197C377.909 367.367 377.909 361.535 377.912 355.705C377.913 354.455 378.313 350.438 377.696 349.514C377.083 350.137 377.622 355.987 377.421 357.274L377.367 357.535C377.061 356.265 377.285 354.501 377.284 353.178C377.284 350.057 377.168 346.888 377.378 343.772Z" fill="#2FD67B"/>
<path d="M439.12 364.799L439.59 364.966L439.737 378.888L448.674 378.896L448.44 379.022C447.486 379.408 445.879 379.238 444.833 379.256C445.195 379.455 445.238 379.434 445.63 379.444C446.139 379.457 446.16 379.601 446.585 379.744C447.479 380.047 449.45 379.967 450.487 380.067C453.278 380.335 456.286 380.347 459.092 380.345L459.427 380.709L459.834 388.891L459.311 389.467C457.627 390.044 455.788 389.981 454.027 389.991C451.709 390.004 449.39 389.996 447.072 389.993C441.265 389.985 435.452 390.047 429.647 389.892L429.487 382.526L429.611 379.259L430.423 379.259C433.217 378.94 436.175 379.104 439.008 379.076L439.1 365.067L439.12 364.799Z" fill="#2FD67B"/>
<path d="M320.295 389.908C320.291 388.041 319.981 383.758 320.938 382.221L321.29 381.699L321.236 381.144L321.29 380.589C321.287 380.174 321.165 379.827 321.317 379.423C321.402 379.198 321.741 379.037 321.96 378.98C322.433 378.856 322.557 378.984 322.965 379.146C323.528 378.773 324.267 378.923 324.938 378.922C327.096 378.92 329.286 379.012 331.436 378.978L332.217 378.924C332.826 379.04 333.24 379.13 333.889 379.146C334.785 378.551 342.283 378.924 343.92 378.924C344.605 379.379 347.023 379.164 347.932 379.201L347.934 379.589L348.267 379.699C348.425 380.147 348.453 380.22 348.824 380.554L349.52 380.415L349.716 380.365C350.132 380.641 349.948 380.575 350.438 380.675L350.783 380.736L350.833 382.745C350.815 384.457 351.163 388.003 349.899 389.235C349.377 389.744 348.522 389.915 347.822 389.987C343.324 390.45 338.391 389.992 333.86 389.957C329.465 389.924 324.874 390.243 320.503 389.928L320.295 389.908Z" fill="#2FD67B"/>
<path d="M359.069 347.225L359.016 342.536L367.815 342.541L367.761 378.889C366.314 379.263 364.572 379.072 363.078 379.078C362.044 379.081 360.996 379.268 360.015 379.25C359.352 379.239 359.079 379.418 358.533 379.771L359.069 347.225Z" fill="#2FD67B"/>
<path d="M373.234 342.308L377.144 342.354C377.522 342.877 377.409 343.141 377.384 343.772C377.174 346.888 377.289 350.056 377.289 353.178C377.29 354.5 377.066 356.264 377.372 357.535L377.086 378.867C375.004 378.873 372.921 378.876 370.839 378.873C370.07 378.872 368.919 379.032 368.244 378.699L368.445 342.443L372.98 342.333L373.234 342.308Z" fill="#2FDD89"/>
<path d="M380.505 165.8L380.626 166.054C380.919 166.719 380.809 167.797 380.819 168.521C381.259 167.808 381.077 166.463 381.093 165.607L390.127 165.69L390.323 181.57L390.386 196.397L390.307 201.598L381.147 201.626C381.125 200.739 381.293 197.275 380.814 196.791C380.777 197.977 381.001 200.576 380.449 201.531C380.284 200.057 380.443 198.388 380.445 196.899C380.45 193.805 380.454 190.711 380.449 187.617C380.439 183.043 380.426 178.469 380.416 173.896C380.411 171.217 380.279 168.467 380.505 165.8Z" fill="#58DB90"/>
<path d="M248.459 342.49C249.935 342.194 251.484 342.311 252.985 342.324C254.404 342.336 255.893 342.242 257.288 342.513L258.075 342.573C258.709 343.59 258.332 347.955 258.335 349.342L258.238 378.631C256.319 378.63 254.4 378.628 252.48 378.628C251.518 378.628 250.339 378.501 249.413 378.704C248.751 379.184 247.794 378.956 246.954 378.978C246.131 378.999 245.33 378.935 244.501 378.978H242.941V379.146L243.387 379.256C243.005 379.634 241.785 379.476 241.209 379.476L241.286 378.611L248.526 378.518L248.459 342.49Z" fill="#58DB90"/>
<path d="M248.459 342.49C249.935 342.194 251.484 342.311 252.985 342.324C254.404 342.336 255.893 342.242 257.288 342.513L249.274 342.526L249.413 378.704C248.751 379.184 247.794 378.956 246.954 378.978C246.131 378.999 245.33 378.935 244.501 378.978H242.941V379.146L243.387 379.256C243.005 379.634 241.785 379.476 241.209 379.476L241.286 378.611L248.526 378.518L248.459 342.49Z" fill="#06BA5B"/>
<path d="M299.477 342.772L309.247 342.718L309.183 342.942L309.322 343.308C309.163 346.936 309.205 350.585 309.216 354.217C309.222 356.17 309.046 358.619 309.508 360.51C310.118 362.288 309.967 364.512 309.994 366.384C310.053 370.632 310.04 374.914 309.515 379.137C307.456 379.13 305.396 379.123 303.336 379.117C302.264 379.114 301.073 379.007 300.018 379.169L299.295 378.997L299.477 342.772Z" fill="#2FD67B"/>
<path d="M299.477 342.772L309.247 342.718L309.183 342.942L300.256 342.892L300.018 379.169L299.295 378.997L299.477 342.772Z" fill="#019646"/>
<path d="M119.779 213.513C119.486 213.379 119.185 213.287 118.879 213.186C118.731 213.257 118.533 213.268 118.434 213.399C118.273 213.609 118.196 214.413 118.149 214.693C117.95 215.868 117.804 217.214 117.35 218.323C117.091 218.953 116.627 219.431 116.118 219.867L115.642 219.655C115.218 218.882 115.033 218.202 114.969 217.324C114.659 213.087 114.946 208.696 114.947 204.442C114.951 195.792 114.864 187.141 114.864 178.491C114.864 172.528 115.086 166.283 114.609 160.354L114.588 160.116C116.882 161.562 118.375 162.15 121.02 162.727C122.677 163.109 124.681 163.73 125.775 165.128C125.842 168.997 125.933 172.861 126.116 176.725C126.173 177.93 126.056 180.076 126.639 181.115L119.994 181.103L120.041 187.522L119.779 213.513Z" fill="#006D34"/>
<path d="M120.043 187.521L119.838 187.324L119.264 162.938C119.848 162.585 120.347 162.712 121.022 162.726C122.679 163.108 124.683 163.729 125.777 165.127C125.844 168.996 125.935 172.859 126.118 176.724C126.175 177.929 126.058 180.075 126.641 181.114L119.996 181.102L120.043 187.521Z" fill="#01873E"/>
<path d="M132.666 223.65L132.976 223.548C133.65 223.414 134.105 223.483 134.633 223.872C135.094 224.987 134.888 226.899 134.902 228.133C134.945 231.864 134.817 235.598 134.893 239.324C134.997 244.407 135.312 249.545 135.374 254.601C135.44 260.122 134.889 265.722 134.827 271.266C134.775 275.837 134.989 280.405 134.99 284.976C134.992 290.27 134.832 295.57 134.828 300.867C134.826 304.634 135.024 308.402 134.87 312.168C134.824 313.307 134.907 314.684 134.492 315.748L133.954 315.772L133.694 315.609L133.325 315.363C132.624 314.9 132.115 314.389 131.609 313.715C130.875 312.74 130.758 311.669 130.659 310.486C130.192 304.882 130.435 299.078 130.425 293.451C130.409 284.391 130.325 275.331 130.32 266.271C130.315 257.973 130.298 249.674 130.37 241.376C130.411 236.673 130.243 231.799 130.865 227.132C131.058 225.679 131.479 224.557 132.666 223.65Z" fill="#00622E"/>
<path d="M377.37 357.535L377.425 357.274C377.625 355.986 377.087 350.136 377.7 349.514C378.317 350.438 377.916 354.455 377.916 355.704C377.913 361.535 377.913 367.366 377.913 373.197C377.914 375.163 378.075 377.113 378.069 379.098C380.215 379.085 383.014 378.781 385.056 379.259C385.613 379.39 386.141 379.269 386.703 379.483L386.845 379.831C387.999 380.484 388.379 380.865 388.733 382.208C389.239 384.126 389.131 386.823 388.125 388.579C387.826 389.102 387.48 389.362 386.985 389.69C385.29 390.071 383.447 389.977 381.712 389.974C379.21 389.97 376.707 389.959 374.205 389.948C368.956 389.924 363.473 390.207 358.252 389.73C357.441 389.657 356.562 389.61 355.864 389.151C355.345 388.809 355.13 388.295 355.047 387.692C354.591 384.381 355.015 380.606 355.069 377.25C355.149 372.29 354.998 367.341 355.328 362.387C355.933 361.862 356.632 361.949 357.413 361.878L357.95 362.164C357.966 366.404 357.77 370.649 357.756 374.893C357.75 376.545 357.571 378.427 357.859 380.05L358.193 380.196L358.527 379.852L358.523 379.769C359.069 379.416 359.342 379.237 360.005 379.248C360.986 379.266 362.033 379.079 363.068 379.076C364.562 379.07 366.304 379.261 367.751 378.887L367.972 379.01L368.242 378.699C368.917 379.032 370.068 378.871 370.837 378.872C372.919 378.876 375.002 378.872 377.084 378.867L377.37 357.535Z" fill="url(#paint3_linear_122_130759)"/>
<path d="M339.175 351.72C340.218 351.373 341.436 351.48 342.532 351.465C344.562 351.436 346.592 351.415 348.622 351.396L348.812 362.952L349.006 375.278L348.817 378.893C346.776 378.734 344.742 378.744 342.696 378.731C341.648 378.723 340.339 378.878 339.35 378.516L339.147 378.626C338.538 378.866 337.688 378.75 337.039 378.752C335.36 378.755 333.68 378.748 332.001 378.739L331.693 378.272L331.6 351.676C333.336 351.636 335.074 351.598 336.812 351.596C337.594 351.596 338.418 351.511 339.175 351.72Z" fill="#2FDD89"/>
<path d="M331.6 351.676C333.337 351.635 335.074 351.598 336.812 351.596C337.595 351.596 338.419 351.511 339.175 351.72L339.052 378.501C337.346 378.508 335.641 378.517 333.936 378.517C333.222 378.517 332.31 378.634 331.694 378.272L331.6 351.676Z" fill="#58DB90"/>
<path d="M151.576 166.415C154.25 166.35 157.371 166.008 159.986 166.551C160.736 167.495 160.475 169.611 160.483 170.787C160.504 174.173 160.254 177.775 160.667 181.131L168.78 181.294L168.477 183.369C168.431 183.868 168.499 183.662 168.295 184.039C168.38 186.747 168.457 189.455 168.482 192.165C168.502 194.251 168.428 196.36 168.719 198.43C167.954 198.321 167.206 198.485 166.443 198.586L166.322 201.711C165.713 201.798 165.278 201.635 164.692 201.584C163.444 201.476 162.129 201.567 160.871 201.537L151.541 201.527L151.576 166.415Z" fill="#2FDD89"/>
<path d="M160.666 181.132L168.779 181.294L168.476 183.37C168.43 183.869 168.498 183.663 168.294 184.04C168.379 186.748 168.456 189.456 168.481 192.166C168.501 194.252 168.427 196.361 168.718 198.431C167.953 198.322 167.205 198.486 166.442 198.587L166.321 201.712C165.712 201.799 165.277 201.636 164.691 201.585C163.442 201.477 162.128 201.568 160.87 201.538L160.666 181.132Z" fill="#01CD60"/>
<path d="M166.443 198.587L166.887 185.581C167.021 184.657 167.562 184.544 168.295 184.039C168.38 186.748 168.457 189.455 168.482 192.165C168.502 194.252 168.428 196.361 168.719 198.431C167.954 198.321 167.206 198.485 166.443 198.587Z" fill="url(#paint4_linear_122_130759)"/>
<path d="M394.932 208.55L394.749 181.137L414.802 180.965C414.797 183.486 414.709 186.079 415.087 188.578L415.666 188.927L415.758 207.331L415.59 208.089L406.571 208.11C406.585 209.888 407.015 212.858 406.456 214.475L406.234 202.785L405.902 202.565C405.794 202.675 405.626 202.749 405.578 202.896C405.424 203.365 405.579 204.551 405.579 205.081C405.579 207.584 405.587 210.087 405.571 212.591C405.567 213.221 405.704 214.482 405.419 215.018L395.179 214.792L395.022 211.659L394.932 208.55Z" fill="#2FD67B"/>
<path d="M394.928 208.548C396.923 208.159 398.968 208.2 400.994 208.159C402.457 208.129 403.944 208.006 405.402 208.119C405.402 210.268 405.116 212.92 405.416 215.017L395.175 214.791L395.018 211.658L394.928 208.548Z" fill="#2FDD89"/>
<path d="M239.148 208.961C239.619 206.599 239.423 203.939 239.483 201.53C239.656 194.682 239.704 187.806 239.556 180.957C239.492 177.994 239.371 175.033 239.24 172.071C239.203 171.241 238.877 169.285 239.22 168.581C240.739 168.631 244.196 168.306 245.39 169.042L245.491 170.152C245.577 169.619 245.66 169.281 245.947 168.82L255.853 168.269C255.875 170.981 255.897 173.694 255.938 176.405C255.96 177.819 255.862 179.506 256.227 180.863L256.336 181.251L256.734 185.455C256.694 187.335 256.193 194.706 256.952 195.857L257.432 195.996C257.515 196.943 257.619 198.141 257.467 199.084L257.09 198.588C256.944 198.765 256.734 198.906 256.653 199.12C256.532 199.439 256.653 200.485 256.653 200.893C256.653 203.002 256.653 205.113 256.653 207.222L256.985 207.435L257.319 207.359C257.731 207.28 258.031 207.29 258.443 207.331L256.093 207.712L255.793 207.759L239.148 208.961Z" fill="#2FD67B"/>
<path d="M212.612 215.356L212.455 183.361C212.494 182.593 212.694 182.105 213.29 181.598C213.985 181.006 214.97 180.736 215.854 180.604C218.001 180.285 220.352 180.435 222.524 180.422C226.146 180.401 229.905 180.224 233.493 180.703L233.318 215.178C231.19 215.049 213.621 214.832 212.612 215.356Z" fill="#2FDD89"/>
<path d="M293.819 196.283C293.538 193.857 293.794 191.094 293.793 188.638C293.789 181.972 293.915 175.311 294.032 168.646L302.504 168.802C302.771 170.59 302.736 172.454 302.793 174.26L303.018 174.386L303.131 168.763L312.024 168.277L312.021 171.814L311.553 208.893C309.119 208.588 306.586 208.767 304.133 208.628C302.252 208.522 300.406 208.102 298.522 207.963C296.329 207.803 293.87 207.994 291.798 207.161L291.404 207.096L291.243 205.014C290.811 203.455 291.024 201.157 291.166 199.53L291.107 195.805C291.768 196.443 292.904 196.286 293.819 196.283Z" fill="#2FD67B"/>
<path d="M291.107 195.806C291.768 196.443 292.904 196.286 293.819 196.283C293.937 197.247 293.866 198.12 293.778 199.08L293.764 207.002C293.247 207.43 292.463 207.209 291.798 207.161L291.404 207.097L291.243 205.014C290.811 203.455 291.024 201.157 291.166 199.53L291.107 195.806Z" fill="#015322"/>
<path d="M291.107 195.806C291.768 196.443 292.904 196.286 293.819 196.283C293.937 197.247 293.866 198.12 293.778 199.08L291.256 199.325L291.243 205.014C290.811 203.455 291.024 201.157 291.166 199.53L291.107 195.806Z" fill="#06BA5B"/>
<path d="M469.725 238.079L495.886 238.048L495.722 266.048L495.386 266.383L469.38 266.349C469.365 259.244 469.379 252.139 469.381 245.035C469.382 243.514 469.382 241.993 469.383 240.471C469.383 239.983 469.265 239.088 469.383 238.637C469.439 238.426 469.611 238.265 469.725 238.079Z" fill="#2FDD89"/>
<path d="M469.627 275.371C472.001 275.077 474.894 275.444 477.324 275.43C483.446 275.396 489.563 275.277 495.686 275.286L495.628 303.719C494.414 304.275 472.939 303.86 469.36 303.855C469.314 297.151 469.365 290.444 469.393 283.74C469.4 282.011 469.408 280.284 469.419 278.555C469.425 277.518 469.304 276.362 469.627 275.371Z" fill="#2FDD89"/>
<path d="M156.091 238.08L164.147 238.193L164.302 266.395L144.423 266.333L137.181 266.215L137.1 238.237L156.091 238.08Z" fill="#2FDD89"/>
<path d="M154.173 275.375L164.143 275.388C164.38 276.163 164.256 277.135 164.254 277.948C164.253 279.778 164.251 281.609 164.252 283.439C164.254 290.221 164.273 297.003 164.284 303.785L147.192 303.814L137.139 303.725L137.194 275.458L154.173 275.375Z" fill="#2FDD89"/>
<path d="M171.874 214.845L176.732 214.884C176.716 213.061 176.161 200.486 176.531 199.876C176.767 200.097 176.895 200.22 177.218 200.306L177.443 200.35L177.967 200.273L178.12 201.524L178.089 206.12L178.07 210.019L178.1 215.06L177.971 338.075C179.313 338.423 181.333 338.146 182.739 338.129C186.559 338.086 190.378 338.044 194.198 338.029C196.098 338.022 198.13 337.877 200.014 338.071C197.814 338.631 195.558 338.152 193.326 338.386C192.457 338.478 189.492 338.145 188.996 338.634C188.244 338.638 187.517 338.634 186.767 338.58C185.511 338.49 184.241 338.782 182.978 338.577C181.552 338.345 179.668 338.517 178.183 338.525L178.184 341.92C180.381 342.137 183.243 342.345 185.43 342.022C186.272 341.898 187.215 342.081 188.078 342.084C190.07 342.089 192.032 342.078 194.012 341.969L194.57 342.022C195.611 342.084 196.45 341.969 197.468 342.19C199.027 342.529 201.53 342.198 203.184 342.195C203.911 342.193 204.702 342.073 205.367 342.407L205.002 342.474C203.055 342.462 201.108 342.453 199.162 342.453C198.423 342.453 197.465 342.33 196.782 342.581C196.42 342.713 196.239 342.708 195.856 342.681C195.02 342.363 193.955 342.499 193.059 342.501C190.968 342.507 188.878 342.519 186.787 342.533L186.403 342.94L186.11 342.73L185.912 342.508C185.29 342.255 184.561 342.342 183.9 342.338C182.244 342.327 179.645 342.622 178.127 342.177C175.654 341.451 173.016 341.421 170.457 341.379C167.315 341.327 164.174 341.317 161.031 341.319C159.065 341.32 157.054 341.417 155.1 341.193C156.903 340.909 158.971 341.084 160.805 341.081C164.691 341.073 168.577 341.098 172.462 341.137C172.236 324.173 171.828 307.2 171.665 290.237C171.532 276.251 171.613 262.232 171.596 248.242C171.588 240.587 171.855 232.937 171.981 225.284C172.037 221.861 172.553 218.21 171.874 214.845Z" fill="#00622E"/>
<path d="M258.995 342.737C260.232 342.454 261.621 342.571 262.892 342.571C264.878 342.571 266.876 342.532 268.859 342.62C268.75 346.928 268.773 351.235 268.798 355.544C268.806 356.799 268.533 359.16 269.038 360.25C270.264 360.466 271.649 360.497 272.502 361.454C272.878 363.62 272.8 365.858 272.822 368.05C272.866 372.212 272.743 376.352 272.726 380.51C272.716 382.802 273.117 385.254 272.922 387.52C272.873 388.087 272.687 388.669 272.397 389.157C271.382 389.932 270.128 389.873 268.902 389.916C266.86 389.988 264.811 389.967 262.767 389.97C258.854 389.975 254.941 389.973 251.028 389.958C248.165 389.947 245.196 390.005 242.355 389.618C241.76 389.536 241.372 389.424 240.869 389.109C241 386.044 240.423 382.451 241.213 379.477C241.789 379.477 243.009 379.634 243.391 379.257L242.945 379.146V378.979H244.505C245.334 378.936 246.135 379 246.957 378.979C247.798 378.957 248.755 379.185 249.417 378.705C250.343 378.502 251.521 378.629 252.484 378.629C254.404 378.629 256.322 378.631 258.242 378.632L258.339 349.342L258.649 350.622C258.67 349.463 258.365 346.063 258.936 345.238L258.995 342.737Z" fill="url(#paint5_linear_122_130759)"/>
<path d="M258.994 342.737C260.231 342.454 261.62 342.571 262.891 342.571C264.877 342.571 266.875 342.532 268.858 342.62C268.749 346.928 268.772 351.235 268.797 355.544C268.805 356.799 268.532 359.16 269.038 360.25C269.264 362.318 269.164 364.515 269.17 366.597C269.182 370.625 269.126 374.637 268.986 378.662C268.049 378.908 266.803 378.755 265.824 378.747C263.535 378.73 261.245 378.711 258.955 378.691L258.936 345.238L258.994 342.737Z" fill="#58DB90"/>
<path d="M209.646 337.776L209.95 337.362C217.732 336.161 226.461 337.358 234.25 338.147C234.568 338.62 234.506 338.644 234.518 339.181L233.856 376.716C229.431 376.689 225.007 376.618 220.583 376.532C218.384 376.489 215.487 376.734 213.406 376.044C212.77 375.281 212.321 374.502 212.177 373.504C211.859 371.309 212.131 368.779 212.163 366.541C212.228 361.939 212.335 357.337 212.342 352.734C212.345 350.312 212.457 347.814 212.213 345.405C212.064 343.944 211.014 342.532 210.506 341.145C210.11 340.063 209.89 338.901 209.646 337.776Z" fill="#2FDD89"/>
<path d="M415.79 188.723L416.32 168.699L426.194 168.515L426.251 182.09C433.257 181.171 440.776 181.506 447.84 181.603C447.96 181.745 448.124 181.86 448.199 182.031C448.446 182.592 448.172 184.843 448.165 185.543C448.123 189.971 448.058 194.4 448.083 198.828L438.324 198.935L438.26 202.493L438.08 202.617L437.702 207.591L416.161 207.835L415.762 207.332L415.67 188.928L415.79 188.723Z" fill="#2FDD89"/>
<path d="M415.79 188.722L437.937 188.372L438.08 202.616L437.702 207.59L416.161 207.833L415.762 207.33L415.67 188.927L415.79 188.722Z" fill="#FDFDFD"/>
<path d="M141.217 166.438C143.145 166.144 145.224 166.274 147.177 166.266C148.602 166.26 150.184 166.12 151.574 166.415L151.539 201.527L160.868 201.537C162.126 201.568 163.441 201.476 164.689 201.584C165.276 201.636 165.711 201.798 166.32 201.711L165.722 210.536L165.643 210.594L165.588 209C163.27 208.213 159.553 208.621 157.084 208.543C149.179 208.292 141.158 207.897 133.253 208.045C133.278 209.506 133.433 211.112 133.235 212.554C132.983 211.245 133.065 209.776 133.027 208.444C132.96 206.112 132.908 203.78 132.88 201.447L132.779 166.724L141.217 166.438Z" fill="#58DB90"/>
<path d="M132.88 201.448L132.779 166.725L141.217 166.438L141.2 201.541C138.617 201.556 135.392 201.95 132.88 201.448Z" fill="#2FDD89"/>
<path d="M141.883 166.601C142.909 166.37 144.221 166.476 145.274 166.472C147.184 166.466 149.093 166.468 151.003 166.468L150.718 201.229C150.16 201.641 149.338 201.495 148.648 201.503C146.356 201.531 144.064 201.545 141.771 201.565L141.883 166.601Z" fill="#2FD67B"/>
<path d="M257.499 184.656L257.444 181.141C262.164 180.479 267.33 180.743 272.102 180.701C278.469 180.645 284.948 180.396 291.302 180.74L291.107 195.805L291.166 199.53C291.024 201.157 290.811 203.455 291.243 205.014L291.404 207.097L275.544 206.988L275.536 215.582C275.313 215.774 275.466 215.657 275.041 215.879L274.485 215.504L274.485 206.908L258.441 207.333C258.03 207.292 257.73 207.281 257.317 207.361L256.984 207.436L256.652 207.224C256.652 205.114 256.652 203.004 256.652 200.894C256.652 200.486 256.53 199.44 256.652 199.122C256.733 198.908 256.942 198.767 257.088 198.589L257.465 199.085C257.618 198.143 257.514 196.945 257.43 195.998L256.95 195.858C256.191 194.708 256.693 187.336 256.732 185.456L256.866 183.805L257.095 183.748L257.499 184.656Z" fill="#2FDD89"/>
<path d="M256.731 185.456L256.864 183.806L257.093 183.748L257.495 184.656L257.426 195.998L256.948 195.858C256.193 194.708 256.692 187.337 256.731 185.456Z" fill="#000B00"/>
<path d="M257.467 199.085L257.65 199.788C258.661 200.354 261.146 200.02 262.362 200.012C266.411 199.983 270.473 200.015 274.519 199.801L274.711 191.241L275.043 191.021L275.461 191.143C275.852 193.844 275.555 196.973 275.552 199.723L291.168 199.53C291.026 201.157 290.813 203.455 291.245 205.014L291.407 207.096L275.546 206.987L275.538 215.582C275.315 215.773 275.468 215.657 275.043 215.878L274.487 215.504L274.487 206.907L258.443 207.332C258.032 207.291 257.732 207.281 257.319 207.36L256.986 207.436L256.654 207.223C256.654 205.114 256.654 203.003 256.654 200.894C256.654 200.486 256.532 199.44 256.654 199.121C256.735 198.907 256.945 198.767 257.09 198.589L257.467 199.085Z" fill="#58DB90"/>
<path d="M391.623 337.894L391.87 337.217C393.379 336.722 395.174 336.809 396.757 336.842C400.187 336.915 403.601 337.27 407.012 337.62C409.983 337.926 413.096 338.123 416.031 338.634L416.186 339.164C415.659 343.577 415.868 348.173 415.903 352.617C415.915 354.092 415.707 356.142 416.084 357.539L416.627 376.738L392.771 376.216C392.519 367.868 392.974 359.422 392.967 351.061C392.965 348.155 393.411 344.128 392.505 341.381C392.126 340.23 391.907 339.07 391.623 337.894Z" fill="#2FDD89"/>
<path d="M416.191 339.164L416.526 338.856C416.651 339.366 416.709 339.729 417.023 340.164L417.38 340.413C418.172 341.376 419.046 341.322 420.219 341.434C422.204 341.626 424.237 341.62 426.19 341.888C427.193 342.026 428.141 341.953 429.156 342.163C429.619 342.258 430.094 342.263 430.565 342.275L430.596 342.366L439.109 342.483C439.135 347.6 439.16 352.717 439.181 357.834C439.19 360.009 439.499 362.678 439.122 364.799L439.102 365.067L439.01 379.076C436.177 379.104 433.219 378.94 430.425 379.259L429.613 379.26L429.489 382.526C429.184 383.042 429.303 383.794 429.297 384.39C429.278 385.874 429.071 387.641 429.338 389.095L429.412 389.468L429.009 389.698L428.53 389.507L428.228 380.275L428.205 380.027L428.187 389.845C427.101 389.832 425.277 390.022 424.3 389.653C423.858 389.593 423.455 389.532 423.032 389.39C422.095 389.04 421.288 388.434 420.573 387.743C420.176 387.359 419.467 386.625 419.237 386.132C418.989 385.601 419.069 384.269 419.062 383.665C419.037 381.366 419.039 379.066 419.037 376.767L418.906 376.713C417.943 376.825 417.596 377.118 416.632 376.739L416.089 357.54C415.712 356.142 415.92 354.092 415.908 352.617C415.873 348.174 415.665 343.578 416.191 339.164Z" fill="#2FDD89"/>
<path d="M423.287 357.856L423.388 358.22C423.649 359.238 423.587 360.446 423.624 361.498C423.888 361.283 424.048 361.11 424.256 360.849C424.043 365.031 424.155 369.244 424.171 373.432C424.176 374.855 424.434 376.745 424.151 378.111C423.893 378.85 423.812 379.361 423.843 380.146L423.576 380.256L423.468 383.682L423.32 383.752C422.983 381.585 423.269 378.892 423.256 376.676C423.22 370.403 423.249 364.13 423.287 357.856Z" fill="#015322"/>
<path d="M417.692 357.613C418.746 357.341 421.932 357.039 422.913 357.497L423.085 357.608L418.577 357.637L419.035 376.768L418.905 376.714C417.942 376.826 417.595 377.119 416.63 376.74L416.088 357.541C416.456 358.163 416.657 358.377 416.658 359.113C416.684 358.534 416.589 358.01 416.936 357.533L417.692 357.613Z" fill="#019646"/>
<path d="M416.088 357.542C416.457 358.164 416.657 358.378 416.658 359.114C416.685 358.535 416.59 358.011 416.937 357.534L417.693 357.614C417.214 358.719 417.434 360.184 417.461 361.378C417.523 364.077 417.615 366.776 417.653 369.475C417.685 371.714 417.475 374.039 417.707 376.262C418.184 376.581 418.206 376.406 418.662 376.56L418.905 376.715C417.943 376.827 417.596 377.12 416.631 376.741L416.088 357.542Z" fill="#015322"/>
<path d="M424.265 360.85C424.937 360.483 425.353 360.648 426.095 360.832C426.729 360.99 427.6 361.246 428.067 361.686C428.918 366.3 428.332 371.58 428.243 376.269C428.22 377.493 428.088 378.812 428.207 380.027L428.189 389.845C427.103 389.832 425.279 390.022 424.302 389.653C423.86 389.593 423.457 389.532 423.034 389.39C423.689 388.444 423.33 385.072 423.325 383.753L423.473 383.683L423.581 380.257L423.85 380.147C423.818 379.362 423.9 378.851 424.159 378.111C424.444 376.746 424.185 374.856 424.179 373.433C424.163 369.245 424.051 365.032 424.265 360.85Z" fill="#06BA5B"/>
<path d="M423.323 383.753L423.471 383.683L423.579 380.257L423.847 380.147C423.815 379.362 423.896 378.851 424.154 378.111L424.296 389.653C423.857 389.593 423.455 389.532 423.034 389.39C423.686 388.444 423.329 385.072 423.323 383.753Z" fill="#00622E"/>
<path d="M416.191 339.164L416.526 338.856C416.651 339.366 416.709 339.729 417.023 340.164L417.38 340.413C418.172 341.376 419.046 341.322 420.219 341.434C422.204 341.626 424.237 341.62 426.19 341.888C427.193 342.026 428.141 341.953 429.156 342.163C429.619 342.258 430.094 342.263 430.565 342.275L430.596 342.366L430.354 343.222L429.613 379.26L429.489 382.526C429.184 383.042 429.303 383.794 429.297 384.39C429.278 385.874 429.071 387.641 429.338 389.095L429.412 389.468L429.009 389.698L428.53 389.507L428.228 380.275L428.205 380.027C428.086 378.812 428.218 377.493 428.241 376.269C428.33 371.58 428.916 366.3 428.065 361.686C427.598 361.246 426.727 360.99 426.093 360.832C425.351 360.648 424.935 360.483 424.263 360.85C424.053 361.111 423.893 361.284 423.628 361.499C423.591 360.447 423.653 359.239 423.391 358.221L423.29 357.857L423.086 357.608L422.914 357.496C421.933 357.039 418.747 357.341 417.694 357.613L416.938 357.533C416.591 358.01 416.685 358.533 416.659 359.112C416.658 358.376 416.458 358.163 416.089 357.54C415.712 356.142 415.92 354.092 415.908 352.617C415.873 348.174 415.665 343.578 416.191 339.164Z" fill="url(#paint6_linear_122_130759)"/>
<path d="M417.018 340.163L417.375 340.413C418.167 341.376 419.041 341.321 420.214 341.434C422.198 341.625 424.231 341.619 426.184 341.888C427.188 342.025 428.136 341.953 429.151 342.162C429.613 342.258 430.089 342.262 430.56 342.275L430.591 342.365L430.349 343.221C430.06 342.88 430.22 343.049 429.863 342.719C426.854 342.994 423.81 342.962 420.789 342.965C419.587 342.966 418.195 343.158 417.236 342.408C416.975 341.716 417.033 340.898 417.018 340.163Z" fill="#006D34"/>
<path d="M430.353 343.222L430.596 342.365L439.108 342.482C439.134 347.6 439.159 352.717 439.181 357.834C439.19 360.009 439.498 362.678 439.121 364.799L439.101 365.066L439.01 379.076C436.176 379.103 433.218 378.939 430.424 379.259L429.612 379.259L430.353 343.222Z" fill="#2FDD89"/>
<path d="M139.791 359.493L139.631 350.751L148.927 350.717C148.952 351.744 148.695 354.043 149.165 354.867L149.357 350.702L159.799 350.729L159.793 354.058L159.818 354.306L160.086 362.58C161.625 362.788 163.07 363.006 164.546 363.504L164.71 370.471C165.014 373.085 164.901 375.744 165.013 378.372C165.173 382.111 165.766 385.827 165.185 389.552C161.049 390.501 156.046 389.988 151.793 389.968C145.785 389.94 139.558 390.222 133.594 389.463C133.421 385.639 133.598 381.88 133.698 378.058C133.745 376.271 133.577 374.231 133.895 372.48L134.101 362.428L139.806 362.419L139.791 359.493Z" fill="#58DB90"/>
<path d="M159.798 354.057L159.823 354.304L160.091 362.578C161.63 362.787 163.075 363.004 164.551 363.502L164.715 370.47L164.748 377.721C162.934 377.987 160.215 378.703 158.439 378.447C158.241 377.487 158.55 375.898 158.578 374.855C158.666 371.577 158.717 368.296 158.779 365.017C158.812 363.271 158.536 361.209 158.784 359.501C158.873 358.886 159.302 358.263 159.453 357.614C159.719 356.464 159.681 355.232 159.798 354.057Z" fill="#2FD67B"/>
<path d="M140.164 367.486L140.432 378.458L148.793 378.465L148.972 358.726C149.509 359.518 149.406 376.144 149.498 378.501L158.434 378.448C160.21 378.704 162.929 377.988 164.743 377.722L164.71 370.471C165.014 373.084 164.901 375.743 165.013 378.371C165.173 382.11 165.766 385.826 165.185 389.551C161.049 390.5 156.046 389.987 151.793 389.968C145.785 389.94 139.558 390.221 133.594 389.462C133.421 385.638 133.598 381.879 133.698 378.058C133.745 376.27 133.577 374.23 133.895 372.48L134.101 362.428L139.806 362.418L139.791 359.493C140.089 361.462 140.214 363.625 140.24 365.614C140.247 366.16 140.372 367.01 140.164 367.486Z" fill="url(#paint7_linear_122_130759)"/>
<path d="M139.793 359.492C140.091 361.462 140.216 363.625 140.242 365.614C140.249 366.159 140.374 367.01 140.166 367.485L140.134 367.717C139.844 369.951 139.761 372.255 139.733 374.507C139.717 375.727 139.891 377.268 139.618 378.443L133.931 378.203C133.943 376.343 134.123 374.318 133.896 372.479L134.103 362.427L139.807 362.418L139.793 359.492Z" fill="#2FDD89"/>
<path d="M318.521 214.948L318.727 180.977C321.317 180.464 324.084 180.536 326.718 180.504C330.274 180.46 333.831 180.432 337.387 180.408C343.594 180.366 350.087 179.935 356.256 180.529L355.955 215.113L318.521 214.948Z" fill="#2FDD89"/>
<path d="M195.857 342.681C196.24 342.707 196.422 342.713 196.783 342.58C197.466 342.33 198.424 342.452 199.163 342.452C201.11 342.452 203.057 342.461 205.004 342.474L205.368 342.406C206.198 342.631 206.49 342.555 206.964 343.297C207.082 349.608 207.389 355.908 207.505 362.213C207.617 368.231 207.533 374.241 207.577 380.257C207.59 382.245 208.548 383.983 208.442 386.049C208.371 387.424 207.713 388.675 206.817 389.691C205.729 390.073 204.351 389.944 203.198 389.954C200.977 389.973 198.756 389.97 196.536 389.974C190.266 389.985 183.782 390.331 177.537 389.876C177.525 387.411 177.488 384.941 177.534 382.477C177.554 381.411 177.901 379.911 177.606 378.925C177.364 378.122 177.485 377.11 177.488 376.269C177.492 374.98 177.406 373.619 177.615 372.344L178.076 359.641C177.878 354.35 178.696 348.809 178.011 343.561C178.085 343.061 178.085 342.93 178.409 342.52L185.913 342.508L186.112 342.73L186.404 342.94L186.788 342.533C188.879 342.518 190.97 342.506 193.06 342.501C193.956 342.499 195.021 342.362 195.857 342.681Z" fill="#01CD60"/>
<path d="M178.003 343.561C178.078 343.062 178.078 342.931 178.401 342.521L185.906 342.508L186.104 342.73L186.018 378.652L177.617 378.633C177.626 377.176 177.636 375.72 177.644 374.264C177.647 373.692 177.758 372.891 177.607 372.344L178.069 359.641C177.87 354.35 178.688 348.81 178.003 343.561Z" fill="#2FDD89"/>
<path d="M195.848 342.68C196.231 342.707 196.413 342.712 196.774 342.58C197.457 342.329 198.415 342.452 199.154 342.452C201.1 342.452 203.047 342.461 204.994 342.473L204.314 378.547L196.583 378.627L196.226 369.823C196.184 371.786 196.141 373.748 196.096 375.71C196.076 376.553 196.198 377.7 195.879 378.462C195.515 375.048 195.865 371.215 195.857 367.767C195.84 359.404 195.824 351.043 195.848 342.68Z" fill="#2FDD89"/>
<path d="M186.784 342.532C188.875 342.518 190.966 342.506 193.056 342.501C193.952 342.498 195.017 342.362 195.853 342.681C195.829 351.043 195.846 359.404 195.862 367.768C195.87 371.215 195.521 375.048 195.884 378.462C195.239 378.821 193.959 378.657 193.21 378.66C191.045 378.669 188.881 378.67 186.717 378.669L186.784 342.532Z" fill="#58DB90"/>
<path d="M503.505 340.725C506.287 340.359 508.994 339.734 511.609 338.709C511.475 350.047 511.505 361.382 511.36 372.72C511.304 377.079 511.716 381.837 511.166 386.139C511.036 387.154 510.834 387.999 510.06 388.721C509.32 389.41 508.484 389.619 507.5 389.743C505.539 389.992 503.445 389.89 501.467 389.901C498.236 389.92 495.005 389.933 491.773 389.942C487.994 389.952 483.814 390.303 480.066 389.929L479.763 389.877C479.226 385.32 479.639 380.609 478.91 376.152C478.703 374.89 479.223 373.294 478.464 372.157L478.243 372.376L478.326 379.077C475.653 379.08 472.765 378.853 470.12 379.159L469.101 379.26L468.881 378.753L469.301 350.796L477.939 350.848L478.009 362.497L478.239 362.387L478.262 350.828L487.548 350.745L487.773 363.578C489.129 363.862 490.82 363.644 492.231 363.63C495.567 363.596 498.902 363.56 502.237 363.523L502.44 357.732C502.755 356.241 502.641 354.572 502.664 353.052C502.724 349.106 502.501 345.072 502.763 341.143L503.505 340.725Z" fill="#2FD67B"/>
<path d="M494.671 370.382L507.03 370.457L507.098 387.079L497.937 387.115L485.581 386.911L485.93 370.383L494.671 370.382Z" fill="#FDFDFD"/>
<path d="M186.029 165.006C188.882 164.718 191.893 164.895 194.763 164.906C195.575 164.909 196.333 165.056 197.134 164.982L209.491 165.068L209.283 201.222C209.104 202.14 209.03 203.025 208.987 203.955C208.976 204.178 209.132 204.492 208.951 204.624C208.886 205.46 208.923 206.501 208.623 207.283L208.598 213.232L208.685 215.23C205.839 214.788 202.475 215.102 199.565 215.102C192.417 215.1 185.245 215.239 178.101 215.059L178.071 210.018L178.09 206.119L178.121 201.523L177.968 200.272L177.444 200.349L177.443 181.169L178.597 181.326C178.415 179.308 178.626 177.127 178.652 175.097C178.696 171.755 178.603 168.348 178.934 165.023C181.243 164.876 183.728 164.774 186.029 165.006Z" fill="#06BA5B"/>
<path d="M178.597 181.327C178.415 179.309 178.626 177.128 178.652 175.097C178.696 171.756 178.603 168.349 178.934 165.024C181.243 164.877 183.728 164.775 186.029 165.007C186.038 175.379 186.067 185.754 185.941 196.125C185.926 197.4 185.935 198.675 185.956 199.949C185.965 200.476 186.081 201.152 185.85 201.618C184.027 201.583 182.204 201.547 180.38 201.508C179.731 201.494 178.905 201.336 178.283 201.483L178.121 201.524L177.968 200.273L177.444 200.35L177.443 181.17L178.597 181.327Z" fill="#2FDD89"/>
<path d="M177.443 181.169L178.592 181.326L178.279 201.482L178.118 201.523L177.966 200.272L177.444 200.349L177.443 181.169Z" fill="#006D34"/>
<path d="M178.08 206.119L178.383 203.79L178.51 204.005C178.752 204.006 178.848 204.041 179.067 203.896L179.29 203.675C180.553 204.451 187.168 204.114 188.876 204.119L189.098 203.896C191.959 203.899 194.829 203.975 197.686 203.915C201.217 203.84 205.161 202.891 208.618 203.974L208.941 204.625C208.875 205.461 208.913 206.501 208.613 207.283L208.587 213.232L208.675 215.23C205.828 214.788 202.465 215.103 199.554 215.102C192.407 215.101 185.235 215.239 178.09 215.059L178.061 210.018L178.08 206.119Z" fill="#2FDD89"/>
<path d="M178.08 206.119L178.383 203.79L178.51 204.005C178.752 204.006 178.848 204.041 179.067 203.896L179.29 203.675C180.553 204.451 187.168 204.114 188.876 204.119L189.098 203.896C191.959 203.899 194.829 203.975 197.686 203.915C201.217 203.84 205.161 202.891 208.618 203.974L208.941 204.625C208.875 205.461 208.913 206.501 208.613 207.283L208.587 213.232C208.139 211.921 208.333 209.934 208.304 208.525L178.621 208.241C178.048 208.726 178.155 209.293 178.061 210.018L178.08 206.119Z" fill="#01CD60"/>
<path d="M186.646 165.27C187.443 164.914 188.742 165.088 189.627 165.09C191.761 165.091 193.894 165.097 196.028 165.104C196.059 167.053 195.7 173.868 196.459 175.035L196.678 165.153L205.07 165.131L205.302 192.407L205.276 201.702C203.323 201.721 201.371 201.726 199.419 201.717C198.623 201.713 197.488 201.836 196.748 201.568L196.459 201.454C195.611 201.873 194.406 201.699 193.471 201.695C191.196 201.683 188.922 201.668 186.647 201.653L186.646 165.27Z" fill="#58DB90"/>
<path d="M447.834 181.603L448.505 181.394C448.995 180.379 448.987 179.033 449.071 177.924C449.321 174.639 448.805 166.188 450.439 163.745C451.476 162.195 453.133 161.385 454.712 160.498L453.634 341.07L453.96 341.045C458.035 340.74 462.243 340.948 466.328 341.014C467.349 341.031 469.385 340.825 470.311 341.191L470.082 341.213C465.386 341.636 460.426 341.191 455.692 341.24C453.991 341.259 450.965 341.095 449.518 342.021C449.446 342.584 449.534 342.8 449.797 343.298L450.237 343.622C449.519 343.46 449.512 343.428 449.037 342.862C449.036 345.855 449.035 348.846 449.029 351.839C449.026 353.335 449.197 355.11 448.9 356.561L448.867 361.712C448.884 365.369 448.909 369.027 448.892 372.684C448.882 374.718 449.012 376.889 448.674 378.898L439.737 378.89L439.59 364.968L439.12 364.801C439.496 362.68 439.188 360.011 439.179 357.836C439.158 352.719 439.133 347.602 439.107 342.485L430.594 342.368L430.563 342.278C430.092 342.265 429.616 342.26 429.154 342.165C428.139 341.955 427.191 342.028 426.187 341.89C424.234 341.622 422.201 341.628 420.217 341.436C419.043 341.324 418.17 341.378 417.377 340.415L418.661 338.533C422.04 338.093 425.602 338.271 429.009 338.252C435.215 338.217 441.421 338.228 447.627 338.237L447.828 214.639L447.846 212.92C448.104 211.214 448.021 209.365 448.033 207.638C448.053 204.701 448.065 201.764 448.077 198.828C448.052 194.4 448.117 189.971 448.159 185.543C448.166 184.843 448.44 182.592 448.193 182.031C448.118 181.86 447.954 181.745 447.834 181.603Z" fill="#00622E"/>
<path d="M439.593 364.967C439.25 362.866 439.536 360.23 439.539 358.071C439.548 352.864 439.552 347.658 439.56 342.451C440.404 342.14 441.921 342.354 442.847 342.359C444.825 342.371 446.799 342.318 448.776 342.258L448.882 356.272L448.903 356.56L448.87 361.711C448.888 365.368 448.912 369.026 448.895 372.684C448.885 374.718 449.015 376.889 448.677 378.897L439.74 378.889L439.593 364.967Z" fill="#2FDD89"/>
<path d="M363.659 201.628L370.67 201.65L371.004 191.795L371.339 193.008L371.31 201.637C373.272 201.632 375.234 201.627 377.196 201.621C378.25 201.617 379.412 201.712 380.447 201.529C380.999 200.574 380.775 197.976 380.812 196.79C381.291 197.273 381.123 200.737 381.145 201.624L390.305 201.596L390.384 196.396L390.599 201.55C390.972 201.74 391.208 201.795 391.629 201.673L391.799 201.562C391.86 203.231 391.625 205.062 391.864 206.695L391.742 210.183L391.646 214.836C392.477 214.625 394.107 214.837 395.005 214.847L395.017 211.657L395.173 214.79L405.414 215.016C405.698 214.48 405.562 213.219 405.565 212.589C405.581 210.085 405.574 207.582 405.574 205.079C405.574 204.549 405.419 203.363 405.573 202.894C405.621 202.747 405.789 202.673 405.897 202.563L406.229 202.783L406.451 214.473C407.01 212.856 406.58 209.886 406.566 208.108L415.585 208.087L415.753 207.329L416.151 207.832L437.692 207.588L438.071 202.615L438.251 202.491L438.314 198.933L448.073 198.825C448.062 201.762 448.049 204.699 448.029 207.635C448.018 209.362 448.1 211.211 447.842 212.917L447.824 214.636L447.623 338.234C441.418 338.226 435.211 338.214 429.006 338.249C425.598 338.269 422.036 338.09 418.657 338.531L417.374 340.413L417.017 340.163C416.703 339.729 416.644 339.366 416.52 338.856L416.185 339.164L416.03 338.634C413.094 338.123 409.982 337.926 407.011 337.621C403.6 337.27 400.186 336.916 396.756 336.842C395.173 336.809 393.377 336.722 391.869 337.217L391.622 337.894C388.471 338.475 384.597 338.087 381.375 338.083C374.337 338.074 367.299 338.064 360.262 338.055C333.082 338.019 305.903 338.098 278.725 338.071C269.544 338.063 260.36 337.847 251.18 337.953C246.842 338.003 242.254 337.872 237.968 338.508L237.919 341.942C237.234 340.689 236.69 339.209 235.357 338.547L234.762 338.64L234.51 339.18C234.498 338.643 234.561 338.62 234.242 338.147C226.454 337.357 217.725 336.161 209.943 337.361L209.639 337.776C209.208 338.012 208.087 337.908 207.578 337.925C205.055 338.009 202.53 338.031 200.006 338.068C198.121 337.875 196.09 338.02 194.19 338.027C190.37 338.041 186.55 338.084 182.731 338.127C181.324 338.143 179.304 338.421 177.963 338.073L178.091 215.057C185.236 215.237 192.408 215.099 199.555 215.1C202.466 215.101 205.83 214.787 208.676 215.228C209.911 215.276 211.158 215.278 212.367 215.555L212.609 215.355C213.618 214.83 231.187 215.048 233.316 215.177C233.507 215.334 233.654 215.467 233.908 215.535C234.6 215.721 236.595 215.8 237.171 215.436L237.291 213.741C237.437 211.728 237.909 210.544 239.144 208.961L255.789 207.759L256.089 207.712L258.439 207.331L274.482 206.906L274.483 215.503L275.038 215.877C275.464 215.656 275.31 215.772 275.534 215.581L275.542 206.986L291.402 207.095L291.796 207.159C293.868 207.993 296.326 207.802 298.52 207.962C300.403 208.1 302.25 208.521 304.13 208.627C306.583 208.765 309.117 208.587 311.551 208.892C312.276 209.071 312.908 209.253 313.578 209.588L314.346 215.224C315.507 215.46 317.087 215.243 318.287 215.217L318.52 214.945L355.954 215.11C356.874 215.458 357.834 215.625 358.811 215.496L358.999 215.362L359.758 207.844L359.889 201.911L363.659 201.628Z" fill="#01CD60"/>
<path d="M359.761 207.845C363.824 207.843 367.951 208.543 372.027 208.686C376.425 208.839 380.805 208.788 385.207 209.001C387.243 209.098 389.296 209.081 391.298 209.484C391.514 209.742 391.608 209.889 391.745 210.184L391.649 214.836C388.974 215.248 386.182 215.133 383.48 215.147C378.387 215.175 373.294 215.193 368.201 215.191C365.187 215.19 361.99 214.99 359.002 215.363L359.761 207.845Z" fill="#2FDD89"/>
<path d="M363.665 201.628L370.675 201.65L371.01 191.795L371.345 193.008L371.316 201.637C373.278 201.632 375.24 201.627 377.202 201.621C378.256 201.617 379.418 201.712 380.452 201.529C381.005 200.574 380.78 197.976 380.818 196.79C381.297 197.273 381.128 200.737 381.15 201.624L390.31 201.596L390.389 196.396L390.605 201.55C390.978 201.74 391.214 201.795 391.635 201.673L391.805 201.562C391.865 203.231 391.631 205.062 391.87 206.695L391.748 210.183C391.611 209.889 391.517 209.741 391.301 209.483C389.298 209.081 387.246 209.097 385.21 209C380.808 208.787 376.428 208.838 372.03 208.685C367.954 208.542 363.827 207.843 359.764 207.844L359.894 201.911L363.665 201.628Z" fill="url(#paint8_linear_122_130759)"/>
<path d="M258.443 207.333L274.486 206.908L274.487 215.505C273.756 215.146 272.316 215.255 271.489 215.236C269.001 215.18 266.516 215.176 264.027 215.209C257.438 215.297 250.847 215.271 244.259 215.373C242.6 215.398 240.941 215.438 239.281 215.466C238.965 215.471 237.961 215.592 237.702 215.494C237.564 215.441 237.471 215.308 237.356 215.216L237.295 213.743C237.442 211.73 237.913 210.547 239.148 208.963L255.793 207.761L256.093 207.714L258.443 207.333Z" fill="#2FDD89"/>
<path d="M275.537 215.582L275.545 206.987L291.406 207.096L291.799 207.161C293.872 207.994 296.33 207.803 298.524 207.963C300.407 208.102 302.254 208.522 304.134 208.628C306.587 208.766 309.12 208.588 311.554 208.893C312.28 209.072 312.912 209.254 313.582 209.589L314.35 215.225C312.014 215.13 309.672 215.254 307.333 215.247C301.208 215.228 295.084 215.279 288.958 215.319C285.949 215.338 282.94 215.319 279.931 215.317C278.657 215.316 276.724 215.133 275.537 215.582Z" fill="#2FDD89"/>
<path d="M448.073 198.825C448.062 201.762 448.05 204.699 448.029 207.635C448.018 209.362 448.101 211.211 447.843 212.917L447.824 214.636L406.616 215.015L406.452 214.473C407.01 212.856 406.58 209.886 406.566 208.108L415.585 208.087L415.753 207.329L416.152 207.832L437.693 207.588L438.071 202.615L438.251 202.491L438.315 198.933L448.073 198.825Z" fill="#2FDD89"/>
<path d="M448.075 198.825C448.063 201.762 448.051 204.699 448.031 207.635C448.019 209.362 448.102 211.211 447.844 212.917C447.618 211.082 447.818 209.048 447.842 207.192L437.694 207.588L438.072 202.615L438.252 202.491L438.316 198.933L448.075 198.825Z" fill="#06BA5B"/>
<defs>
<linearGradient id="paint0_linear_122_130759" x1="312.157" y1="177.035" x2="301.209" y2="181.352" gradientUnits="userSpaceOnUse">
<stop stop-color="#008E39"/>
<stop offset="1" stop-color="#00A758"/>
</linearGradient>
<linearGradient id="paint1_linear_122_130759" x1="359.643" y1="181.473" x2="368.611" y2="184.486" gradientUnits="userSpaceOnUse">
<stop stop-color="#00B660"/>
<stop offset="1" stop-color="#21D57C"/>
</linearGradient>
<linearGradient id="paint2_linear_122_130759" x1="311.716" y1="360.833" x2="306.992" y2="387.176" gradientUnits="userSpaceOnUse">
<stop stop-color="#009435"/>
<stop offset="1" stop-color="#24C66D"/>
</linearGradient>
<linearGradient id="paint3_linear_122_130759" x1="357.191" y1="362.387" x2="354.819" y2="388.954" gradientUnits="userSpaceOnUse">
<stop stop-color="#1EBC4E"/>
<stop offset="1" stop-color="#11DC7E"/>
</linearGradient>
<linearGradient id="paint4_linear_122_130759" x1="167.701" y1="185.026" x2="161.604" y2="191.563" gradientUnits="userSpaceOnUse">
<stop stop-color="#006130"/>
<stop offset="1" stop-color="#017F42"/>
</linearGradient>
<linearGradient id="paint5_linear_122_130759" x1="270.699" y1="361.055" x2="269.169" y2="390.657" gradientUnits="userSpaceOnUse">
<stop stop-color="#009F42"/>
<stop offset="1" stop-color="#1EDE80"/>
</linearGradient>
<linearGradient id="paint6_linear_122_130759" x1="428.753" y1="387.692" x2="424.826" y2="342.153" gradientUnits="userSpaceOnUse">
<stop stop-color="#001708"/>
<stop offset="1" stop-color="#00512B"/>
</linearGradient>
<linearGradient id="paint7_linear_122_130759" x1="164.131" y1="378.148" x2="163.881" y2="389.984" gradientUnits="userSpaceOnUse">
<stop stop-color="#1AB75E"/>
<stop offset="1" stop-color="#16E78C"/>
</linearGradient>
<linearGradient id="paint8_linear_122_130759" x1="360.983" y1="202.117" x2="361.008" y2="209.107" gradientUnits="userSpaceOnUse">
<stop stop-color="#16B356"/>
<stop offset="1" stop-color="#1BD173"/>
</linearGradient>
</defs>
</svg>
