<svg width="627" height="551" viewBox="0 0 627 551" fill="none" xmlns="http://www.w3.org/2000/svg">
<rect x="0.939453" y="0.612305" width="625.98" height="550.135" fill="#480F73"/>
<path d="M135.845 142.511C137.158 142.461 138.187 142.488 139.408 143.07C140.896 143.78 142.239 145.286 142.705 146.881C143.126 148.324 142.775 150.139 142.061 151.419C140.987 153.343 139.493 154.316 137.423 154.882C135.846 154.945 134.419 154.49 133.143 153.55C131.807 152.566 130.82 151.208 130.595 149.539C130.376 147.915 130.825 146.324 131.81 145.024C132.84 143.664 134.148 142.764 135.845 142.511Z" fill="#9582CF"/>
<path d="M157.32 142.703C158.442 142.577 159.556 142.4 160.644 142.798C162.468 143.466 163.908 144.936 164.674 146.707C165.219 147.967 165.182 149.477 164.634 150.728C163.722 152.812 162.284 153.927 160.218 154.716C158.836 154.912 157.761 154.907 156.434 154.409C154.965 153.859 153.765 152.712 153.162 151.264C152.44 149.532 152.489 147.907 153.26 146.202C154.07 144.413 155.517 143.341 157.32 142.703Z" fill="#9582CF"/>
<path d="M202.264 142.492C203.609 142.456 204.693 142.513 205.92 143.166C207.431 143.971 208.806 145.342 209.286 147.023C209.699 148.464 209.361 150.127 208.617 151.407C207.541 153.258 205.959 154.295 203.947 154.877C202.515 154.947 201.411 154.766 200.171 153.999C198.693 153.085 197.563 151.577 197.175 149.876C196.814 148.298 197.226 146.632 198.113 145.295C199.13 143.761 200.483 142.867 202.264 142.492Z" fill="#9582CF"/>
<path d="M485.519 400.283C488.331 399.932 493.131 399.435 495.596 401.242C496.585 401.967 496.972 403.117 497.099 404.299C497.219 405.422 497.093 406.947 496.368 407.875C495.899 408.477 495.122 408.722 494.39 408.781C491.055 409.049 487.517 408.784 484.167 408.74C482.605 408.72 480.387 408.969 478.928 408.535C481.068 406.542 482.942 404.475 484.45 401.957C484.896 401.536 485.208 400.815 485.519 400.283Z" fill="#7C5FC3"/>
<path d="M157.381 129.5C158.427 129.446 159.521 129.337 160.532 129.672C162.34 130.27 164.094 131.607 164.876 133.384C165.374 134.517 165.343 136.248 164.885 137.383C164.072 139.401 162.351 140.763 160.396 141.576C159.057 141.765 157.723 141.948 156.427 141.415C155.096 140.868 153.92 139.387 153.364 138.096C152.718 136.597 152.629 134.325 153.308 132.839C154.123 131.056 155.648 130.186 157.381 129.5Z" fill="#9582CF"/>
<path d="M180.178 129.491C181.549 129.436 182.816 129.337 184.094 129.942C185.528 130.622 186.839 131.841 187.345 133.377C187.867 134.959 187.592 136.873 186.805 138.327C185.902 139.993 184.495 141.088 182.722 141.67C181.365 141.905 180.174 141.985 178.903 141.352C177.34 140.573 175.91 138.672 175.427 137.013C174.961 135.414 175.249 133.697 176.085 132.283C177.036 130.674 178.421 129.932 180.178 129.491Z" fill="#9582CF"/>
<path d="M134.838 129.506C136.215 129.311 137.766 129.258 139.079 129.777C140.774 130.448 141.963 131.735 142.642 133.412C143.167 134.709 142.799 136.571 142.267 137.798C141.478 139.62 140.106 140.761 138.289 141.487C137.003 141.716 135.688 141.871 134.437 141.386C132.969 140.817 131.689 139.213 131.056 137.813C130.315 136.173 130.109 134.677 130.815 132.965C131.564 131.151 133.125 130.233 134.838 129.506Z" fill="#9582CF"/>
<path d="M201.773 129.489C203.157 129.427 204.447 129.441 205.751 129.996C207.307 130.659 208.409 131.744 208.995 133.345C209.615 135.042 209.4 136.839 208.586 138.438C207.75 140.083 206.258 141.115 204.543 141.669C203.529 141.902 201.943 142.067 200.971 141.646C199.242 140.898 198.072 139.089 197.433 137.382C196.846 135.813 196.783 134.105 197.568 132.583C198.463 130.849 199.974 130.023 201.773 129.489Z" fill="#9582CF"/>
<path d="M181.288 142.496C182.439 142.507 183.378 142.63 184.394 143.24C185.88 144.133 187.021 145.48 187.409 147.196C187.772 148.801 187.513 150.607 186.603 151.997C185.355 153.902 183.545 154.64 181.424 155.069C180.299 155.059 179.181 154.662 178.249 154.039C176.86 153.11 175.444 151.392 175.213 149.696C174.96 147.834 175.331 146.269 176.54 144.82C177.808 143.299 179.39 142.714 181.288 142.496Z" fill="#9582CF"/>
<path d="M475.296 395.024L475.699 394.717L475.601 395.27C475.57 395.426 475.583 395.588 475.555 395.744C475.5 396.049 475.145 396.486 474.982 396.748L475.076 397.035L474.599 397.417L474.599 397.656C474.448 397.907 474.301 398.095 474.118 398.322C474.001 398.467 473.941 398.651 473.834 398.803L472.688 399.903L472.781 400.285L472.59 400.572L472.399 401.433L472.59 401.719C472.547 402.251 472.514 402.335 472.209 402.773L472.496 402.962C472.798 402.812 472.839 402.836 473.022 402.532L473.166 402.773L473.643 402.868L473.69 403.249C474.057 403.615 473.544 403.133 474.122 403.537L474.311 403.727L474.074 403.966L474.502 404.396L474.456 404.731L474.885 405.161L474.839 405.687C475.032 405.881 475.236 406.004 475.303 406.273C475.542 407.222 476.447 408.039 476.368 408.938L476.608 408.701C476.762 408.895 476.907 409.098 477.085 409.272C477.406 409.034 477.665 408.795 477.946 408.509L478.233 408.507L478.519 408.127L478.713 408.125C479.43 407.541 480.045 406.844 480.719 406.213L481.103 405.793C481.412 405.453 481.865 405.252 481.867 404.779C482.304 404.435 482.293 404.417 482.583 403.966L483.013 403.536C483.324 403.157 483.535 402.733 483.731 402.293C483.901 401.912 483.942 401.981 484.295 401.839L484.45 401.959C482.942 404.477 481.068 406.543 478.928 408.536C476.576 410.083 474.253 411.663 471.827 413.092C469.448 414.495 466.937 415.77 464.642 417.298C462.766 418.548 461.197 420.586 459.207 421.585C458.344 422.018 457.169 422.092 456.239 421.872C454.747 421.518 453.256 420.136 452.544 418.804C451.788 417.392 451.731 415.663 452.22 414.156C453.055 411.586 455.934 409.807 458.205 408.653L458.783 408.387C460.975 407.299 463.09 405.967 465.178 404.696C469.328 402.17 473.649 399.879 475.296 395.024Z" fill="#FBDD43"/>
<path d="M208.637 229.862C210.982 229.705 213.359 229.818 215.709 229.826C219.537 229.839 223.366 229.828 227.194 229.829C230.108 229.829 233.021 229.831 235.935 229.836C237.688 229.839 239.585 229.701 241.316 230.002C242.576 230.221 243.523 231.053 244.221 232.096C245.735 234.356 245.378 236.61 244.894 239.115L241.746 239.153L204.828 239.122C204.609 237.064 204.385 234.62 205.308 232.703C206.072 231.114 207.029 230.434 208.637 229.862Z" fill="#7C5FC3"/>
<path d="M377.332 239.205C368.064 239.166 358.796 239.132 349.528 239.112C347.194 239.108 344.86 239.097 342.525 239.089C341.487 239.085 340.114 239.237 339.129 238.979C339.037 236.226 338.637 233.152 340.694 230.98C342.117 229.477 344.216 229.774 346.101 229.784C352.586 229.819 359.067 229.819 365.553 229.802C367.704 229.796 369.856 229.791 372.007 229.811C373.232 229.822 374.549 229.754 375.761 229.945C376.665 230.088 377.309 230.309 377.957 230.978C379.344 232.414 380.013 234.172 379.915 236.165L379.623 238.897C379.178 239.268 378.739 239.231 378.19 239.254C377.807 239.064 377.74 239.142 377.332 239.205Z" fill="#7C5FC3"/>
<path d="M275.275 229.866L306.263 229.836C308.278 229.854 309.914 229.846 311.389 231.417C313.553 233.722 313.074 236.289 312.943 239.157L309.678 239.167L272.066 239.058C271.872 237.268 271.669 235.309 272.178 233.557C272.673 231.848 273.715 230.68 275.275 229.866Z" fill="#7C5FC3"/>
<path d="M478.613 342.541C479.01 342.533 479.355 342.614 479.674 342.367C480.311 341.874 480.919 341.464 481.63 341.1C482.049 340.886 482.362 340.578 482.681 340.24C482.769 340.598 482.782 340.832 482.731 341.197C483.046 341.501 483.159 341.646 483.59 341.771C483.94 342.139 484.134 342.354 484.594 342.583C485.41 342.991 486.138 343.951 486.888 344.496L487.318 345.02L487.606 345.022L488.18 345.69C488.402 345.69 488.284 345.718 488.513 345.547C488.907 345.85 489.354 346.122 489.613 346.549L489.755 346.264L489.9 346.073L490.186 346.362C489.928 346.75 490.085 346.574 489.71 346.886L489.615 347.22C489.269 347.571 488.856 348.095 488.371 348.177L488.083 348.559L487.797 348.56C487.276 348.933 486.547 349.619 485.932 349.707C485.625 349.751 485.395 349.989 485.177 350.185C484.856 350.471 484.669 350.534 484.259 350.662C483.895 350.776 483.636 350.974 483.305 351.14L483.064 351.237L482.825 351.427L482.49 351.619L482.251 351.809L481.869 351.954L481.582 352.099L481.361 352.185C480.85 352.389 480.473 352.6 480.052 352.957L479.766 352.958L478.81 353.531C478.415 353.769 477.932 354.104 477.472 354.105L476.835 354.493C476.528 354.681 476.287 354.637 476.036 354.775L475.75 355.013L475.177 355.252L472.787 356.542L472.44 356.729L472.504 357.071C469.6 358.749 465.494 360.451 464.55 364.013C464.158 365.495 464.693 367.15 465.449 368.43C466.834 370.773 469.643 372.295 471.864 373.735C474.856 375.677 477.916 377.557 480.551 379.983C485.802 384.817 487.893 391.156 486.265 398.134C486.091 398.88 485.842 399.586 485.522 400.282C485.212 400.814 484.899 401.535 484.453 401.956L484.297 401.836C483.945 401.978 483.904 401.909 483.734 402.29C483.538 402.73 483.327 403.154 483.016 403.534L482.586 403.964C482.296 404.414 482.307 404.433 481.869 404.777C481.868 405.25 481.415 405.451 481.106 405.79L480.721 406.21C480.048 406.842 479.433 407.539 478.716 408.123L478.522 408.124L478.236 408.505L477.949 408.507C477.667 408.792 477.409 409.031 477.088 409.27C476.91 409.096 476.765 408.893 476.61 408.698L476.371 408.935C476.45 408.037 475.545 407.22 475.306 406.27C475.239 406.002 475.035 405.879 474.841 405.684L474.888 405.159L474.459 404.729L474.505 404.394L474.076 403.964L474.314 403.724L474.125 403.535C473.547 403.131 474.059 403.612 473.693 403.246L473.646 402.865L473.169 402.771L473.025 402.529C472.842 402.834 472.801 402.809 472.499 402.959L472.212 402.771C472.517 402.332 472.55 402.248 472.593 401.717L472.402 401.43L472.593 400.569L472.784 400.283L472.69 399.9L473.837 398.8C473.944 398.649 474.004 398.465 474.121 398.319C474.304 398.092 474.451 397.904 474.602 397.654L474.602 397.414L475.079 397.032L474.985 396.745C475.148 396.483 475.503 396.046 475.558 395.741C475.586 395.585 475.572 395.423 475.604 395.267L475.702 394.714L475.299 395.021L475.316 393.973C475.221 391.742 474.084 390.094 472.494 388.625C470.75 386.87 468.607 385.407 466.623 383.943C462.475 380.877 458.201 377.644 455.633 373.055C453.496 369.237 452.943 364.811 454.163 360.605C455.761 355.097 459.838 352.38 464.619 349.768L478.613 342.541Z" fill="#EAA256"/>
<path d="M403.761 236.827L403.563 236.35L401.113 236.343C399.29 236.343 397.13 236.22 395.781 234.826C395.179 234.203 394.926 233.492 394.748 232.658C394.212 230.149 394.361 227.282 394.331 224.72C394.294 221.622 394.171 218.474 394.305 215.379C394.361 214.083 394.794 212.965 395.818 212.132C397.129 211.068 417.222 211.599 420.565 211.61C429.819 211.638 439.076 211.651 448.33 211.543C451.233 211.51 454.137 211.463 457.04 211.424C458.243 211.409 459.76 211.219 460.927 211.461C461.749 211.632 462.416 212.253 462.842 212.954C463.938 214.762 463.328 223.92 463.29 226.606C463.263 228.595 463.504 231.192 462.948 233.103C462.544 234.493 461.508 235.944 460.239 236.649C457.676 236.937 455.09 236.87 452.514 236.879C448.884 236.892 445.253 236.919 441.622 236.937C440.247 236.945 438.003 236.614 436.749 237.023L436.601 237.045C436.508 236.639 436.402 236.24 436.241 235.855C435.188 233.32 433.16 231.565 430.694 230.488C428.087 230.896 425.571 233.18 423.485 234.699C421.596 236.074 419.697 237.407 417.732 238.671C416.3 237.423 414.853 236.082 413.235 235.08C411.472 233.988 409.452 233.247 407.367 233.79C405.677 234.231 404.599 235.357 403.761 236.827Z" fill="#674EB9"/>
<path d="M465.12 291.941C467.533 290.415 470.001 289.012 472.496 287.625C475.629 285.884 478.793 284.211 481.62 281.984C483.177 280.758 484.842 279.139 485.292 277.132C485.804 274.853 484.598 271.612 484.028 269.398C483.952 269.103 483.624 268.165 483.666 267.928C483.816 267.084 485.271 265.721 485.909 265.263C487.265 264.292 489.071 263.658 490.736 263.551C493.353 264.759 494.74 266.707 495.722 269.35C497.323 273.655 497.765 278.389 495.82 282.647C492.534 289.839 483.637 293.707 477.009 297.24C475.01 298.306 472.657 299.358 471.224 301.178C470.332 302.312 470.157 303.995 470.625 305.34C471.372 307.481 473.694 309.019 475.485 310.227C483.531 315.657 494.639 320.178 497.065 330.559C497.836 333.855 497.529 337.06 496.168 340.148C492.99 347.354 485.056 350.866 478.414 354.176C476.586 355.087 474.569 356.381 472.66 357.053L472.504 357.073L472.44 356.731L472.787 356.544L475.177 355.254L475.75 355.015L476.036 354.777C476.287 354.639 476.528 354.683 476.835 354.495L477.472 354.107C477.932 354.105 478.415 353.771 478.81 353.533L479.766 352.96L480.052 352.959C480.473 352.602 480.85 352.391 481.361 352.187L481.582 352.101L481.869 351.956L482.251 351.811L482.491 351.621L482.825 351.429L483.064 351.239L483.305 351.142C483.636 350.976 483.895 350.778 484.259 350.664C484.669 350.536 484.856 350.473 485.177 350.187C485.395 349.991 485.625 349.753 485.932 349.709C486.547 349.621 487.276 348.934 487.797 348.562L488.083 348.561L488.371 348.179C488.856 348.097 489.269 347.573 489.615 347.222L489.71 346.888C490.085 346.576 489.929 346.752 490.187 346.364L489.9 346.075L489.755 346.266L489.613 346.551C489.354 346.123 488.907 345.852 488.513 345.549C488.285 345.72 488.402 345.691 488.18 345.691L487.606 345.024L487.318 345.022L486.888 344.498C486.138 343.953 485.41 342.993 484.594 342.585C484.135 342.356 483.94 342.141 483.59 341.773C483.159 341.648 483.046 341.503 482.731 341.199C482.782 340.834 482.769 340.6 482.681 340.242C482.362 340.58 482.049 340.888 481.63 341.102C480.919 341.466 480.311 341.876 479.674 342.369C479.355 342.616 479.01 342.535 478.614 342.543L464.619 349.77C463.994 347.45 464.176 344.6 464.118 342.193C463.983 336.669 464.018 331.138 463.852 325.615C463.738 321.859 463.149 318.207 462.829 314.481C461.429 312.689 460.372 310.688 459.743 308.501C458.483 304.125 459.393 299.246 461.568 295.343L465.12 291.941Z" fill="url(#paint0_linear_122_130919)"/>
<path d="M462.826 314.479C464.305 315.918 465.838 317.143 467.576 318.256C472.685 321.527 486.194 327.584 486.057 334.478C486.022 336.258 484.921 337.905 483.626 339.043C482.085 340.396 480.262 341.34 478.61 342.541L464.615 349.768C463.991 347.448 464.173 344.598 464.114 342.191C463.98 336.667 464.015 331.136 463.849 325.613C463.734 321.858 463.145 318.205 462.826 314.479Z" fill="#361771"/>
<path d="M425.349 180.96C432.537 180.903 439.727 180.966 446.916 180.927C451.452 180.903 456.28 180.597 460.792 181.021C461.298 181.069 461.67 181.119 462.075 181.446C463.204 182.356 463.21 183.946 463.238 185.263C463.311 188.629 463.258 192.01 463.27 195.379C463.277 197.429 463.577 200.092 463.071 202.064C462.838 202.97 462.155 203.814 461.502 204.455C460.8 205.143 459.937 205.758 458.945 205.915C456.543 206.296 453.575 205.854 451.113 205.826C445.128 205.76 439.14 205.775 433.154 205.78C425.081 205.884 417.011 205.672 408.94 205.585C405.543 205.549 401.842 205.987 398.496 205.562C397.57 205.445 397.297 205.338 396.626 204.719C395.898 204.045 395.287 203.202 395.01 202.237C394.54 200.603 394.712 198.643 394.698 196.946C394.677 194.283 394.638 191.632 394.539 188.97C394.46 186.841 393.967 183.811 395.592 182.18C396.028 181.742 396.542 181.4 397.157 181.295C399.57 180.887 402.53 181.147 404.987 181.112C411.775 181.015 418.562 180.985 425.349 180.96Z" fill="#674EB9"/>
<path d="M403.761 236.826C404.599 235.357 405.677 234.23 407.367 233.79C409.452 233.246 411.472 233.987 413.235 235.079C414.853 236.082 416.3 237.423 417.732 238.67C419.697 237.406 421.596 236.073 423.484 234.699C425.571 233.18 428.087 230.896 430.694 230.487C433.16 231.564 435.188 233.32 436.241 235.854C436.402 236.24 436.508 236.638 436.6 237.044L436.749 237.023C438.003 236.613 440.247 236.944 441.622 236.937C445.253 236.919 448.884 236.891 452.514 236.878C455.089 236.869 457.676 236.936 460.239 236.648C461.235 237.25 461.482 237.676 461.76 238.796C462.191 240.532 462.222 242.43 462.275 244.212C462.368 247.346 462.509 250.932 461.503 253.915L461.591 254.306C462.473 254.982 463.048 255.574 463.217 256.713C463.396 257.917 463.315 259.238 463.32 260.456C463.33 262.504 463.335 264.553 463.339 266.601C463.343 269.112 463.655 272.061 463.27 274.532C463.131 275.422 462.832 276.096 462.269 276.797C461.29 278.016 460.223 278.877 458.633 279.064L441.801 279.485C441.795 280.411 441.72 281.388 441.836 282.305L441.557 283.26C441.629 280.482 441.54 277.715 441.422 274.94C441.338 273.008 441.407 270.642 440.416 268.921C439.568 267.449 438.138 266.285 436.508 265.78C435.08 265.339 433.407 265.439 431.93 265.454C429.655 265.479 427.381 265.534 425.106 265.53C419.897 265.522 414.689 265.417 409.48 265.4C408.219 265.396 406.958 265.392 405.697 265.385C405.033 265.381 404.194 265.477 403.552 265.301L403.319 265.232L403.537 265.093L403.589 264.617L403.275 264.229C403.022 264.241 402.858 264.256 402.615 264.171C400.164 263.313 397.948 260.667 397.064 258.329L396.873 258.224L395.513 258.103C394.363 257.763 393.074 257.931 391.898 257.979C390.494 258.037 388.92 258.007 387.544 257.748C388.988 257.607 390.553 257.755 392.008 257.779L391.966 240.332C392.406 239.778 393.073 240.016 393.71 239.574C394.447 239.391 395.454 239.488 396.228 239.471C398.59 239.417 401.021 239.545 403.359 239.183L403.761 236.826Z" fill="url(#paint1_linear_122_130919)"/>
<path d="M436.599 237.046L436.748 237.024C438.002 236.614 440.246 236.945 441.621 236.938C445.252 236.92 448.883 236.892 452.513 236.879C455.088 236.87 457.675 236.937 460.238 236.649C461.234 237.251 461.481 237.678 461.759 238.798C462.19 240.533 462.222 242.431 462.274 244.213C462.367 247.347 462.508 250.934 461.502 253.916L461.59 254.307C454.6 254.5 447.602 254.461 440.61 254.48C437.058 254.489 433.11 254.876 429.625 254.276C428.849 252.692 427.936 251.155 427.107 249.595C427.092 249.567 426.807 249.03 426.807 249.03C426.848 248.787 427.599 248.046 427.791 247.836C430.789 244.557 435.533 241.53 436.599 237.046Z" fill="#4F33A3"/>
<path d="M403.761 236.826C404.599 235.357 405.677 234.23 407.367 233.79C409.452 233.246 411.472 233.987 413.235 235.079C414.853 236.082 416.3 237.423 417.732 238.67C419.697 237.406 421.596 236.073 423.484 234.699C425.571 233.18 428.087 230.896 430.694 230.487C433.16 231.564 435.188 233.32 436.241 235.854C436.402 236.24 436.508 236.638 436.6 237.044C435.534 241.529 430.79 244.555 427.792 247.835C427.6 248.045 426.849 248.786 426.808 249.028C426.808 249.028 427.093 249.565 427.108 249.593C427.937 251.153 428.85 252.691 429.626 254.274C430.247 256.175 430.556 258.378 429.644 260.244C428.925 261.716 427.113 263.052 425.567 263.536C424.491 263.874 423.597 263.781 422.623 263.213C419.847 261.596 417.294 258.68 415.076 256.371C412.485 258.424 409.847 260.459 407.043 262.217C405.956 262.9 404.204 263.46 403.275 264.229C403.022 264.241 402.858 264.256 402.615 264.171C400.164 263.313 397.948 260.667 397.064 258.329L396.873 258.224L395.513 258.103C394.363 257.763 393.074 257.931 391.898 257.979C390.494 258.037 388.92 258.007 387.544 257.748C388.988 257.607 390.553 257.755 392.008 257.779L391.966 240.332C392.406 239.778 393.073 240.016 393.71 239.574C394.447 239.391 395.454 239.488 396.228 239.471C398.59 239.417 401.021 239.545 403.359 239.183L403.761 236.826Z" fill="#FAFAF9"/>
<path d="M393.71 239.574C394.447 239.39 395.454 239.487 396.228 239.47C398.59 239.417 401.021 239.544 403.359 239.183L403.385 239.359C403.817 241.956 405.937 244.211 407.309 246.368C405.792 247.769 404.316 249.225 402.781 250.604C401.047 252.164 397.202 254.545 397.008 257.062L397.064 258.328L396.873 258.224L395.513 258.102C394.363 257.762 393.074 257.93 391.898 257.978C390.494 258.036 388.92 258.006 387.544 257.747C388.988 257.606 390.553 257.754 392.008 257.778L391.966 240.331C392.406 239.778 393.073 240.015 393.71 239.574Z" fill="#4F33A3"/>
<path d="M185.393 348.93C181.935 351.29 178.534 353.057 174.45 354.081C165.717 356.272 156.261 354.707 148.577 350.097C140.245 345.098 134.676 337.185 132.343 327.799C130.261 319.423 131.874 309.438 136.326 302.095C141.085 294.243 149.23 288.625 158.101 286.47C167.562 284.172 176.966 285.976 185.215 290.997C188.537 293.345 191.206 295.798 193.83 298.913C195.936 302.424 197.788 305.943 198.95 309.893C200.673 315.752 200.529 322.111 199.062 328.004C197.961 332.43 196.068 337.177 193.596 341.009L185.393 348.93Z" fill="#EB4756"/>
<path d="M165.874 300.651C170.734 300.705 174.991 302.43 178.598 305.731C182.247 309.071 184.59 313.892 184.767 318.858C184.965 324.373 182.558 330.044 178.792 334.031C175.411 337.61 170.724 339.486 165.856 339.6C161.503 339.467 157.85 338.435 154.44 335.665C150.265 332.276 147.149 327.074 146.652 321.676C146.167 316.411 147.693 311.609 151.119 307.593C154.938 303.117 160.122 301.096 165.874 300.651Z" fill="#674EB9"/>
<path d="M377.336 239.206C377.743 239.143 377.811 239.066 378.194 239.255C379.67 239.856 381.99 239.567 383.583 239.562C386.957 239.55 390.34 239.475 393.712 239.575C393.074 240.016 392.408 239.779 391.968 240.333L392.01 257.779C390.555 257.755 388.99 257.608 387.546 257.749C385.468 257.737 383.373 257.608 381.294 257.552C379.801 257.512 378.242 257.6 376.783 257.249C376.004 257.59 375.335 257.786 374.482 257.852C369.758 258.217 364.756 257.873 360.005 257.861C355.037 257.848 349.836 258.208 344.899 257.701C344.297 257.639 343.755 257.447 343.195 257.228C341.458 257.64 339.356 257.331 337.568 257.282C334.757 257.205 331.946 257.177 329.133 257.19C324.275 257.215 319.425 257.516 314.571 257.566C313.136 257.581 310.799 257.908 309.479 257.351L309.369 257.394C309.06 257.529 308.765 257.664 308.435 257.743C306.988 258.086 305.187 257.888 303.693 257.888C300.48 257.888 297.267 257.878 294.055 257.872C288.687 257.863 283.03 258.244 277.698 257.796C276.991 257.736 276.434 257.572 275.836 257.173C274.792 257.568 273.647 257.377 272.55 257.348C270.448 257.291 268.345 257.248 266.242 257.218C260.936 257.14 255.628 257.207 250.322 257.304C248.702 257.334 247.079 257.35 245.46 257.421C244.302 257.472 243.141 257.669 242.005 257.379L241.13 257.684C239.727 258.079 237.943 257.888 236.487 257.888C233.699 257.886 230.912 257.874 228.124 257.873C224.339 257.872 220.553 257.883 216.767 257.882C214.452 257.882 212.043 258.007 209.747 257.71C209.139 257.632 208.644 257.344 208.123 257.039C207.015 257.504 205.648 257.315 204.462 257.307C202.427 257.295 200.393 257.284 198.358 257.274C194.064 257.253 189.772 257.284 185.479 257.34C183.837 257.367 181.699 257.607 180.282 256.575C179.254 255.827 178.43 254.361 178.27 253.1C178.114 251.866 178.147 250.552 178.124 249.308C178.086 247.276 177.7 243.809 178.981 242.171C180.205 240.607 181.802 240.191 183.683 239.951C187.714 239.435 192.016 239.615 196.083 239.579C205.089 239.5 214.084 239.67 223.09 239.625C250.886 239.489 278.682 239.546 306.479 239.494C316.255 239.476 326.021 239.577 335.802 239.484C345.702 239.39 355.606 239.647 365.513 239.525C369.404 239.477 373.476 239.636 377.336 239.206Z" fill="#674EB9"/>
<path d="M343.194 257.226L342.925 256.957C342.092 256.122 341.029 255.175 340.983 253.908C340.96 253.274 341.245 252.537 341.701 252.092C342.265 251.541 343.062 251.557 343.803 251.529C349.071 251.33 354.452 251.705 359.739 251.708C363.379 251.711 367.02 251.707 370.661 251.689C372.435 251.68 374.262 251.539 376.029 251.64C376.681 251.677 377.376 252.081 377.777 252.594C378.216 253.158 378.47 254.016 378.353 254.727C378.181 255.771 377.61 256.373 376.906 257.112L376.783 257.248C376.003 257.589 375.334 257.785 374.482 257.851C369.758 258.216 364.755 257.872 360.005 257.86C355.036 257.847 349.835 258.206 344.899 257.699C344.297 257.637 343.755 257.445 343.194 257.226Z" fill="#FAFAF9"/>
<path d="M208.123 257.038C207.33 256.157 206.217 255.121 206.256 253.845C206.277 253.178 206.679 252.37 207.194 251.947C207.679 251.548 208.437 251.533 209.04 251.511C214.5 251.317 220.066 251.7 225.544 251.682C229.413 251.67 233.284 251.639 237.154 251.616C238.619 251.607 240.476 251.364 241.892 251.64C242.514 251.761 243.098 252.2 243.398 252.761C243.797 253.505 243.948 254.307 243.659 255.111C243.34 255.994 242.651 256.716 242.006 257.378L241.13 257.683C239.727 258.078 237.943 257.887 236.487 257.887C233.7 257.885 230.912 257.873 228.125 257.872C224.339 257.871 220.553 257.882 216.767 257.881C214.452 257.881 212.043 258.006 209.748 257.709C209.139 257.631 208.645 257.343 208.123 257.038Z" fill="#FAFAF9"/>
<path d="M275.832 257.172C274.939 256.329 273.452 255.118 273.42 253.805C273.407 253.26 273.609 252.691 273.977 252.283C274.429 251.78 274.779 251.675 275.423 251.599C276.711 251.449 278.127 251.558 279.428 251.571C281.957 251.595 284.486 251.623 287.015 251.629C294.254 251.646 301.529 251.418 308.762 251.598C309.482 251.616 309.916 251.771 310.393 252.317C310.919 252.92 311.389 253.696 311.313 254.523C311.211 255.631 310.244 256.622 309.475 257.35L309.365 257.393C309.056 257.528 308.761 257.663 308.431 257.742C306.984 258.085 305.183 257.887 303.689 257.887C300.476 257.886 297.263 257.877 294.051 257.871C288.683 257.862 283.026 258.243 277.694 257.795C276.987 257.735 276.43 257.57 275.832 257.172Z" fill="#FAFAF9"/>
<path d="M162.089 387.554C163.855 388.184 166.489 387.855 168.371 387.881C173.907 387.96 179.44 387.995 184.977 388.019C206.07 388.11 227.158 388.142 248.251 388.087C286.348 387.986 324.45 387.949 362.548 387.973C381.119 387.984 399.687 388.17 418.26 388.079C432.113 388.01 445.988 387.842 459.84 387.944C462.76 387.966 465.69 388.005 468.605 388.195C469.847 388.276 471.3 388.782 472.493 388.627C474.084 390.096 475.221 391.744 475.315 393.975L475.298 395.023C473.652 399.878 469.33 402.17 465.18 404.695C463.092 405.966 460.977 407.298 458.786 408.386L458.208 408.652C451.889 408.757 445.563 408.444 439.244 408.417C423.936 408.353 408.625 408.388 393.316 408.405C335.821 408.469 278.326 408.452 220.832 408.413C198.675 408.397 176.51 408.543 154.354 408.454C149.619 408.435 144.883 408.429 140.148 408.427C138.186 408.426 135.686 408.71 133.783 408.328C133.112 408.193 132.537 407.887 132.168 407.294C131.52 406.25 131.377 404.644 131.67 403.458L131.727 403.248C131.919 402.516 132.185 401.957 132.789 401.47C133.865 400.603 135.866 400.264 137.173 399.745C138.746 399.121 140.284 398.383 141.824 397.679C145.708 395.908 149.609 394.209 153.406 392.251C156.331 390.743 159.121 388.979 162.089 387.554Z" fill="#7C5FC3"/>
<path d="M185.478 257.341C189.772 257.284 194.064 257.253 198.358 257.274C200.392 257.284 202.427 257.295 204.461 257.308C205.647 257.315 207.015 257.505 208.123 257.039C208.644 257.345 209.139 257.632 209.747 257.71C212.043 258.007 214.452 257.882 216.767 257.883C220.553 257.884 224.338 257.872 228.124 257.874C230.912 257.874 233.699 257.887 236.487 257.888C237.942 257.889 239.726 258.08 241.129 257.685L242.005 257.38C243.141 257.669 244.301 257.472 245.46 257.422C247.078 257.351 248.702 257.335 250.322 257.305C255.627 257.207 260.936 257.141 266.242 257.218C268.344 257.249 270.448 257.292 272.55 257.349C273.647 257.378 274.791 257.569 275.835 257.173C276.434 257.572 276.99 257.737 277.698 257.796C283.029 258.245 288.687 257.863 294.054 257.872C297.267 257.878 300.48 257.888 303.692 257.889C305.187 257.889 306.988 258.087 308.435 257.743C308.765 257.665 309.06 257.53 309.368 257.395L309.478 257.352C310.799 257.909 313.136 257.581 314.571 257.566C319.425 257.517 324.275 257.216 329.133 257.191C331.946 257.177 334.756 257.205 337.568 257.282C339.356 257.331 341.457 257.64 343.195 257.228C343.755 257.447 344.297 257.639 344.899 257.701C349.836 258.208 355.037 257.848 360.005 257.861C364.756 257.874 369.758 258.218 374.482 257.852C375.334 257.786 376.004 257.59 376.783 257.25C378.241 257.601 379.8 257.512 381.294 257.553C383.373 257.609 385.467 257.738 387.546 257.749C388.922 258.008 390.496 258.038 391.9 257.98C393.075 257.932 394.364 257.764 395.514 258.104L396.875 258.226L397.065 258.33C397.95 260.668 400.165 263.314 402.616 264.172C402.859 264.257 403.024 264.242 403.277 264.23L403.591 264.618L403.538 265.095L403.32 265.233L403.554 265.302C404.196 265.478 405.034 265.382 405.699 265.386C406.96 265.393 408.22 265.397 409.481 265.402C414.69 265.419 419.899 265.523 425.108 265.531C427.383 265.535 429.657 265.48 431.931 265.456C433.409 265.44 435.081 265.34 436.509 265.782C438.14 266.286 439.569 267.45 440.417 268.922C441.409 270.644 441.34 273.01 441.423 274.942C441.542 277.716 441.631 280.483 441.559 283.261L441.838 282.306C445.114 282.628 448.451 282.546 451.742 282.565C453.36 282.574 454.978 282.583 456.596 282.604C457.888 282.62 459.462 282.522 460.546 283.321L460.783 283.493C463.012 285.175 464.753 288.246 465.056 291.005L465.118 291.942L461.566 295.344C459.392 299.247 458.481 304.125 459.741 308.501C460.37 310.688 461.427 312.69 462.827 314.482C463.147 318.208 463.736 321.86 463.85 325.615C464.017 331.138 463.981 336.669 464.116 342.193C464.174 344.6 463.992 347.45 464.617 349.77C459.836 352.382 455.76 355.099 454.161 360.607C452.941 364.813 453.495 369.239 455.631 373.057C458.199 377.646 462.473 380.879 466.622 383.945C468.605 385.41 470.748 386.872 472.492 388.627C471.298 388.782 469.846 388.276 468.603 388.195C465.689 388.006 462.759 387.966 459.839 387.944C445.987 387.843 432.112 388.011 418.259 388.079C399.686 388.171 381.118 387.985 362.547 387.973C324.449 387.949 286.347 387.987 248.25 388.087C227.156 388.143 206.069 388.11 184.976 388.019C179.439 387.995 173.906 387.96 168.37 387.882C166.488 387.855 163.854 388.185 162.087 387.554C162.973 386.759 164.043 386.094 164.964 385.315C166.58 383.948 168.063 382.46 169.503 380.911C176.319 373.584 181.185 364.099 184.137 354.597C184.701 352.782 185.465 350.841 185.396 348.931L193.599 341.011C196.071 337.178 197.964 332.431 199.065 328.006C200.532 322.112 200.676 315.753 198.953 309.894C197.791 305.944 195.939 302.425 193.833 298.914C191.209 295.799 188.54 293.347 185.219 290.998C185.847 289.527 185.499 286.468 185.529 284.836C185.699 275.675 185.508 266.504 185.478 257.341Z" fill="url(#paint2_linear_122_130919)"/>
<path d="M392.541 265.59L392.521 265.407C392.076 263.067 392.096 260.439 392.151 258.057L395.512 258.104L396.872 258.225L397.062 258.33C397.947 260.668 400.163 263.314 402.613 264.172C402.856 264.257 403.021 264.242 403.274 264.23L403.588 264.618L403.535 265.095L403.318 265.233L392.541 265.59Z" fill="#361771"/>
<path d="M441.832 282.304C445.108 282.626 448.445 282.544 451.737 282.563C453.354 282.572 454.972 282.581 456.59 282.601C457.882 282.618 459.456 282.52 460.54 283.319L460.777 283.491C463.006 285.173 464.747 288.244 465.051 291.003L465.112 291.939L461.56 295.341L441.699 295.781C441.714 308.474 441.688 321.166 441.727 333.859C441.741 338.304 441.754 342.748 441.76 347.192C441.762 348.565 442.087 351.134 441.639 352.332L441.581 352.335L441.553 283.259L441.832 282.304Z" fill="#4F33A3"/>
<path d="M193.833 298.913L193.808 298.648C193.422 294.328 193.805 289.706 193.837 285.352C193.857 282.669 193.851 279.987 193.859 277.304C193.864 275.603 193.776 273.826 194.122 272.152C194.402 270.798 195.072 269.484 195.964 268.434C197.52 266.6 199.466 265.964 201.784 265.801C205.317 265.552 208.933 265.638 212.475 265.635C218.33 265.628 224.186 265.662 230.041 265.677C233.761 265.687 237.481 265.687 241.201 265.73C243.167 265.752 245.322 265.627 247.251 265.981C248.523 266.214 249.673 266.9 250.636 267.75C252.237 269.164 253.022 270.517 253.123 272.652C253.402 278.546 253.111 284.554 253.078 290.457C253.015 301.747 252.97 313.043 252.951 324.333C252.939 331.609 252.896 338.88 252.852 346.156C252.834 349.263 253.285 352.897 252.662 355.922L252.613 356.175C252.021 359.011 250.079 361.502 247.676 363.047C247.044 363.453 246.44 363.707 245.716 363.922L245.423 364.012C243.717 364.493 241.505 364.267 239.739 364.269C236.473 364.274 233.207 364.266 229.941 364.277C223.668 364.297 217.397 364.334 211.123 364.323C209.036 364.32 206.949 364.32 204.862 364.304C203.266 364.292 201.641 364.353 200.112 363.84C197.68 363.026 195.75 361.443 194.565 359.15C193.197 356.503 193.674 353.339 193.749 350.46C193.829 347.349 193.975 344.106 193.599 341.01C196.071 337.177 197.964 332.43 199.065 328.005C200.533 322.111 200.676 315.752 198.953 309.893C197.791 305.944 195.94 302.424 193.833 298.913Z" fill="#9582CF"/>
<path d="M260.749 265.83C264.744 265.515 268.82 265.694 272.827 265.688C279.673 265.679 286.519 265.663 293.364 265.674C298.705 265.684 304.045 265.7 309.385 265.721C311.504 265.73 313.623 265.732 315.741 265.758C317.488 265.778 319.357 265.765 321.054 266.225C322.972 266.745 324.868 268.478 325.759 270.214C326.168 271.009 326.204 271.818 326.235 272.693C326.341 275.663 326.245 278.653 326.288 281.627C326.484 295.255 326.283 308.888 326.224 322.516C326.193 329.55 326.204 336.585 326.243 343.619C326.262 347.097 326.463 350.646 326.314 354.117C326.265 355.26 326.131 356.357 325.741 357.439C324.689 360.352 322.368 362.528 319.617 363.829L319.038 364.009C316.61 364.682 313.3 364.31 310.754 364.311C306.162 364.312 301.569 364.287 296.976 364.311C289.19 364.351 281.409 364.449 273.622 364.429C270.014 364.42 266.268 364.598 262.678 364.285C261.454 364.179 260.27 363.759 259.214 363.131C256.882 361.746 255.2 359.191 254.548 356.59C254.041 354.572 254.492 351.901 254.501 349.797C254.523 344.748 254.522 339.7 254.515 334.651C254.495 320.843 254.533 307.034 254.507 293.226C254.495 286.878 254.1 280.395 254.368 274.064C254.439 272.381 254.673 270.514 255.595 269.074C256.85 267.114 258.553 266.289 260.749 265.83Z" fill="#9582CF"/>
<path d="M403.319 265.232L403.552 265.301C404.194 265.477 405.032 265.382 405.697 265.386C406.958 265.393 408.219 265.397 409.48 265.401C414.688 265.418 419.897 265.523 425.106 265.531C427.381 265.535 429.655 265.48 431.93 265.455C433.407 265.44 435.079 265.34 436.508 265.781C438.138 266.285 439.568 267.45 440.415 268.922C441.407 270.643 441.338 273.009 441.421 274.941C441.54 277.716 441.629 280.483 441.557 283.261L441.586 352.337C441.554 354.255 441.344 356.427 440.584 358.201C439.461 360.824 437.485 362.76 434.816 363.797C433.805 364.189 432.74 364.317 431.663 364.36C425.812 364.596 419.833 364.361 413.97 364.368C403.424 364.378 392.877 364.488 382.33 364.496C372.853 364.504 363.377 364.481 353.9 364.46C348.417 364.447 342.867 364.606 337.395 364.289C335.97 364.207 334.537 364.014 333.227 363.409C330.723 362.251 328.948 359.841 328.081 357.271C327.513 355.587 327.783 353.735 327.809 351.985C327.844 349.499 327.855 347.013 327.887 344.528C327.946 339.86 327.945 335.192 327.933 330.524C327.903 318.495 327.827 306.465 327.785 294.436C327.763 287.948 327.599 281.451 327.783 274.965C327.829 273.308 327.785 271.195 328.59 269.704C329.498 268.027 330.951 266.637 332.836 266.154L333.1 266.092C335.214 265.571 337.648 265.747 339.816 265.731C343.231 265.705 346.646 265.69 350.061 265.674C364.221 265.603 378.383 265.685 392.542 265.589L403.319 265.232Z" fill="#9582CF"/>
<defs>
<linearGradient id="paint0_linear_122_130919" x1="489.996" y1="347.127" x2="469.876" y2="269.178" gradientUnits="userSpaceOnUse">
<stop stop-color="#E67750"/>
<stop offset="1" stop-color="#B50061"/>
</linearGradient>
<linearGradient id="paint1_linear_122_130919" x1="404.328" y1="264.903" x2="463.109" y2="261.827" gradientUnits="userSpaceOnUse">
<stop stop-color="#543EAE"/>
<stop offset="1" stop-color="#7556BE"/>
</linearGradient>
<linearGradient id="paint2_linear_122_130919" x1="382.339" y1="257.829" x2="376.841" y2="395.904" gradientUnits="userSpaceOnUse">
<stop stop-color="#3F2191"/>
<stop offset="1" stop-color="#5740AD"/>
</linearGradient>
</defs>
</svg>
