<svg width="627" height="551" viewBox="0 0 627 551" fill="none" xmlns="http://www.w3.org/2000/svg">
<rect x="0.998047" y="0.232422" width="625.979" height="550.135" fill="#003624"/>
<path d="M474.79 360.119C474.757 360.709 474.62 361.405 474.983 361.908C474.638 367.151 473.407 371.701 469.208 375.307C466.651 377.503 463.055 378.969 459.644 379.213C455.395 379.516 450.972 379.116 446.703 379.077C437.958 378.997 429.215 379.011 420.47 379.038C388.168 379.132 355.866 379.095 323.564 379.096C287.672 379.098 251.78 379.107 215.889 379.087C205.087 379.082 194.285 379.066 183.483 379.105C177.081 379.128 170.494 379.422 164.117 379.038C159.978 378.788 156.458 376.734 153.731 373.739C152.143 371.997 151.207 370.004 150.479 367.81C150.119 366.723 149.912 365.242 150.19 364.125C152.193 367.646 155.693 370.321 159.58 371.653L159.866 371.758C162.017 372.484 165.482 372.025 167.798 371.986C172.243 371.91 176.684 371.807 181.13 371.802C203.344 371.766 225.56 371.77 247.774 371.761C294.136 371.743 340.499 371.947 386.861 371.848C399.76 371.821 412.66 371.805 425.56 371.79C431.57 371.782 437.649 371.984 443.65 371.804C446.531 371.936 449.428 371.937 452.311 371.99C457.729 372.091 463.068 372.578 467.943 369.755C471.707 367.576 473.712 364.141 474.79 360.119Z" fill="#007C2D"/>
<path d="M264.233 193.331L265.737 193.353C266.079 192.821 265.923 192.024 265.918 191.399C265.882 186.754 265.015 180.822 271.068 179.462C272.933 179.044 275.335 179.451 276.932 180.465C278.264 181.31 279.072 182.527 279.326 184.04C279.817 186.969 279.502 190.352 279.474 193.332C285.968 192.963 292.565 193.271 299.07 193.285C310.148 193.309 321.227 193.236 332.305 193.196C335.432 193.184 338.554 193.217 341.679 193.285C343.181 193.317 344.977 193.567 346.442 193.329C346.307 189.914 345.39 183.772 348.001 181.128C349.22 179.893 351.02 179.294 352.759 179.29C354.427 179.285 356.574 179.794 357.782 180.941C359.652 182.715 359.46 185.814 359.454 188.168C359.451 189.716 359.451 191.267 359.416 192.815L359.401 193.2L398.795 193.549C398.744 191.143 398.665 188.727 398.712 186.321C398.734 185.184 398.689 183.878 399.034 182.785C399.222 182.195 399.706 181.592 400.13 181.142C401.303 179.897 403.169 179.306 404.872 179.276C406.697 179.245 408.976 179.614 410.321 180.907C410.854 181.42 411.205 182.004 411.415 182.702C412.377 185.886 411.828 189.862 412.015 193.181C415.666 193.148 419.316 193.117 422.967 193.089C425.633 193.068 428.566 192.862 431.166 193.477C433.304 193.982 435.096 194.864 436.677 196.364C440.929 200.395 440.606 205.501 440.615 210.819L440.642 270.379C446.829 270.467 453 270.483 459.189 270.395C461.416 270.363 463.643 270.327 465.873 270.299C467.322 270.28 468.866 270.185 470.302 270.388C471.722 270.588 473.072 271.055 474.07 272.1C475.352 273.444 475.946 275.277 475.802 277.091C475.674 278.709 474.96 280.204 473.648 281.245C472.767 281.943 471.714 282.361 470.594 282.524C467.713 282.944 464.358 282.669 461.434 282.678C454.454 282.696 447.454 282.579 440.479 282.763L440.785 304.271C444.008 307.037 447.227 309.809 450.429 312.6C452.505 314.409 455.388 316.439 456.795 318.814C457.107 319.341 457.149 320.052 457.186 320.652L457.243 339.994C462.812 340.215 467.27 341.489 471.155 345.586C474.505 349.118 475.228 353.03 474.981 357.703L474.784 360.119C473.706 364.14 471.702 367.576 467.937 369.754C463.062 372.577 457.723 372.09 452.305 371.989C449.422 371.936 446.526 371.936 443.644 371.803C442.793 371.499 442.135 371.336 441.223 371.414C440.889 371.442 441.033 371.44 440.673 371.435C439.897 371.421 438.981 371.306 438.228 371.424C437.106 371.601 435.38 371.562 434.243 371.454L433.386 371.383C431.25 371.484 429.006 371.268 426.899 371.428C425.703 371.518 424.445 371.507 423.245 371.428L422.605 371.383C419.234 371.559 415.848 371.483 412.464 371.47C412.245 371.258 412.313 371.348 412.155 371.105L412.053 370.941L409.632 370.939C408.998 370.769 408.419 370.877 407.896 370.496L408.353 370.408L408.673 370.275L408.855 370.363L410.089 369.965L409.952 369.212C410.381 369.182 410.896 369.209 411.277 368.991C411.556 368.832 411.726 368.444 412.006 368.283L412.282 368.192C412.696 367.992 412.724 368.017 413.195 368.015L413.924 367.572L414.474 367.307C414.821 367.105 414.838 367.047 414.929 366.689L415.114 366.598C415.688 366.129 415.66 365.741 415.66 365.095C415.89 364.76 415.843 364.764 415.843 364.387C415.614 364.054 415.662 364.052 415.66 363.678C415.423 363.333 415.479 363.28 415.477 362.881L415.022 362.529C414.646 362.265 414.838 362.465 414.564 362.136C414.365 361.893 414.434 361.953 414.244 361.769L413.743 361.287C413.424 361.287 413.232 361.185 412.967 361.015L412.784 360.889L412.419 360.935L412.053 360.535C411.677 360.597 411.651 360.517 411.322 360.358L411.002 360.402C410.71 360.216 410.812 360.227 410.526 360.195L409.997 360.136C410.361 359.784 410.354 359.782 410.865 359.738L411.092 359.517C411.244 359.499 411.408 359.486 411.549 359.426C411.903 359.279 412.053 359.074 412.462 359.038C412.863 359.003 412.541 359.093 413.011 358.895L413.102 358.454L432.29 358.452C432.579 358.732 432.898 358.629 433.295 358.629C433.6 358.337 434.402 358.452 434.848 358.452C435.217 358.81 439.663 358.629 440.458 358.629C441.466 357.988 442.221 357.406 442.886 356.417L443.069 356.152C443.065 355.679 443.047 355.592 442.806 355.185L442.875 354.563C442.294 353.97 442.055 353.699 441.152 353.719L440.512 353.761C438.777 353.696 437.052 353.669 435.305 353.674C435.436 353.412 435.416 353.559 435.303 353.232L435.031 353.23L434.711 353.097L434.302 353.318L434.393 353.582L434.028 353.586C433.205 353.745 432.452 353.589 431.65 353.715C430.963 353.825 429.839 353.883 429.182 353.673C429.858 353.673 430.897 353.869 431.374 353.407L431.193 353.143H430.188C429.666 352.805 429.247 353.129 428.727 352.785L428.955 352.566L429.275 352.785L429.73 352.433C429.469 352.18 429.443 352.258 429.092 352.258L428.999 351.99C429.182 351.464 429.556 351.461 430.006 351.191C430.256 351.041 430.285 350.936 430.594 350.876C430.839 350.828 431.064 350.782 431.285 350.66C431.804 350.375 432.113 350.65 432.564 350.483C432.938 350.345 433.591 349.686 433.933 349.422V343.401C433.558 343.038 433.509 342.895 432.975 342.826C432.571 342.774 432.748 342.746 432.381 342.865C430.68 343.414 428.137 342.854 426.306 343.003L425.986 343.047C425.728 342.886 425.52 342.771 425.226 342.677L424.981 342.604C425.089 342.367 425.186 342.213 425.355 342.006C425.589 341.724 425.527 341.712 425.527 341.365C425.22 340.917 425.072 341.218 424.615 340.924L424.716 340.346C423.554 340.185 422.225 340.307 421.047 340.306C418.644 340.304 416.239 340.304 413.835 340.302V340.123C416.11 340.19 418.388 340.167 420.663 340.166C422.07 340.164 423.594 340.258 424.979 340.012L425.341 339.941L427.857 339.806C429.427 340.035 431.535 339.762 433.165 339.746C437.145 339.711 441.128 339.705 445.108 339.792L445.048 334.153C445.031 331.076 445.02 327.998 444.998 324.922C444.991 323.856 445.176 322.143 444.869 321.144C444.699 320.595 442.762 319.442 442.188 319.033C439.65 317.22 434.561 313.506 434.322 310.202C434.11 307.26 434.263 304.188 434.272 301.237C434.292 295.804 434.316 290.373 434.305 284.94C434.263 266.334 434.263 247.729 434.351 229.124C434.377 223.712 434.4 218.3 434.393 212.888C434.391 211.239 434.389 209.59 434.377 207.941C434.369 206.836 434.42 205.535 433.978 204.504L433.883 204.295C433.496 203.403 433.019 202.639 432.356 201.907C431.263 200.701 429.618 199.875 427.978 199.7C426.282 199.518 424.462 199.621 422.755 199.622C419.647 199.624 416.537 199.631 413.429 199.638C403.191 199.664 392.951 199.71 382.713 199.748C355.195 199.849 327.669 199.656 300.151 199.659C290.279 199.66 280.407 199.657 270.535 199.659C264.873 199.66 259.119 199.851 253.471 199.544C254.061 199.436 254.66 199.512 255.25 199.361C255.913 199.192 256.652 199.236 257.332 199.293C259.087 199.443 260.816 199.248 262.559 199.239C263.348 199.236 264.221 199.395 264.986 199.322L265.691 199.249L265.692 198.805C265.721 198.705 265.865 198.582 265.828 198.451C265.739 198.136 265.604 197.921 265.692 197.566C265.816 197.065 265.85 196.856 265.875 196.326C265.889 196.01 265.937 195.762 265.883 195.446L265.737 194.467L265.6 194.2C265.726 193.896 265.704 194.058 265.646 193.714C264.93 193.761 264.836 193.663 264.233 193.331Z" fill="url(#paint0_linear_122_130056)"/>
<path d="M445.051 334.154C445.837 335.029 444.812 337.868 445.269 338.975C445.453 339.419 445.631 339.304 445.631 339.86C445.241 340.124 445.004 340.17 444.534 340.214L444.353 340.39L444.079 340.213L443.531 340.214L443.529 340.478H443.35L443.166 340.213C441.612 340.034 439.818 340.218 438.232 340.214L438.415 340.746L438.735 340.701C439.062 340.687 439.191 340.703 439.418 340.923L438.963 341.275L438.643 341.056L438.415 341.275L438.095 341.056L437.867 341.275C437.424 341.583 436.651 341.642 436.131 341.629L435.857 341.452C435.497 341.454 435.489 341.394 435.199 341.619C434.954 341.81 434.775 341.888 434.484 341.985L434.486 342.251L434.852 342.164C435.88 343.664 435.403 346.577 435.398 348.361L435.215 348.626V349.6L434.76 349.953C434.417 349.869 434.373 349.843 434.123 349.6L434.305 349.379L434.214 349.202C434.165 348.965 434.208 348.945 434.305 348.759L434.123 348.449C434.123 347.213 434.415 341.704 433.94 341.011L434.121 340.744L433.94 340.48L433.936 340.391L433.573 340.747L433.708 341.011L433.662 341.364L433.344 341.498L433.116 341.275L432.816 341.323C432.337 341.39 431.966 341.362 431.563 341.098C431.365 341.098 430.804 341.162 430.649 341.098C430.187 340.907 430.488 340.749 429.872 340.79H429.507L429.279 340.567L428.959 340.613H428.411C427.877 340.611 427.948 340.505 427.543 340.39C426.839 340.191 425.494 340.406 424.72 340.347C423.557 340.186 422.229 340.308 421.05 340.306C418.648 340.305 416.243 340.305 413.838 340.303V340.124C416.113 340.191 418.392 340.168 420.667 340.167C422.074 340.165 423.598 340.259 424.983 340.012L425.345 339.942L427.861 339.807C429.43 340.036 431.539 339.763 433.169 339.747C437.148 339.711 441.132 339.706 445.112 339.793L445.051 334.154Z" fill="#34FECE"/>
<path d="M457.89 348.686C459.653 348.541 461.341 348.633 462.916 349.52C464.636 350.489 466.525 352.435 467.004 354.367C467.424 356.065 467.07 357.661 466.16 359.136C464.853 361.247 462.918 362.851 460.435 363.464C458.544 363.563 456.823 363.197 455.171 362.276C453.188 361.169 451.849 359.17 451.314 357.034C450.877 355.288 451.379 353.62 452.355 352.141C453.683 350.127 455.553 349.196 457.89 348.686Z" fill="#003624"/>
<path d="M168.152 320.42L168.189 339.509L180.228 339.599C180.258 338.834 180.207 337.966 180.398 337.228L180.447 339.703L202.367 339.769L425.342 339.941L424.98 340.012C423.595 340.258 422.071 340.164 420.664 340.166C418.389 340.167 416.111 340.19 413.836 340.123V340.302C416.241 340.304 418.645 340.304 421.048 340.306C422.227 340.307 423.555 340.185 424.717 340.346L424.617 340.924C425.073 341.218 425.221 340.917 425.528 341.365C425.528 341.712 425.59 341.724 425.357 342.006C425.187 342.213 425.09 342.367 424.982 342.604L425.227 342.677C425.521 342.771 425.729 342.886 425.987 343.047L426.307 343.003C428.138 342.854 430.681 343.414 432.382 342.865C432.75 342.746 432.572 342.774 432.976 342.826C433.51 342.895 433.559 343.038 433.934 343.401V349.422C433.592 349.686 432.94 350.345 432.565 350.483C432.114 350.65 431.805 350.375 431.286 350.66C431.065 350.782 430.84 350.828 430.595 350.876C430.286 350.936 430.257 351.041 430.007 351.191C429.557 351.461 429.183 351.464 429 351.99L429.093 352.258C429.444 352.258 429.47 352.18 429.731 352.433L429.276 352.785L428.956 352.566L428.728 352.785C429.249 353.129 429.667 352.805 430.19 353.143H431.195L431.376 353.407C430.899 353.869 429.859 353.673 429.183 353.673C429.841 353.883 430.964 353.825 431.651 353.715C432.454 353.589 433.206 353.745 434.029 353.586L434.394 353.582L434.303 353.318L434.712 353.097L435.032 353.23L435.304 353.232C435.417 353.559 435.437 353.412 435.306 353.674C437.053 353.669 438.778 353.696 440.514 353.761L441.153 353.719C442.056 353.699 442.295 353.97 442.876 354.563L442.807 355.185C443.048 355.592 443.066 355.679 443.07 356.152L442.887 356.417C442.222 357.406 441.467 357.988 440.459 358.629C439.664 358.629 435.218 358.81 434.849 358.452C434.403 358.452 433.601 358.337 433.296 358.629C432.899 358.629 432.58 358.732 432.291 358.452L413.103 358.454L413.012 358.895C412.542 359.093 412.864 359.003 412.464 359.038C412.054 359.074 411.904 359.279 411.55 359.426C411.409 359.486 411.245 359.499 411.093 359.517L410.867 359.738C410.355 359.782 410.362 359.784 409.999 360.136L410.527 360.195C410.814 360.227 410.711 360.216 411.004 360.402L411.323 360.358C411.652 360.517 411.678 360.597 412.054 360.535L412.42 360.935L412.785 360.889L412.968 361.015C413.233 361.185 413.425 361.287 413.744 361.287L414.245 361.769C414.435 361.953 414.366 361.893 414.565 362.136C414.839 362.465 414.647 362.265 415.024 362.529L415.479 362.881C415.48 363.28 415.424 363.333 415.661 363.678C415.663 364.052 415.616 364.054 415.844 364.387C415.844 364.764 415.891 364.76 415.661 365.095C415.661 365.741 415.689 366.129 415.115 366.598L414.93 366.689C414.839 367.047 414.823 367.105 414.475 367.307L413.925 367.572L413.196 368.015C412.725 368.017 412.697 367.992 412.283 368.192L412.007 368.283C411.727 368.444 411.557 368.832 411.278 368.991C410.898 369.209 410.382 369.182 409.953 369.212L410.09 369.965L408.857 370.363L408.674 370.275L408.354 370.408L407.897 370.496C408.42 370.877 408.999 370.769 409.633 370.939L412.054 370.941L412.157 371.105C412.314 371.348 412.246 371.258 412.465 371.47C415.849 371.483 419.235 371.559 422.607 371.384L423.246 371.428C424.447 371.507 425.704 371.518 426.901 371.428C429.007 371.268 431.251 371.484 433.387 371.384L434.244 371.454C435.381 371.562 437.108 371.601 438.229 371.424C438.982 371.306 439.898 371.421 440.674 371.435C441.034 371.44 440.89 371.442 441.224 371.414C442.136 371.336 442.794 371.499 443.645 371.803C437.645 371.984 431.566 371.782 425.556 371.789C412.655 371.805 399.755 371.821 386.857 371.847C340.494 371.947 294.132 371.743 247.769 371.761C225.555 371.77 203.34 371.766 181.125 371.801C176.68 371.807 172.238 371.909 167.794 371.986C165.477 372.025 162.013 372.483 159.862 371.757L159.575 371.653C155.689 370.321 152.189 367.645 150.185 364.125C149.623 362.421 149.434 360.604 149.381 358.824C149.229 353.637 150.561 348.624 154.336 344.798C156.622 342.48 159.489 340.956 162.766 340.458C164.463 340.201 166.31 340.261 168.029 340.212C167.824 335.96 167.948 331.658 167.96 327.401C167.966 325.242 167.715 322.692 168.118 320.585L168.152 320.42Z" fill="url(#paint1_linear_122_130056)"/>
<path d="M164.925 348.683C166.591 348.533 168.207 348.777 169.654 349.625C171.322 350.601 172.749 352.326 173.219 354.178C173.708 356.107 173.228 358.2 172.119 359.856C170.727 361.935 168.774 363.113 166.307 363.598C164.414 363.617 162.786 363.223 161.193 362.199C159.267 360.961 158.018 358.974 157.642 356.769C157.366 355.156 158.054 353.111 159.055 351.814C160.565 349.857 162.481 349.041 164.925 348.683Z" fill="#003624"/>
<path d="M182.216 356.318C182.199 355.696 182.1 355.051 182.45 354.501C183.167 354.053 184.201 354.058 185.035 354.028C190.921 353.817 196.852 353.9 202.745 353.874C216.261 353.812 229.773 353.913 243.289 353.913C283.227 353.909 323.163 354.031 363.101 353.978C385.193 353.948 407.291 353.805 429.381 354.068C432.147 354.102 434.915 354.132 437.682 354.125C438.762 354.123 440.563 353.886 441.572 354.162C442.137 354.316 442.535 354.69 442.807 355.184C442.648 356.181 442.197 356.914 441.375 357.548C440.872 357.934 440.465 358.115 439.82 358.15C437.022 358.304 434.095 358.08 431.283 358.067C424.845 358.035 418.406 358.014 411.969 358.014C390.678 358.012 369.383 357.968 348.092 358.007C306.807 358.081 265.521 357.957 224.236 357.987C213.872 357.996 203.508 358.039 193.144 358.03C190.999 358.028 188.855 358.011 186.71 358.019C185.766 358.023 184.55 358.198 183.647 358.002C183.129 357.888 182.715 357.334 182.488 356.904L182.216 356.318Z" fill="url(#paint2_linear_122_130056)"/>
<path d="M168.154 320.42C168.502 317.498 172.906 314.321 175.011 312.41C176.65 310.923 178.278 309.419 179.879 307.893C180.653 307.156 182.098 306.021 182.311 304.972C182.1 304.567 182.079 304.583 181.626 304.507C179.875 304.215 177.429 304.59 175.614 304.636C171.539 304.739 167.453 304.655 163.376 304.703C161.413 304.728 159.449 304.751 157.485 304.769C156.074 304.781 154.585 304.859 153.198 304.576C152.275 304.386 151.467 303.961 150.763 303.357C149.458 302.236 148.559 300.379 148.523 298.691C148.485 296.886 149.205 295.123 150.56 293.869C151.25 293.23 152.221 292.64 153.166 292.477C154.385 292.266 155.666 292.333 156.9 292.333C158.883 292.333 160.867 292.337 162.851 292.339C169.757 292.348 176.667 292.323 183.574 292.41L183.557 282.854L183.402 282.864C180.372 283.05 177.252 282.921 174.213 282.925C171.88 282.926 169.082 283.203 166.823 282.696C165.856 282.478 164.957 281.894 164.223 281.26C162.923 280.134 161.852 278.134 161.819 276.403C161.788 274.817 162.667 273.005 163.852 271.943C164.787 271.105 166.169 270.427 167.406 270.166C169.169 269.795 171.221 269.957 173.022 269.97C176.528 269.995 180.033 270.08 183.538 270.177L183.564 258.978C179.498 258.952 175.432 258.928 171.365 258.9C169.573 258.887 167.295 259.116 165.561 258.731C164.481 258.492 163.416 257.929 162.607 257.201C161.149 255.89 160.261 253.764 160.274 251.831C160.286 250.193 161.013 248.593 162.236 247.466C162.781 246.964 163.702 246.324 164.442 246.146C166.304 245.697 168.835 245.989 170.753 246.001C175.021 246.028 179.29 246.063 183.559 246.103C183.515 236.669 183.529 227.237 183.537 217.803C183.54 214.945 183.535 212.087 183.542 209.229C183.548 207.1 183.496 204.911 183.811 202.8L183.856 202.525C184.238 200.076 185.93 197.711 187.784 196.061C189.241 194.764 190.986 193.833 192.916 193.39C195.989 192.685 199.766 193.022 202.929 193.025C207.72 193.031 212.52 192.99 217.308 193.186L217.228 189.607C217.174 186.677 216.835 183.171 219.175 180.947C220.311 179.868 221.917 179.285 223.496 179.275C225.432 179.262 227.676 179.854 229.038 181.251C230.915 183.177 230.705 185.741 230.716 188.19C230.723 189.848 230.724 191.505 230.723 193.163L264.235 193.332C264.838 193.663 264.933 193.762 265.649 193.714C265.707 194.058 265.729 193.897 265.603 194.2L265.74 194.467L265.886 195.446C265.94 195.762 265.892 196.011 265.878 196.326C265.853 196.856 265.819 197.065 265.695 197.566C265.607 197.922 265.742 198.136 265.831 198.452C265.868 198.582 265.724 198.705 265.695 198.806L265.694 199.249L264.989 199.323C264.224 199.395 263.351 199.236 262.562 199.24C260.819 199.248 259.09 199.443 257.334 199.294C256.655 199.236 255.916 199.193 255.253 199.362C254.662 199.512 254.064 199.436 253.474 199.545C259.122 199.851 264.876 199.66 270.538 199.659C280.41 199.657 290.282 199.66 300.154 199.659C327.672 199.656 355.198 199.849 382.716 199.748C392.954 199.711 403.194 199.664 413.432 199.639C416.54 199.631 419.65 199.625 422.758 199.622C424.465 199.621 426.285 199.519 427.98 199.7C429.621 199.876 431.266 200.701 432.358 201.908C433.022 202.639 433.499 203.404 433.886 204.296L433.981 204.504C434.423 205.536 434.372 206.836 434.379 207.941C434.392 209.59 434.394 211.239 434.396 212.889C434.403 218.301 434.379 223.713 434.354 229.124C434.266 247.729 434.266 266.334 434.308 284.94C434.319 290.373 434.295 295.804 434.275 301.238C434.266 304.188 434.113 307.261 434.325 310.202C434.564 313.507 439.653 317.22 442.191 319.034C442.765 319.443 444.701 320.596 444.871 321.145C445.178 322.143 444.994 323.856 445.001 324.922C445.023 327.998 445.034 331.076 445.05 334.154L445.111 339.792C441.131 339.706 437.148 339.711 433.168 339.746C431.538 339.762 429.429 340.035 427.86 339.807L425.344 339.941L202.369 339.769L180.448 339.704L180.4 337.228C180.208 337.967 180.259 338.834 180.23 339.599L168.19 339.509L168.154 320.42Z" fill="url(#paint3_linear_122_130056)"/>
<path d="M210.241 317.129C209.701 317.167 208.954 317.311 208.461 317.095L208.338 282.698L221.965 282.783C222.011 285.257 222.071 287.528 222.805 289.92L223.237 291.16C225.028 295.431 228.215 298.079 232.541 299.793L232.482 300.135C233.03 300.282 234.797 300.303 235.047 300.544C235.494 300.544 236.297 300.661 236.6 300.367C237.165 300.328 237.681 300.328 238.245 300.367L238.428 300.19C238.758 300.351 238.826 300.848 239.022 301.165L238.978 302.317L239.25 302.494L239.165 302.688C238.899 303.337 239.212 304.644 238.976 305.061C238.757 305.449 238.432 305.191 238.428 305.77L238.155 305.772C237.798 306.232 238.056 306.186 237.925 306.611C237.817 306.963 237.335 306.8 237.331 307.364L237.161 307.512C236.863 307.803 236.786 308.026 236.783 308.426L236.613 308.575C236.315 308.865 236.238 309.089 236.235 309.489L235.962 309.491L235.687 310.374L235.516 310.523C235.219 310.813 235.141 311.037 235.139 311.437L234.592 311.879L234.591 312.145L234.044 312.588L234.088 313.163L233.769 313.209C233.524 313.526 233.48 313.449 233.54 313.872L233.221 313.918C232.976 314.235 232.932 314.157 232.992 314.58L232.673 314.626C232.436 314.906 232.441 315.034 232.307 315.335C232.142 315.706 232.099 315.703 231.759 315.866L231.393 316.13L231.119 316.131C230.797 316.399 230.65 316.498 230.479 316.884C225.912 317.077 221.329 317.024 216.751 317.017C215.341 317.015 213.93 317.013 212.52 317.013C211.792 317.013 210.927 316.914 210.241 317.129Z" fill="#009366"/>
<path d="M180.397 337.228L180.444 329.32C180.452 327.039 180.408 324.748 180.497 322.469C180.51 322.132 180.44 321.162 180.575 320.882C180.798 320.423 181.789 319.736 182.211 319.405C183.769 318.178 185.421 316.988 186.838 315.606C188.043 314.431 189.425 312.801 189.792 311.145C190.014 310.145 189.927 309.033 189.927 308.014C189.928 306.171 189.926 304.327 189.923 302.482C189.913 295.954 189.902 289.425 189.893 282.897L202.206 282.912C202.049 291.823 202.203 300.752 202.209 309.665C202.213 315.029 201.895 320.563 202.27 325.906C202.33 326.747 202.428 327.457 202.842 328.215L202.928 328.366C202.224 329.758 202.356 331.527 202.337 333.041C202.309 335.287 202.335 337.525 202.366 339.769L180.446 339.703L180.397 337.228Z" fill="#003624"/>
<path d="M237.134 292.15C236.813 291.916 236.533 291.658 236.251 291.385C234.588 289.774 233.664 288.183 233.599 285.84C233.554 284.257 234.135 283.614 235.137 282.472C235.317 282.267 235.827 281.822 235.922 281.59C236.037 281.307 236.008 280.588 236.02 280.271C236.185 275.857 236.008 271.374 235.995 266.954C235.97 258.63 235.964 250.306 235.951 241.982L280.513 242.059L280.638 242.45C281.259 242.453 282.223 242.306 282.731 242.633L283.19 242.635L283.005 243.078L282.732 243.079C282.486 243.317 282.459 243.247 282.457 243.609L282.184 243.61C281.938 243.848 281.911 243.778 281.909 244.14L281.68 244.141L277.615 247.771L277.158 248.214L276.884 248.036L276.618 248.183C276.216 248.393 275.826 248.535 275.422 248.745L275.057 248.833C274.535 248.964 274.226 249.193 273.778 249.453C272.626 250.121 271.914 250.894 271.126 251.933L271.039 252.11C270.908 252.366 270.752 252.454 270.533 252.641C270.093 253.016 269.752 253.429 269.451 253.916C269.234 254.266 268.923 254.498 268.661 254.809C268.086 255.494 267.687 256.252 267.033 256.894C266.813 257.109 266.701 257.333 266.56 257.599L266.294 257.688L266.208 257.891C266.039 258.258 265.786 258.474 265.494 258.751L265.464 259.016L265.283 259.193C265.012 259.521 264.902 259.62 264.961 260.034L264.642 260.08C264.46 260.374 264.37 260.434 264.367 260.787L264.197 260.937C263.899 261.227 263.822 261.449 263.819 261.85L263.546 261.851C263.189 262.312 263.447 262.266 263.317 262.691C263.208 263.043 262.727 262.88 262.723 263.444L262.176 263.886L262.22 264.462L262.027 264.633C261.713 264.939 261.629 265.146 261.626 265.569L261.353 265.569C261.108 265.887 261.064 265.809 261.124 266.233L260.805 266.278C260.448 266.739 260.706 266.693 260.576 267.118C260.534 267.254 260.033 267.466 259.984 267.605C259.946 267.713 260.083 267.958 260.028 268.004C259.946 268.071 259.815 268.034 259.709 268.049C259.519 268.417 259.42 268.467 259.479 268.889L259.161 268.934C258.915 269.252 258.871 269.174 258.931 269.597L258.612 269.643C258.367 269.881 258.34 269.81 258.337 270.173L257.791 270.616L257.789 270.881L257.516 270.882C257.27 271.12 257.244 271.05 257.241 271.413L256.968 271.414C256.722 271.652 256.695 271.581 256.693 271.944L256.147 272.387L256.145 272.652L255.872 272.653L255.597 273.006L255.323 273.007C255.078 273.245 255.051 273.175 255.048 273.538L254.775 273.539L254.5 273.892L254.227 273.893L253.406 274.512L253.404 274.777L253.221 274.514C252.952 274.774 252.858 274.745 252.856 275.132L252.582 275.132C252.337 275.37 252.31 275.3 252.307 275.663L251.942 275.576L251.806 275.84C251.701 275.992 251.561 276.026 251.394 276.107L251.211 276.371L250.938 276.372L250.819 276.532C250.602 276.813 250.394 276.983 250.115 277.208C249.881 277.398 249.772 277.613 249.568 277.788L249.293 277.965C248.936 278.236 248.523 278.615 248.38 279.028L248.185 279.129C247.721 279.4 247.537 279.644 247.283 280.09C247.092 280.427 246.761 280.582 246.553 280.976L246.416 281.142C246.175 281.454 246.23 281.663 246.169 282.022C246.1 282.426 245.809 282.708 245.549 283.012L245.55 283.303C245.527 284.08 244.027 285.669 243.354 286.025L243.081 286.113L242.349 286.556L242.092 286.717C241.703 286.968 241.889 286.844 241.527 287.137C240.986 287.574 240.437 287.794 239.911 288.304C239.47 288.732 239.949 288.314 239.426 288.592L239.153 288.856L239.151 289.122L238.97 289.299L238.786 290.098L238.513 290.186C238.174 290.624 238.421 290.873 238.192 291.203L238.009 291.072L237.781 291.204L237.509 291.336L237.507 291.601L237.331 291.776L237.134 292.15Z" fill="#009366"/>
<path d="M291.349 228.974C288.24 228.735 284.987 228.911 281.863 228.92C276.025 228.939 270.186 228.965 264.347 228.957C257.832 228.948 251.318 228.929 244.804 228.935C241.128 228.938 237.322 228.761 233.668 229.127C231.959 229.298 230.093 229.949 228.648 230.821C225.842 232.516 223.364 235.347 222.643 238.535L222.58 238.828C222.095 240.966 222.106 243.168 222.09 245.347C222.069 248.002 222.075 250.657 222.079 253.312C222.088 259.315 221.984 265.347 222.198 271.346L208.621 271.041C208.197 270.005 208.391 268.022 208.385 266.868C208.368 263.745 208.371 260.622 208.364 257.5C208.335 245.257 208.368 233.015 208.342 220.772L280.066 220.834L280.379 220.931C281.589 221.279 282.976 220.842 284.197 221.163L284.751 221.149C285.901 221.094 287.071 221.08 288.217 221.163C289.4 221.248 290.627 221.029 291.825 221.143C294.647 221.411 297.605 221.036 300.459 221.163L301.1 221.163L300.962 221.563L300.46 221.518L300.368 221.828L300.185 221.564L299.774 221.96L299.591 221.828L299.363 222.005L299.09 222.182L298.725 222.624L298.908 222.89L298.998 223.243L299.363 223.333L299.273 223.687L299.456 223.953C299.308 224.311 299.256 224.279 299.364 224.66L299.456 225.104L299.279 225.303C299.04 225.592 299.137 225.629 298.998 225.902C298.847 226.199 298.705 226.252 298.633 226.61L298.405 227.727C298.329 228.095 298.23 228.268 297.994 228.557L298.038 228.867L297.719 228.912L297.627 229.265L297.444 229.002L297.308 229.265L297.171 229.487V229.619L297.536 229.708L297.673 229.974C297.337 229.976 297.016 229.808 296.721 229.665C296.479 229.548 296.329 229.502 296.077 229.438C295.665 229.335 295.836 229.418 295.526 229.179C295.155 229.177 295.069 229.265 294.795 229.002L294.523 228.987C294.081 228.953 294.335 228.99 294.012 228.887C293.65 228.772 293.252 228.814 292.874 228.823L292.602 228.647L291.349 228.974Z" fill="#009366"/>
<path d="M202.93 328.368C203.722 329.051 204.478 329.79 205.564 329.986C207.294 330.3 209.542 330.079 211.321 330.086C215.846 330.102 220.371 330.093 224.895 330.089C241.026 330.073 257.157 330.077 273.287 330.059C306.499 330.025 339.711 330.125 372.923 330.087C382.373 330.077 391.825 330.05 401.276 330.073C406.706 330.087 412.216 330.295 417.639 330.073C418.662 330.031 419.148 329.907 420.005 329.351C421.326 328.495 422.026 327.413 422.304 325.926C422.715 330.514 423.084 335.14 422.669 339.75C424.354 339.75 426.196 339.597 427.859 339.808L425.342 339.943L202.368 339.771C202.336 337.527 202.311 335.289 202.339 333.043C202.357 331.529 202.225 329.76 202.93 328.368Z" fill="#007C2D"/>
<path d="M422.302 325.922C422.364 317.718 422.15 309.488 422.136 301.28C422.105 285.678 422.201 270.078 422.127 254.477C422.088 246.221 422.134 237.964 422.128 229.707C422.125 225.878 422.225 222.016 422.094 218.19C422.059 217.22 422.114 215.849 421.505 215.037C420.804 214.104 419.645 213.619 418.492 213.517C416.784 213.366 414.978 213.462 413.261 213.458C410.005 213.449 406.747 213.452 403.49 213.461C393.185 213.488 382.881 213.538 372.575 213.543C338.452 213.56 304.33 213.617 270.207 213.641C255.196 213.652 240.183 213.613 225.172 213.601C220.81 213.597 216.448 213.567 212.087 213.545C209.929 213.534 207.605 213.358 205.467 213.583C204.633 213.671 203.827 214.008 203.205 214.56C202.508 215.18 202.288 215.912 202.208 216.809C202.016 218.937 202.135 221.158 202.131 223.298C202.124 227.477 202.135 231.655 202.143 235.834C202.165 247.59 202.102 259.331 201.967 271.086L189.991 271.041C190.084 265.775 189.93 260.481 189.908 255.211C189.865 244.479 189.84 233.747 189.828 223.014C189.823 219.218 189.819 215.422 189.823 211.625C189.825 209.605 189.634 207.336 190.009 205.355C190.242 204.124 191.11 202.894 191.972 201.977C192.963 200.922 194.151 199.937 195.634 199.649C197.024 199.378 198.689 199.519 200.111 199.513C203.199 199.502 206.288 199.509 209.376 199.513C220.037 199.528 230.691 199.65 241.353 199.594C245.376 199.574 249.456 199.745 253.471 199.543C259.119 199.849 264.873 199.658 270.535 199.657C280.407 199.655 290.279 199.658 300.151 199.657C327.669 199.654 355.195 199.847 382.713 199.746C392.951 199.709 403.191 199.662 413.429 199.637C416.537 199.629 419.647 199.623 422.755 199.62C424.462 199.619 426.282 199.517 427.977 199.698C429.618 199.874 431.263 200.699 432.355 201.906C433.019 202.637 433.496 203.402 433.883 204.294L433.978 204.502C434.42 205.534 434.369 206.834 434.376 207.939C434.389 209.588 434.391 211.237 434.393 212.887C434.4 218.299 434.376 223.711 434.351 229.122C434.263 247.727 434.263 266.332 434.305 284.938C434.316 290.371 434.292 295.802 434.272 301.236C434.263 304.186 434.11 307.259 434.322 310.2C434.561 313.505 439.65 317.218 442.188 319.032C442.762 319.441 444.698 320.594 444.868 321.143C445.175 322.141 444.991 323.854 444.998 324.92C445.02 327.996 445.031 331.074 445.047 334.152L445.108 339.79C441.128 339.704 437.145 339.709 433.165 339.744C431.535 339.76 429.426 340.033 427.857 339.805C426.194 339.594 424.352 339.746 422.667 339.746C423.082 335.136 422.713 330.511 422.302 325.922Z" fill="url(#paint4_linear_122_130056)"/>
<path d="M280.063 220.836L416.41 220.953L415.911 254.314C412.405 254.065 408.893 253.921 405.377 253.875C403.853 253.855 402.083 253.727 400.584 253.997C399.742 254.149 398.955 254.583 398.304 255.111C396.724 256.395 395.565 258.409 395.432 260.42C395.32 262.096 396.227 264.178 397.396 265.369C400.027 268.045 404.453 267.394 407.928 267.395L416.352 267.328L415.966 317.369C396.329 317.527 376.726 317.334 357.092 317.272C334.195 317.197 311.293 317.231 288.396 317.213C267.956 317.195 247.513 317.219 227.073 317.24C222.609 317.243 218.144 317.226 213.679 317.204C212.906 317.201 210.782 317.435 210.233 317.13C210.92 316.916 211.785 317.015 212.513 317.015C213.923 317.015 215.334 317.017 216.744 317.018C221.322 317.025 225.905 317.079 230.472 316.886C230.643 316.5 230.79 316.4 231.112 316.133L231.386 316.131L231.752 315.867C232.092 315.704 232.135 315.708 232.3 315.336C232.434 315.035 232.429 314.907 232.666 314.628L232.985 314.582C232.925 314.158 232.968 314.236 233.214 313.919L233.533 313.873C233.473 313.45 233.517 313.528 233.762 313.211L234.081 313.165L234.037 312.589L234.583 312.147L234.585 311.881L235.132 311.438C235.134 311.038 235.212 310.815 235.509 310.524L235.68 310.376L235.955 309.492L236.228 309.49C236.231 309.09 236.308 308.867 236.606 308.576L236.776 308.428C236.779 308.027 236.856 307.804 237.154 307.514L237.324 307.365C237.328 306.802 237.81 306.965 237.918 306.612C238.049 306.187 237.791 306.233 238.147 305.773L238.421 305.771C238.425 305.192 238.749 305.451 238.969 305.063C239.205 304.645 238.891 303.338 239.158 302.69L239.243 302.495L238.971 302.318L239.015 301.167C238.819 300.85 238.751 300.352 238.421 300.191L238.238 300.368C237.674 300.329 237.158 300.329 236.593 300.368C236.289 300.662 235.487 300.545 235.04 300.545C234.79 300.304 233.023 300.283 232.475 300.136L232.534 299.794C232.918 299.683 234.333 300.033 234.839 300.051C236.082 300.094 237.283 299.972 238.512 299.805C239.05 299.346 238.926 299.021 239.208 298.424L239.296 298.257C239.6 297.469 239.604 295.282 239.537 294.434C238.931 293.501 237.999 292.852 237.134 292.153L237.331 291.779L237.507 291.604L237.509 291.338L237.781 291.207L238.009 291.074L238.192 291.205C238.421 290.876 238.174 290.626 238.513 290.189L238.786 290.1L238.971 289.302L239.151 289.125L239.153 288.859L239.426 288.595C239.949 288.317 239.47 288.735 239.911 288.306C240.437 287.796 240.986 287.577 241.527 287.139C241.889 286.847 241.703 286.971 242.092 286.72L242.349 286.559L243.081 286.116L243.354 286.027C244.027 285.671 245.527 284.083 245.55 283.305L245.549 283.015C245.809 282.71 246.1 282.429 246.169 282.025C246.231 281.665 246.176 281.457 246.416 281.145L246.553 280.978C246.761 280.585 247.092 280.429 247.284 280.093C247.537 279.647 247.721 279.402 248.185 279.131L248.38 279.03C248.523 278.618 248.936 278.239 249.294 277.968L249.569 277.791C249.772 277.616 249.881 277.401 250.115 277.211C250.394 276.986 250.602 276.815 250.819 276.535L250.938 276.375L251.211 276.374L251.394 276.11C251.561 276.029 251.701 275.995 251.806 275.843L251.942 275.579L252.308 275.666C252.31 275.303 252.337 275.373 252.583 275.135L252.856 275.134C252.859 274.748 252.952 274.777 253.221 274.516L253.404 274.78L253.406 274.515L254.227 273.896L254.5 273.895L254.775 273.541L255.048 273.541C255.051 273.178 255.078 273.248 255.323 273.01L255.597 273.009L255.872 272.656L256.145 272.655L256.147 272.389L256.693 271.947C256.696 271.584 256.722 271.654 256.968 271.416L257.241 271.415C257.244 271.053 257.271 271.123 257.516 270.885L257.789 270.884L257.791 270.618L258.337 270.176C258.34 269.813 258.367 269.883 258.612 269.645L258.931 269.6C258.871 269.177 258.915 269.254 259.161 268.937L259.48 268.892C259.42 268.469 259.519 268.42 259.709 268.052C259.815 268.036 259.946 268.074 260.028 268.006C260.083 267.961 259.946 267.716 259.984 267.608C260.033 267.469 260.534 267.257 260.576 267.121C260.707 266.696 260.448 266.742 260.805 266.281L261.124 266.235C261.064 265.812 261.108 265.89 261.353 265.572L261.627 265.571C261.629 265.149 261.714 264.941 262.027 264.636L262.22 264.465L262.177 263.889L262.723 263.446C262.727 262.882 263.208 263.046 263.317 262.694C263.447 262.269 263.189 262.315 263.546 261.853L263.819 261.852C263.822 261.452 263.899 261.229 264.197 260.939L264.367 260.79C264.37 260.437 264.461 260.377 264.642 260.082L264.961 260.037C264.903 259.623 265.012 259.524 265.283 259.196L265.464 259.019L265.494 258.753C265.786 258.477 266.039 258.26 266.208 257.894L266.294 257.691L266.56 257.602C266.701 257.336 266.814 257.112 267.033 256.897C267.687 256.254 268.086 255.497 268.661 254.812C268.923 254.5 269.234 254.268 269.451 253.919C269.752 253.432 270.094 253.019 270.533 252.644C270.752 252.457 270.908 252.368 271.039 252.112L271.126 251.935C271.915 250.896 272.626 250.123 273.778 249.456C274.226 249.196 274.535 248.967 275.057 248.836L275.422 248.748C275.826 248.537 276.216 248.396 276.618 248.186L276.884 248.039L277.158 248.216L277.615 247.774L281.68 244.144L281.909 244.143C281.911 243.781 281.938 243.851 282.184 243.613L282.457 243.612C282.46 243.249 282.486 243.32 282.732 243.082L283.005 243.081L283.19 242.638L282.731 242.636C282.224 242.309 281.259 242.456 280.638 242.453L280.513 242.062L293.273 241.936C295.137 245.086 297.001 247.485 300.364 249.158C301.651 249.646 302.954 250.103 304.333 250.278C306.422 250.543 308.577 250.473 310.681 250.48C313.641 250.491 316.599 250.498 319.557 250.504C321.657 250.508 323.755 250.507 325.854 250.517C326.875 250.523 327.957 250.622 328.969 250.522C329.337 250.485 329.664 250.366 329.998 250.22L330.197 250.129C330.422 250.03 330.325 250.06 330.592 250.046L330.713 249.941C331.235 249.372 330.879 248.252 330.866 247.532C330.837 245.73 330.853 243.942 330.773 242.14C330.647 242.715 330.795 243.315 330.422 243.788L306.118 243.677L305.829 241.003L305.788 240.778C305.395 238.491 304.289 236.269 302.752 234.501C299.709 231.001 296.004 229.333 291.345 228.976L292.598 228.649L292.87 228.825C293.248 228.816 293.647 228.774 294.009 228.889C294.331 228.992 294.077 228.955 294.52 228.989L294.791 229.004C295.066 229.267 295.151 229.179 295.522 229.181C295.833 229.42 295.661 229.337 296.073 229.44C296.325 229.504 296.476 229.55 296.718 229.667C297.012 229.81 297.333 229.978 297.67 229.976L297.532 229.71L297.167 229.621V229.489L297.304 229.267L297.44 229.004L297.623 229.267L297.715 228.914L298.034 228.869L297.99 228.559C298.227 228.27 298.326 228.097 298.401 227.729L298.629 226.612C298.701 226.254 298.844 226.201 298.994 225.904C299.133 225.631 299.036 225.594 299.275 225.305L299.452 225.106L299.36 224.662C299.252 224.281 299.304 224.313 299.452 223.955L299.269 223.689L299.359 223.335L298.994 223.245L298.904 222.892L298.721 222.627L299.087 222.184L299.359 222.007L299.587 221.83L299.77 221.962L300.181 221.566L300.364 221.83L300.456 221.52L300.958 221.565L301.096 221.166L300.455 221.165C297.602 221.038 294.644 221.413 291.822 221.145C290.623 221.031 289.397 221.25 288.213 221.165C287.067 221.082 285.898 221.096 284.747 221.151L284.193 221.165C282.973 220.844 281.585 221.281 280.375 220.933L280.063 220.836Z" fill="url(#paint5_linear_122_130056)"/>
<path d="M300.367 249.157C301.654 249.645 302.957 250.103 304.336 250.278C306.425 250.542 308.581 250.472 310.684 250.48C313.644 250.49 316.602 250.497 319.56 250.503C321.66 250.508 323.758 250.506 325.857 250.517C326.879 250.522 327.96 250.621 328.973 250.521C329.34 250.485 329.667 250.366 330.001 250.22L330.2 250.128C330.425 250.03 330.328 250.06 330.595 250.045C330.306 250.47 330.027 250.848 329.486 250.982L328.508 251.092L299.75 251.003L299.545 251.006L299.452 250.783L299.636 250.782C299.887 250.502 299.933 250.443 299.936 250.075C299.939 249.54 300.028 249.576 300.367 249.157Z" fill="#009366"/>
<path d="M239.541 294.432C240.103 292.495 241.755 290.8 243.546 289.835C245.351 288.861 247.41 288.631 249.415 289.164C251.819 289.803 253.705 291.475 254.85 293.579C255.764 295.258 255.898 297.174 255.32 298.982C254.64 301.112 253.066 303.014 251.002 304.02C248.972 305.008 246.698 305.111 244.577 304.36C242.682 303.687 240.774 302.054 239.88 300.273C239.567 299.651 239.43 298.932 239.3 298.256C239.603 297.468 239.608 295.281 239.541 294.432Z" fill="#34FECE"/>
<path d="M379.678 245.43C381.225 245.305 383.224 245.775 384.604 246.463C386.692 247.506 388.311 249.451 388.969 251.638C389.559 253.594 389.241 255.954 388.154 257.69C386.787 259.876 384.602 261.037 382.119 261.654C380.039 261.844 378.077 261.628 376.317 260.44C374.302 259.08 372.889 256.86 372.478 254.513C372.118 252.453 372.838 249.996 374.106 248.338C375.576 246.418 377.33 245.784 379.678 245.43Z" fill="#4EFEDA"/>
<path d="M368.788 292.764C368.819 291.701 368.735 290.012 369.568 289.216C369.955 288.848 370.432 288.738 370.953 288.671C373.467 288.349 376.301 288.597 378.841 288.62C381.984 288.65 385.207 288.538 388.341 288.733C389.35 288.795 390.013 288.919 390.691 289.691C391.703 290.84 391.672 292.459 391.721 293.89C395.423 293.8 401.126 292.951 404.015 295.67C405.122 296.711 405.833 298.252 405.855 299.748L405.766 300.811L405.736 301.03C405.513 302.5 404.651 303.929 403.403 304.795C400.759 306.628 395.319 306.145 392.151 305.829L391.581 309.302C384.299 310.221 376.628 309.722 369.301 309.5C369.151 308.539 369.073 307.432 368.784 306.506L368.62 306.123C369.098 304.799 368.762 303.341 368.773 301.956C368.795 298.898 368.905 295.82 368.788 292.764Z" fill="#4EFEDA"/>
<path d="M330.777 242.138C330.976 238.651 331.961 235.613 334.725 233.224C337.048 231.219 339.657 229.799 342.734 229.21C345.947 228.595 349.707 228.917 352.983 228.92C358.851 228.924 364.72 228.931 370.587 228.937C376.421 228.944 382.254 228.942 388.086 228.937C391.107 228.934 394.248 228.764 397.254 228.974L398.125 229.055L398.408 229.081C400.203 229.26 402.147 230.139 403.294 231.507C404.542 232.996 405.043 234.887 404.749 236.775C404.469 238.564 403.488 240.005 401.94 240.994C401.244 241.439 400.572 241.703 399.744 241.79C397.84 241.988 395.865 241.915 393.952 241.924C390.845 241.94 387.741 241.946 384.637 241.979C370.839 242.127 357.043 241.909 343.248 241.953C343.217 244.849 343.44 248.055 342.89 250.896C342.265 254.124 340.299 257.462 337.888 259.747C335.851 261.679 333.322 263.109 330.541 263.755C327.21 264.529 323.212 264.193 319.782 264.218C313.093 264.265 306.412 264.27 299.723 264.144L298.024 264.11L298.016 294.093C300.976 294.436 304.116 294.165 307.097 294.123C311.545 294.059 315.996 294.084 320.444 294.093C329.96 294.112 339.478 294.068 348.994 294.112C355.472 294.142 361.957 294.314 368.433 294.208C368.743 293.74 368.729 293.305 368.789 292.763C368.906 295.819 368.796 298.897 368.774 301.956C368.763 303.341 369.1 304.798 368.621 306.123L368.785 306.505C362.781 306.33 356.725 306.466 350.716 306.468C339.789 306.47 328.86 306.459 317.933 306.44C313.599 306.433 309.263 306.445 304.929 306.39C302.213 306.356 299.378 306.434 296.7 305.963C294.566 305.588 292.44 304.38 290.792 303.047C287.683 300.528 285.838 296.912 285.476 293.021C285.026 288.204 285.328 283.163 285.336 278.326C285.341 275.09 285.304 271.851 285.368 268.616C285.408 266.604 285.393 264.439 285.832 262.469C286.333 260.215 287.465 258.053 289.003 256.296C290.55 254.53 292.788 252.746 295.087 252.016C298.861 250.819 303.337 251.249 307.261 251.256C311.73 251.263 316.199 251.251 320.669 251.229C323.185 251.217 325.774 251.317 328.279 251.111L328.509 251.09L329.487 250.98C330.028 250.845 330.307 250.468 330.596 250.043L330.716 249.938C331.239 249.37 330.883 248.249 330.87 247.529C330.841 245.728 330.857 243.94 330.777 242.138Z" fill="#34FECE"/>
<defs>
<linearGradient id="paint0_linear_122_130056" x1="407.988" y1="370.496" x2="510.298" y2="281.852" gradientUnits="userSpaceOnUse">
<stop stop-color="#00F29C"/>
<stop offset="1" stop-color="#25FFD0"/>
</linearGradient>
<linearGradient id="paint1_linear_122_130056" x1="160.215" y1="341.453" x2="196.304" y2="445.946" gradientUnits="userSpaceOnUse">
<stop stop-color="#00AC7B"/>
<stop offset="1" stop-color="#00ED9E"/>
</linearGradient>
<linearGradient id="paint2_linear_122_130056" x1="183.604" y1="357.568" x2="199.397" y2="294.194" gradientUnits="userSpaceOnUse">
<stop stop-color="#004A35"/>
<stop offset="1" stop-color="#007046"/>
</linearGradient>
<linearGradient id="paint3_linear_122_130056" x1="188.539" y1="195.884" x2="362.917" y2="382.314" gradientUnits="userSpaceOnUse">
<stop stop-color="#00EF96"/>
<stop offset="1" stop-color="#32FFDD"/>
</linearGradient>
<linearGradient id="paint4_linear_122_130056" x1="191.642" y1="202.965" x2="407.688" y2="383.433" gradientUnits="userSpaceOnUse">
<stop stop-color="#003827"/>
<stop offset="1" stop-color="#004C27"/>
</linearGradient>
<linearGradient id="paint5_linear_122_130056" x1="299.268" y1="222.095" x2="403.049" y2="329.077" gradientUnits="userSpaceOnUse">
<stop stop-color="#009867"/>
<stop offset="1" stop-color="#00FEA4"/>
</linearGradient>
</defs>
</svg>
