<svg width="626" height="551" viewBox="0 0 626 551" fill="none" xmlns="http://www.w3.org/2000/svg">
<rect x="0.00585938" y="0.232422" width="625.979" height="550.135" fill="#003660"/>
<path d="M406.837 192.885C410.437 192.864 414.034 192.85 417.632 192.87C419.239 192.878 421.177 192.701 422.723 193.057C422.664 194.78 422.793 196.382 424.148 197.691C424.465 197.998 424.866 198.24 425.24 198.48C424.225 199.02 422.47 198.844 421.324 198.845C418.61 198.848 415.892 198.864 413.179 198.815L413.203 193.031L406.822 193.047L406.837 192.885Z" fill="#3291CB"/>
<path d="M422.736 193.057C423.602 191.911 424.709 190.717 426.238 190.433C427.786 190.147 428.867 190.527 430.117 191.383C430.822 191.867 431.456 192.491 431.901 193.207C432.128 194.67 431.897 196.225 430.95 197.424C430.389 198.134 429.538 198.761 428.6 198.88C427.449 199.027 426.319 198.919 425.253 198.479C424.879 198.24 424.478 197.997 424.161 197.69C422.805 196.382 422.677 194.78 422.736 193.057Z" fill="#F6FAFB"/>
<path d="M377.432 189.585C377.333 189.404 376.595 189.01 376.395 188.848C375.734 188.31 375.076 187.642 374.626 186.925C373.906 185.776 373.618 184.457 374.01 183.156C374.38 181.929 375.364 180.932 376.54 180.366C377.828 179.747 379.343 179.797 380.671 180.262C382.257 180.817 383.439 181.912 384.161 183.358C384.139 185.128 384.093 186.306 382.668 187.616C381.204 188.96 379.423 189.525 377.432 189.585Z" fill="#F6FAFB"/>
<path d="M438.297 311.485C437.183 310.259 436.221 309.028 436.249 307.336C436.271 305.989 436.771 305.113 437.782 304.196C439.185 302.925 440.546 302.481 442.451 302.525C444.137 302.87 445.514 303.642 446.511 305.032C447.229 306.033 447.35 307.411 447.059 308.569C446.661 310.15 445.485 311.411 444.023 312.19C442.948 312.762 441.671 312.973 440.488 312.591C439.726 312.347 438.956 311.914 438.297 311.485Z" fill="#F6FAFB"/>
<path d="M385.402 182.197L385.234 181.636C384.968 180.359 385.296 178.989 386.04 177.915C386.829 176.775 388.038 175.922 389.453 175.678C390.658 175.471 392.023 175.685 393.029 176.383C394.192 177.19 395.078 178.418 395.278 179.803C395.421 180.782 395.106 181.337 394.512 182.106C393.408 183.075 392.686 184.489 392.615 185.926C392.543 187.346 392.913 188.795 393.243 190.166C393.182 190.862 393.179 191.547 392.906 192.199L392.858 192.339C391.832 191.515 390.825 191.007 389.579 190.578C388.63 190.809 387.82 191.165 386.948 191.576C386.608 190.6 386.817 189.244 386.85 188.206C386.718 186.654 386.448 183.408 385.402 182.197Z" fill="#55B0E6"/>
<path d="M395.181 182.366C396.359 181.261 398.047 180.459 399.728 180.418C400.974 180.388 402.52 181.06 403.385 181.9C404.361 182.849 404.806 183.942 404.762 185.277C404.717 186.729 404.295 188.059 403.163 189.074C402.777 189.421 402.313 189.666 401.857 189.917C401.437 190.251 401.155 190.525 400.864 190.965C400.336 191.757 400.08 191.719 400.009 192.698C400.637 192.902 401.304 192.841 401.963 192.85C403.559 192.874 405.264 192.732 406.845 192.884L406.831 193.046L398.393 193.055C397.052 193.026 395.224 192.872 393.969 193.301L392.868 192.339L392.915 192.199C393.188 191.547 393.192 190.862 393.253 190.166C392.923 188.795 392.553 187.346 392.624 185.926C392.696 184.489 393.417 183.075 394.522 182.106L395.181 182.366Z" fill="#6DC3F2"/>
<path d="M393.253 190.166C392.923 188.796 392.553 187.347 392.624 185.927C392.696 184.489 393.417 183.076 394.522 182.106L395.181 182.366C394.5 183.437 393.721 184.51 393.993 185.839C394.295 187.309 395.462 188.582 396.766 189.326C398.129 190.102 400.096 190.335 401.643 189.982L401.857 189.917C401.437 190.252 401.155 190.526 400.864 190.966C400.336 191.757 400.08 191.719 400.009 192.698C400.637 192.902 401.304 192.841 401.963 192.851C403.559 192.874 405.264 192.733 406.845 192.885L406.831 193.047L398.393 193.056C397.052 193.027 395.224 192.873 393.969 193.302L392.868 192.339L392.915 192.2C393.188 191.547 393.192 190.862 393.253 190.166Z" fill="#27699B"/>
<path d="M393.25 190.165C394.369 190.645 395.532 191.754 396.491 192.532C396.996 192.943 397.751 192.97 398.39 193.054C397.049 193.025 395.221 192.872 393.966 193.301L392.865 192.338L392.913 192.198C393.186 191.546 393.189 190.861 393.25 190.165Z" fill="#3291CB"/>
<path d="M463.704 316.921C464.567 316.886 465.638 316.779 466.419 317.213C467.686 317.915 468.775 319.18 469.645 320.286C471.944 323.206 473.778 326.563 474.902 330.063C476.727 335.741 476.373 342.089 473.453 347.377C471.982 350.042 469.643 353.43 466.499 354.372C465.781 354.379 464.931 354.464 464.303 354.079L464.111 353.952C462.729 353.059 462.176 352.162 461.559 350.728C462.315 349.277 463.62 348.049 464.657 346.772C465.525 345.707 466.283 344.428 466.82 343.179C469.137 337.79 467.824 331.351 464.382 326.685C463.149 325.012 461.443 323.45 460.643 321.535C460.267 320.636 460.335 320.298 460.751 319.407C461.355 318.109 462.358 317.428 463.704 316.921Z" fill="#55B0E6"/>
<path d="M158.975 293.701L159.153 294.007L159.194 294.469L161.224 294.283C162.072 292.921 162.934 291.339 164.086 290.204C163.597 291.46 162.633 293.542 163.345 294.858C163.532 295.203 163.997 295.46 164.393 295.549C165.225 295.736 165.897 295.521 166.62 295.15L167.557 294.677C168.759 302.811 169.621 311.015 170.799 319.158C171.449 323.657 172.026 328.235 173.527 332.566H173.341C172.398 332.564 171.489 332.411 170.551 332.365C168.631 332.27 166.677 332.302 164.755 332.344C164.063 332.358 162.89 332.253 162.287 332.562L162.123 333.014L158.975 293.701Z" fill="#2A85BB"/>
<path d="M445.679 319.773L446.148 319.747C448.467 320.729 450.336 322.389 452.19 324.007C454.908 326.381 457.585 328.759 459.186 331.997C460.472 334.595 460.944 337.846 460.547 340.693C459.73 346.562 455.531 350.497 450.352 353.246C445.835 355.643 440.913 357.351 439.081 362.513C436.908 368.625 440.49 373.988 443.122 379.259C443.426 379.869 443.712 380.518 443.413 381.189C443.04 382.033 442.149 382.573 441.312 382.923L440.579 382.993C440.182 382.777 439.784 382.548 439.445 382.253C438.507 381.438 437.745 380.274 437.079 379.254C434.787 375.748 433.188 371.788 433.023 367.61C432.761 360.976 436.489 354.301 442.561 351.019C445.873 349.23 449.605 348.254 452.256 345.486C454.348 343.303 455.117 340.44 454.932 337.531C454.668 333.385 451.102 330.33 448.094 327.769C446.416 326.341 444.736 324.92 443.067 323.483C443.411 321.967 444.36 320.655 445.679 319.773Z" fill="#F6FAFB"/>
<path d="M431.909 193.207C435.59 193.204 439.281 192.998 442.967 192.964C444.573 192.948 446.434 192.814 448.004 193.155C449.178 193.411 450.433 194.15 451.263 194.965C452.406 196.087 453.181 197.821 453.093 199.398C452.989 201.272 452.06 203.145 450.653 204.451C449.968 204.793 449.243 205.186 448.486 205.357C446.508 205.802 443.333 205.696 441.318 205.424C439.502 205.179 437.359 205.381 435.509 205.389C432.42 205.402 429.222 205.263 426.15 205.517L413.57 205.54C408.976 205.59 404.376 205.661 399.789 205.924C398.364 206.006 396.94 206.151 395.521 206.3C394.777 206.378 393.971 206.538 393.229 206.437C393.134 205.797 392.787 205.181 392.525 204.587C394.685 204.315 396.845 203.768 398.866 202.988C401.372 202.021 403.731 200.492 404.81 198.043C406.461 197.741 408.619 198.242 410.297 198.441C411.24 198.552 412.295 198.559 413.2 198.814C415.913 198.863 418.632 198.847 421.345 198.844C422.491 198.843 424.246 199.02 425.261 198.479C426.327 198.919 427.458 199.027 428.608 198.88C429.546 198.76 430.398 198.134 430.958 197.423C431.906 196.225 432.136 194.67 431.909 193.207Z" fill="#6DC3F2"/>
<path d="M426.125 205.516C429.197 205.263 432.395 205.401 435.484 205.388C437.334 205.38 439.478 205.178 441.293 205.423C443.308 205.695 446.483 205.801 448.461 205.356C449.218 205.185 449.943 204.792 450.628 204.45C450.784 205.818 450.597 207.219 450.524 208.591C450.377 211.286 450.117 213.969 449.87 216.657C449.078 225.28 448.207 233.869 447.219 242.472C446.666 247.3 446.334 252.148 445.858 256.982C444.796 267.748 443.544 278.502 442.37 289.257C441.967 292.951 441.656 296.569 441.582 300.285C441.577 300.614 441.443 301.928 441.573 302.185C441.626 302.285 441.753 302.327 441.843 302.399L442.438 302.491L442.443 302.524C440.538 302.48 439.177 302.923 437.774 304.195C436.763 305.111 436.263 305.987 436.241 307.334C436.213 309.026 437.175 310.258 438.289 311.484C437.563 312.854 437.571 315.103 437.336 316.648C436.77 320.359 436.087 324.072 435.737 327.811C435.548 329.818 435.642 332.023 435.167 333.981C435.18 333.458 435.337 332.755 434.973 332.37L423.939 332.331C425.095 328.896 425.476 325.345 426.048 321.796C426.561 318.612 427.149 315.441 427.645 312.254C429.664 299.267 431.58 286.237 433.218 273.197L433.256 273.181L441.337 205.564L426.125 205.516Z" fill="#2A85BB"/>
<path d="M413.548 205.54L426.128 205.517L441.34 205.565L433.259 273.182L433.221 273.197L433.052 272.707C430.041 272.826 427.036 273.361 424.041 273.678C418.996 274.207 413.993 274.531 408.921 274.615C407.741 274.634 405.83 274.854 404.74 274.485L412.022 220.49L412.264 220.444L412.682 220.163C413.535 217.11 413.444 213.936 413.548 210.795V205.54Z" fill="#27699B"/>
<path d="M413.556 210.796C415.91 211.235 418.075 211.57 419.496 213.641C420.052 214.45 420.392 215.485 420.174 216.451C419.91 217.617 419.088 218.714 418.038 219.346C416.47 220.292 414.103 220.478 412.271 220.445L412.689 220.164C413.543 217.111 413.451 213.937 413.556 210.796Z" fill="#55B0E6"/>
<path d="M385.405 182.196C386.451 183.408 386.72 186.654 386.852 188.206C386.819 189.244 386.61 190.599 386.951 191.576C387.823 191.164 388.632 190.809 389.581 190.577C390.827 191.007 391.835 191.514 392.86 192.338L393.961 193.301C395.216 192.872 397.044 193.025 398.385 193.054L406.823 193.046L413.204 193.03L413.18 198.813C412.275 198.558 411.22 198.552 410.276 198.44C408.598 198.242 406.44 197.74 404.79 198.043C403.711 200.492 401.351 202.02 398.845 202.988C396.825 203.767 394.665 204.315 392.505 204.586C392.767 205.181 393.113 205.796 393.208 206.436C392.476 207.377 391.342 208.195 390.096 208.361C389.785 208.403 389.169 208.484 388.902 208.297C388.321 207.891 388.072 207.028 387.973 206.376C386.568 207.141 385.33 207.273 383.743 207.263C380.29 207.242 376.793 206.15 373.342 205.813C367.993 205.291 362.422 205.524 357.04 205.505C355.587 205.087 353.268 205.277 351.692 205.155C351.298 205.125 350.494 205.167 350.146 205.036C349.534 204.805 349.296 203.969 348.512 203.76C348.223 204.135 348.406 203.994 347.963 204.182L347.433 203.93C346.532 202.802 346.702 201.644 346.781 200.307L184.649 200.402L184.324 199.313C184.586 197.405 184.083 194.848 183.838 192.905C184.485 192.908 185.209 193.012 185.797 192.741C200.33 192.393 214.794 192.678 229.322 192.646C265.556 192.567 301.79 192.731 338.019 192.515C346.336 192.465 354.655 192.523 362.971 192.528C366.862 192.53 370.788 192.628 374.673 192.499C375.641 192.466 377.022 192.382 377.876 191.897C378.702 191.429 378.861 190.605 379.028 189.77C378.465 189.775 377.971 189.693 377.423 189.585C379.414 189.524 381.195 188.959 382.659 187.616C384.084 186.306 384.13 185.128 384.152 183.357L384.417 183.535L384.65 183.463C384.817 183.004 384.992 182.701 385.306 182.317L385.405 182.196Z" fill="#2A85BB"/>
<path d="M365.455 198.446C367.103 197.955 369.241 198.452 370.961 198.31L372.335 198.24C372.641 198.173 372.641 198.164 372.795 197.886C372.934 197.634 372.916 197.501 373.143 197.281C373.676 196.767 373.956 196.196 374.625 195.777L374.9 195.645L375.129 195.513L375.404 195.425C376.034 195.178 376.82 194.983 377.391 194.657C377.697 194.482 377.932 194.546 378.289 194.546L378.472 194.37C378.707 194.404 378.879 194.444 379.108 194.361C379.599 194.185 380.062 194.021 380.581 193.93C381.187 193.823 381.504 193.681 381.998 193.314C382.053 193.09 382.108 192.982 382.282 192.82C382.566 192.555 382.777 192.425 382.909 192.045L382.962 191.819C383.283 191.717 383.599 191.49 383.785 191.204L383.922 190.94L384.151 190.853L384.611 190.412C384.748 190.328 385.021 190.134 385.16 190.06C385.631 189.809 385.283 190.121 385.55 189.864C386.276 189.166 386.499 189.182 386.86 188.206C386.827 189.244 386.618 190.599 386.959 191.576L383.559 194.222C381.738 194.018 380.247 194.453 378.505 194.87C377.118 195.202 375.786 195.436 374.634 196.305C374.127 196.689 373.068 198.462 372.747 198.597C372.478 198.709 366.24 198.449 365.455 198.446Z" fill="#3291CB"/>
<path d="M365.456 198.447C366.242 198.45 372.48 198.709 372.749 198.597C373.07 198.463 374.128 196.689 374.636 196.306C375.788 195.437 377.12 195.202 378.507 194.87C380.249 194.454 381.74 194.019 383.561 194.223L383.744 194.545L386.071 194.966C383.771 195.642 375.711 196.831 374.676 198.849C374.486 199.221 374.359 199.633 374.535 200.025C375.178 201.464 377.433 202.224 378.884 202.686C380.824 203.304 383.046 203.471 384.905 204.255C385.984 204.71 386.941 205.456 387.934 206.062L387.983 206.377C386.578 207.142 385.34 207.273 383.753 207.264C380.3 207.243 376.803 206.151 373.352 205.814C368.003 205.292 362.432 205.525 357.05 205.506C355.597 205.088 353.278 205.278 351.702 205.156C351.309 205.125 350.504 205.168 350.156 205.036C349.544 204.806 349.306 203.969 348.522 203.761C348.233 204.136 348.416 203.995 347.973 204.183L347.443 203.931C346.542 202.802 346.712 201.645 346.791 200.308C346.916 199.989 347.005 199.726 347.251 199.472C348.691 197.975 354.617 198.5 356.639 198.487C359.58 198.468 362.518 198.452 365.456 198.447Z" fill="#6DC3F2"/>
<path d="M386.965 191.576C387.837 191.164 388.646 190.809 389.595 190.577C390.841 191.007 391.849 191.515 392.874 192.338L393.975 193.301C395.23 192.872 397.058 193.026 398.399 193.055L406.837 193.046L413.218 193.03L413.194 198.814C412.289 198.558 411.234 198.552 410.29 198.441C408.612 198.242 406.454 197.741 404.804 198.043C403.725 200.492 401.365 202.021 398.859 202.988C396.839 203.768 394.679 204.315 392.519 204.586C392.781 205.181 393.127 205.796 393.222 206.436C392.49 207.377 391.356 208.195 390.11 208.361C389.799 208.403 389.183 208.484 388.916 208.297C388.335 207.891 388.086 207.028 387.987 206.377L387.937 206.062C386.945 205.456 385.988 204.709 384.909 204.254C383.05 203.47 380.828 203.304 378.888 202.686C377.437 202.224 375.182 201.464 374.539 200.024C374.363 199.632 374.49 199.22 374.68 198.849C375.715 196.831 383.775 195.642 386.074 194.965L383.748 194.544L383.565 194.222L386.965 191.576Z" fill="#F6FAFB"/>
<path d="M406.832 193.047L413.213 193.031L413.189 198.814C412.284 198.559 411.229 198.553 410.286 198.441C408.608 198.243 406.45 197.741 404.799 198.043C401.63 196.944 398.201 196.559 394.898 195.988C394.68 195.11 394.473 194.295 394.062 193.478L393.971 193.301C395.226 192.873 397.054 193.026 398.395 193.055L406.832 193.047Z" fill="#55B0E6"/>
<path d="M153.479 235.881L149.971 198.093C150.014 196.598 151.07 195.035 152.174 194.033C152.76 193.501 153.457 193.147 154.258 193.034C158.098 192.496 162.392 192.829 166.275 192.813C172.783 192.785 179.296 192.617 185.802 192.742C185.214 193.013 184.491 192.909 183.843 192.906C184.088 194.849 184.592 197.406 184.329 199.314L185.988 216.576L192.711 273.3L192.532 273.7L187.145 273.784L187.131 273.914L174.448 273.855L173.791 274.044L175.788 289.914C173.977 289.969 172.165 290.018 170.353 290.064C169.607 290.083 168.661 289.937 168.087 290.396L167.998 290.63L167.555 294.677L166.617 295.151C165.894 295.522 165.223 295.736 164.391 295.55C163.995 295.46 163.53 295.203 163.343 294.859C162.631 293.543 163.595 291.46 164.083 290.205C162.932 291.339 162.07 292.922 161.222 294.283L159.192 294.47L159.151 294.007L158.972 293.701L158.609 287.728L153.479 235.881Z" fill="#1C73A9"/>
<path d="M153.475 235.88L153.57 234.997C154.745 234.602 156.237 234.386 157.422 234.821C157.846 235.579 157.941 236.754 158.104 237.607C158.899 241.783 159.152 246.084 159.588 250.307C160.167 255.898 160.78 261.498 161.419 267.084C162.227 274.147 163.054 281.292 164.389 288.283C164.516 288.89 164.601 289.498 164.911 290.049C165.753 290.364 166.855 290.598 167.76 290.511L167.994 290.629L167.551 294.676L166.613 295.15C165.89 295.521 165.219 295.735 164.387 295.549C163.991 295.459 163.525 295.202 163.338 294.858C162.627 293.542 163.591 291.459 164.079 290.204C162.927 291.338 162.065 292.921 161.217 294.282L159.187 294.469L159.147 294.006L158.968 293.7L158.605 287.727L153.475 235.88Z" fill="#6DC3F2"/>
<path d="M158.615 287.728L158.824 287.946C158.83 288.338 158.777 288.389 159.013 288.73C159.013 289.23 158.904 289.715 159.196 290.137L159.123 291.265C159.1 291.49 159.13 291.671 159.151 291.896L159.166 292.128C159.205 292.496 159.17 292.198 159.379 292.6L159.473 292.865C160.039 292.907 160.359 292.911 160.848 293.215L161.03 293.041L161.213 293.393L161.443 293.303C161.382 292.849 161.476 293.066 161.276 292.809C161.089 292.57 161.001 292.322 160.846 292.072L160.71 291.896L160.572 291.632L160.389 291.368L160.205 290.929C160.008 290.466 159.896 290.258 159.518 289.917V289.259L159.839 289.172C160.088 289.363 160.266 289.4 160.327 289.71C160.45 290.331 160.711 290.665 161.028 291.192L161.16 291.451C161.345 291.806 161.235 291.629 161.449 291.901C161.609 292.107 161.652 292.267 161.717 292.513C162.18 292.158 161.763 292.543 162.038 292.074L162.39 291.646C162.599 291.382 162.408 291.611 162.588 291.194C162.721 290.883 162.805 290.809 163.091 290.665L164.235 289.873C164.347 289.34 164.377 288.827 164.399 288.283C164.526 288.89 164.611 289.499 164.921 290.049C165.763 290.364 166.865 290.598 167.771 290.512L168.004 290.63L167.561 294.677L166.624 295.15C165.901 295.521 165.229 295.736 164.397 295.549C164.001 295.459 163.536 295.203 163.349 294.858C162.637 293.542 163.601 291.46 164.09 290.204C162.938 291.338 162.076 292.921 161.228 294.283L159.198 294.469L159.157 294.007L158.979 293.701L158.615 287.728Z" fill="#55B0E6"/>
<path d="M178.942 199.106C178.794 198.603 178.879 197.79 178.865 197.247C178.827 195.79 178.789 194.333 178.752 192.876L183.846 192.905C184.091 194.848 184.594 197.406 184.332 199.313L185.99 216.576L192.713 273.3L192.534 273.699L187.148 273.784L187.133 273.914L174.451 273.854L173.941 273.75C173.629 273.249 173.62 272.575 173.547 272.002C173.397 270.82 173.245 269.64 173.082 268.46C172.171 261.827 171.443 255.195 170.611 248.558C169.563 240.191 168.135 231.853 167.392 223.452C167.023 219.271 166.912 215.087 166.759 210.895C166.694 209.112 166.361 206.874 166.696 205.131L166.741 204.922C166.996 203.676 167.736 202.507 168.856 201.803C169.857 201.173 171.348 200.604 172.56 200.812C173.509 200.753 174.467 200.676 175.418 200.672C176.32 200.668 178.123 200.893 178.874 200.437L178.942 199.106Z" fill="#3291CB"/>
<path d="M178.945 199.106C179.181 200.753 179.651 207.326 180.551 208.176L179.714 208.499C179.2 209.373 179.038 210.271 179.313 211.254C179.835 213.122 180.385 214.395 180.352 216.385C178.452 216.713 175.922 216.692 174.163 215.831C172.909 215.217 171.785 213.961 171.359 212.666L171.3 212.485L171.146 212.073C170.615 210.363 171.248 207.152 172.08 205.617L172.39 204.996C172.693 204.233 173.552 203.001 174.311 202.548L174.585 202.461C174.871 202.287 174.981 202.043 175.324 201.878L175.592 201.758C175.868 201.601 175.926 201.495 176.257 201.389L176.509 201.317L176.602 201.053C175.695 200.906 174.685 200.983 173.761 201.008C173.429 201.017 173.223 201.001 172.903 200.911L172.563 200.813C173.512 200.754 174.47 200.677 175.421 200.673C176.323 200.669 178.126 200.893 178.877 200.437L178.945 199.106Z" fill="#55B0E6"/>
<path d="M178.942 199.106C178.794 198.603 178.879 197.79 178.865 197.247C178.827 195.79 178.789 194.333 178.752 192.876L183.846 192.905C184.091 194.848 184.594 197.406 184.332 199.313L185.99 216.576L192.713 273.3L192.534 273.699L187.148 273.784L180.349 216.385C180.381 214.394 179.832 213.121 179.31 211.253C179.035 210.27 179.197 209.373 179.711 208.499L180.548 208.175C179.648 207.325 179.178 200.753 178.942 199.106Z" fill="#6DC3F2"/>
<path d="M423.955 332.332L434.989 332.371C435.353 332.756 435.196 333.46 435.183 333.982C434.879 336.525 434.646 339.123 433.921 341.594C432.666 345.863 429.491 349.954 425.897 352.687C423.092 354.821 419.476 356.471 415.9 356.863C413.437 357.132 410.868 357.018 408.392 356.995C404.878 356.961 401.364 356.951 397.849 356.947C385.718 356.939 373.587 356.97 361.457 357.056C333.434 357.257 305.386 357.192 277.363 356.979C269.241 356.917 261.123 356.986 253.002 356.949C249.325 356.931 245.571 357.053 241.904 356.838L213.974 356.931C206.643 357.042 199.299 356.909 191.966 356.91C188.124 356.91 183.899 357.473 180.118 356.71C177.023 356.085 173.827 354.483 171.368 352.605C167.367 349.55 164.069 345.028 162.974 340.177C162.465 337.92 162.396 335.328 162.127 333.015L162.291 332.563C162.894 332.253 164.067 332.359 164.759 332.345C166.681 332.302 168.635 332.271 170.555 332.366C171.493 332.412 172.402 332.565 173.345 332.566H173.531C176.255 337.797 181.622 342.345 187.414 344.178C189.027 344.688 190.664 345.042 192.359 345.16C195.79 345.397 199.256 345.314 202.694 345.314C207.772 345.314 212.85 345.307 217.928 345.302C220.791 345.3 223.654 345.304 226.517 345.306C228.16 345.306 229.953 345.432 231.575 345.189C233.163 345.24 235.349 345.585 236.865 345.188L237.041 345.27C237.962 345.506 239.366 345.33 240.333 345.323C242.735 345.309 245.136 345.291 247.538 345.283C255.93 345.255 264.327 345.302 272.72 345.325C292.017 345.376 311.312 345.369 330.609 345.395C344.99 345.415 359.363 345.538 373.743 345.39C383.577 345.29 393.471 345.566 403.293 345.198C406.124 345.093 408.714 344.621 411.357 343.629C416.545 341.684 421.717 337.284 423.955 332.332Z" fill="url(#paint0_linear_122_130534)"/>
<path d="M213.968 356.931C211.628 356.56 208.857 356.816 206.475 356.809C200.897 356.795 195.319 356.797 189.74 356.801C189.893 355.685 190.099 353.774 191.012 352.965C191.589 352.454 192.666 352.345 193.425 352.277C197.148 351.944 201.037 352.078 204.78 352.027C213.081 351.914 221.373 351.944 229.674 352.015C239.576 352.097 249.754 351.572 259.601 352.666C259.752 354.043 259.649 355.476 259.573 356.859L241.898 356.837L213.968 356.931Z" fill="#D8F1F9"/>
<path d="M192.709 273.3L192.894 274.097L193.039 273.827C195.017 273.484 197.364 273.715 199.379 273.713C203.913 273.711 208.446 273.729 212.98 273.743C221.098 273.769 229.207 273.639 237.325 273.736C240.137 273.768 243.479 273.474 246.212 274.079C246.585 277.224 247.681 280.289 249.304 283.04C253.767 290.603 262.947 297.742 260.789 307.398C260.321 309.491 259.503 311.47 258.087 313.146C254.911 316.907 248.968 318.954 244.678 321.339C243.166 322.178 241.839 323.23 240.397 324.164C236.23 327.456 231.585 331.528 231.008 337.008C230.722 339.726 230.876 342.538 231.567 345.189C229.945 345.432 228.151 345.305 226.508 345.305C223.645 345.303 220.783 345.3 217.92 345.301C212.842 345.307 207.764 345.314 202.686 345.314C199.248 345.314 195.782 345.396 192.351 345.159C190.656 345.041 189.019 344.688 187.406 344.177C181.614 342.345 176.247 337.796 173.523 332.566C172.021 328.235 171.445 323.657 170.794 319.158C169.617 311.015 168.754 302.811 167.553 294.677L167.996 290.63L168.085 290.396C168.659 289.937 169.605 290.083 170.351 290.063C172.163 290.018 173.975 289.968 175.786 289.914L173.789 274.044L174.446 273.854L187.129 273.914L187.143 273.783L192.53 273.699L192.709 273.3Z" fill="#27699B"/>
<path d="M192.711 273.3L192.896 274.097C193.106 277 193.558 279.88 193.909 282.769C194.857 290.573 196.044 298.347 197.069 306.143C197.419 308.805 198.079 311.549 198.262 314.21C198.303 314.808 198.177 315.433 197.892 315.967C197.46 316.778 196.709 317.598 195.771 317.856C195.153 318.027 194.161 318.002 193.616 317.635C193.013 317.229 192.553 316.344 192.372 315.674C191.769 313.438 191.566 310.995 191.32 308.702C191.056 306.236 190.724 303.775 190.45 301.311C189.956 296.868 189.283 292.454 188.766 288.018C188.218 283.322 187.839 278.59 187.131 273.914L187.146 273.783L192.532 273.699L192.711 273.3Z" fill="#55B0E6"/>
<path d="M175.786 289.915L175.88 290.161C176.316 291.361 176.342 292.937 176.55 294.207C177.402 299.418 178.149 304.645 179.018 309.857C179.542 313 179.872 316.862 181.293 319.764C181.895 320.994 182.888 322.1 184.17 322.712C185.014 323.115 186.162 323.426 187.094 323.532C188.747 323.716 190.557 323.584 192.224 323.6C196.207 323.641 200.186 323.653 204.169 323.627C212.946 323.569 221.708 323.692 230.483 323.716C232.378 323.722 234.274 323.725 236.169 323.732C237.485 323.737 239.221 323.533 240.397 324.165C236.23 327.457 231.585 331.529 231.008 337.01C230.722 339.727 230.876 342.539 231.567 345.19C229.945 345.433 228.151 345.306 226.508 345.306C223.645 345.304 220.783 345.301 217.92 345.303C212.842 345.308 207.764 345.315 202.686 345.315C199.248 345.315 195.782 345.398 192.351 345.16C190.656 345.042 189.019 344.689 187.406 344.179C181.614 342.346 176.247 337.798 173.523 332.567C172.021 328.237 171.445 323.658 170.794 319.159C169.617 311.016 168.754 302.813 167.553 294.678L167.996 290.631L168.085 290.397C168.659 289.938 169.605 290.084 170.351 290.065C172.163 290.019 173.975 289.97 175.786 289.915Z" fill="#003660"/>
<path d="M404.746 274.486C405.836 274.856 407.746 274.636 408.926 274.616C413.999 274.532 419.002 274.208 424.047 273.679C427.042 273.362 430.046 272.828 433.058 272.708L433.226 273.199C431.589 286.239 429.672 299.268 427.654 312.255C427.157 315.442 426.569 318.614 426.056 321.797C425.485 325.346 425.104 328.898 423.948 332.333C421.709 337.284 416.538 341.684 411.35 343.63C408.706 344.622 406.116 345.093 403.286 345.199C393.463 345.566 383.569 345.29 373.736 345.39C359.355 345.538 344.982 345.415 330.602 345.396C311.305 345.369 292.01 345.376 272.712 345.325C264.319 345.302 255.923 345.255 247.53 345.283C245.129 345.292 242.727 345.309 240.325 345.323C239.359 345.33 237.955 345.506 237.034 345.271L236.858 345.188C236.316 342.471 235.707 339.034 236.632 336.341C238.9 329.742 247.159 325.834 253.204 322.962L253.811 323.317C257.971 323.268 262.118 323.611 266.283 323.6C288.353 323.551 310.429 323.551 332.498 323.609C338.724 323.626 344.949 323.584 351.174 323.625C355.754 323.656 360.498 324.02 365.038 323.333C372.307 322.23 379.409 319.381 385.463 315.381C395.464 308.775 400.912 298.744 402.919 287.484C403.689 283.175 403.929 278.788 404.746 274.486Z" fill="#003660"/>
<path d="M184.33 199.313L184.656 200.403L346.787 200.307C346.708 201.644 346.538 202.802 347.439 203.931L347.969 204.183C348.412 203.995 348.229 204.136 348.518 203.761C349.302 203.969 349.541 204.805 350.152 205.036C350.5 205.168 351.305 205.125 351.699 205.156C353.274 205.278 355.593 205.088 357.046 205.506C362.428 205.525 367.999 205.292 373.348 205.814C376.799 206.151 380.296 207.242 383.749 207.263C385.336 207.273 386.574 207.141 387.979 206.377C388.078 207.028 388.327 207.891 388.908 208.297C389.175 208.484 389.791 208.403 390.102 208.362C391.348 208.195 392.482 207.377 393.215 206.437C393.957 206.538 394.763 206.378 395.506 206.3C396.926 206.151 398.349 206.006 399.775 205.924C404.362 205.661 408.962 205.59 413.556 205.54V210.796C413.452 213.936 413.543 217.111 412.69 220.164L412.272 220.445L412.03 220.491L404.748 274.485C403.931 278.788 403.691 283.174 402.922 287.483C400.914 298.743 395.466 308.774 385.466 315.38C379.411 319.38 372.309 322.229 365.04 323.332C360.501 324.02 355.756 323.656 351.176 323.624C344.952 323.583 338.727 323.626 332.5 323.608C310.431 323.55 288.355 323.55 266.285 323.599C262.121 323.61 257.973 323.267 253.813 323.316L253.207 322.961C247.161 325.833 238.903 329.741 236.635 336.34C235.71 339.033 236.319 342.47 236.86 345.187C235.344 345.585 233.158 345.24 231.57 345.189C230.879 342.538 230.725 339.726 231.011 337.009C231.588 331.528 236.233 327.456 240.4 324.164C241.842 323.23 243.169 322.178 244.681 321.339C248.972 318.954 254.915 316.907 258.09 313.146C259.506 311.47 260.324 309.492 260.792 307.399C262.95 297.743 253.77 290.603 249.307 283.04C247.684 280.29 246.588 277.224 246.215 274.079C243.482 273.474 240.14 273.768 237.329 273.736C229.21 273.639 221.101 273.77 212.983 273.743C208.45 273.729 203.916 273.712 199.382 273.713C197.367 273.715 195.02 273.485 193.042 273.828L192.897 274.097L192.712 273.3L185.988 216.576L184.33 199.313Z" fill="#3291CB"/>
<path d="M376.612 211.374C377.433 211.258 378.217 211.242 379.031 211.416C380.74 211.783 382.176 212.7 383.072 214.163C383.513 214.885 383.392 216.199 383.152 216.969C382.583 218.785 381.392 220.048 379.688 220.953L378.005 221.063C376.512 221.08 375.819 220.829 374.749 219.775C373.954 218.99 372.694 216.862 372.861 215.682L372.934 215.421C373.055 214.949 373.157 214.497 373.372 214.052C374.073 212.597 375.07 211.906 376.612 211.374Z" fill="#6DC3F2"/>
<path d="M283.294 227.962L284.035 227.999C285.078 228.547 285.613 229.396 286.164 230.372C288.673 234.815 289.332 240.411 287.772 245.247C286.697 248.578 284.05 253.699 280.719 255.4C280.187 255.543 279.848 255.515 279.351 255.283C278.488 254.88 277.857 254.185 277.604 253.289C277.554 253.112 277.509 252.803 277.538 252.625C277.633 252.045 278.444 251.21 278.812 250.743C279.798 249.491 280.808 248.225 281.56 246.826C284.251 241.824 282.532 235.76 280.91 230.706C281.476 229.559 281.962 228.431 283.294 227.962Z" fill="#D8F1F9"/>
<path d="M412.032 220.492L399.202 220.416L399.126 221.112C398.899 222.996 398.046 224.946 396.424 226.107C395.399 226.842 394.389 227.06 393.127 226.851C391.57 226.593 390.172 225.684 389.313 224.422C388.496 223.221 388.395 221.82 388.71 220.444C389.335 217.706 392.129 214.15 394.609 212.696C396.124 211.807 397.853 211.247 399.603 210.974C402.667 210.496 406.249 210.652 409.356 210.647C410.691 210.644 412.257 210.492 413.558 210.796C413.454 213.937 413.545 217.111 412.692 220.165L412.274 220.446L412.032 220.492Z" fill="#6DC3F2"/>
<path d="M246.205 274.079C246.13 268.233 247.184 263.229 251.578 258.918C254.038 256.506 257.003 254.553 259.952 252.735C262.632 251.084 265.812 249.526 267.846 247.124C268.762 246.042 269.491 244.635 269.762 243.271C270.126 241.441 269.233 237.953 272.095 237.875C273.076 237.848 273.736 238.279 274.384 238.946C275.355 239.946 275.669 241.269 275.616 242.613C275.475 246.214 272.888 249.641 270.179 251.945C263.518 257.609 252.298 260.941 251.591 270.755C251.489 272.176 251.451 273.765 251.847 275.145C254.421 285.202 265.329 291.478 266.473 301.922C267.069 307.364 265.837 311.845 262.271 316.167C259.769 319.199 256.561 320.953 253.197 322.961C247.151 325.833 238.893 329.741 236.625 336.341C235.7 339.033 236.309 342.47 236.85 345.188C235.334 345.585 233.148 345.24 231.56 345.189C230.869 342.539 230.715 339.726 231.002 337.009C231.578 331.528 236.223 327.457 240.391 324.164C241.832 323.23 243.159 322.178 244.671 321.339C248.962 318.954 254.905 316.907 258.08 313.147C259.496 311.471 260.314 309.492 260.782 307.399C262.94 297.743 253.76 290.604 249.297 283.041C247.674 280.29 246.578 277.224 246.205 274.079Z" fill="#D8F1F9"/>
<path d="M184.33 199.313L184.656 200.403L346.787 200.307C346.708 201.644 346.538 202.802 347.439 203.931L347.969 204.183C348.412 203.995 348.229 204.136 348.518 203.761C349.302 203.969 349.541 204.805 350.152 205.036C350.5 205.168 351.305 205.125 351.699 205.156C353.274 205.278 355.593 205.088 357.046 205.506L353.397 205.471C353.475 208.392 353.924 212.196 351.638 214.457C350.762 215.324 349.716 215.907 348.518 216.273L348.244 216.359C346.163 216.962 343.292 216.651 341.108 216.648C337.338 216.642 333.568 216.635 329.8 216.641C316.775 216.663 303.747 216.756 290.725 216.707C284.706 216.684 278.688 216.523 272.67 216.51C266.995 216.497 261.315 216.672 255.638 216.693C240.516 216.748 225.394 216.719 210.272 216.699C202.19 216.689 194.067 216.803 185.988 216.576L184.33 199.313Z" fill="#55B0E6"/>
<path d="M269.342 274.907C270.766 272.166 272.342 269.568 274.32 267.155C274.867 266.487 275.674 265.433 276.514 265.131C277.139 264.908 278.03 265.15 278.596 265.453C279.659 266.021 280.382 266.809 281.075 267.748C280.074 269.141 278.803 270.181 277.669 271.449C276.618 272.624 275.721 274.057 275.059 275.466L404.76 274.484C403.943 278.787 403.703 283.173 402.934 287.482C400.926 298.742 395.478 308.773 385.478 315.379C379.423 319.379 372.321 322.228 365.052 323.331C360.513 324.019 355.768 323.655 351.188 323.623C344.964 323.582 338.739 323.625 332.512 323.607C310.443 323.549 288.367 323.549 266.297 323.598C262.132 323.609 257.985 323.266 253.825 323.315L253.219 322.96C256.583 320.951 259.79 319.198 262.293 316.165C265.858 311.844 267.091 307.362 266.495 301.921C265.351 291.477 254.443 285.201 251.869 275.144L251.971 274.965L252.081 274.641C255.317 274.409 258.624 274.499 261.869 274.5C264.179 274.5 267.154 274.185 269.342 274.907Z" fill="#27699B"/>
<path d="M269.342 274.907C270.766 272.166 272.342 269.568 274.32 267.155C274.867 266.487 275.674 265.433 276.514 265.131C277.139 264.908 278.03 265.15 278.596 265.453C279.659 266.021 280.382 266.809 281.075 267.748C280.074 269.141 278.803 270.181 277.669 271.449C276.618 272.624 275.721 274.057 275.059 275.466C273.665 278.359 273.132 281.643 273.537 284.809L273.581 285.124C273.853 287.203 274.804 289.141 275.59 291.076C277.568 295.946 278.888 301.243 277.842 306.494C276.984 310.799 274.562 314.79 271.929 318.308C271.044 319.49 270.007 320.928 268.694 321.715C268.171 322.028 267.653 322.061 267.064 321.894C266.105 321.623 265.143 320.77 264.733 319.905C264.522 319.46 264.497 319.008 264.756 318.577C265.331 317.618 266.491 316.704 267.227 315.817C269.863 312.641 272.354 308.256 272.678 304.123C272.797 302.615 272.825 300.783 272.567 299.295C271.968 295.831 270.309 292.685 269.218 289.368C267.681 284.691 267.68 279.548 269.342 274.907Z" fill="#D8F1F9"/>
<defs>
<linearGradient id="paint0_linear_122_130534" x1="162.678" y1="332.79" x2="163.22" y2="361.322" gradientUnits="userSpaceOnUse">
<stop stop-color="#16AAF2"/>
<stop offset="1" stop-color="#4AD3FE"/>
</linearGradient>
</defs>
</svg>
