<svg width="37" height="37" viewBox="0 0 37 37" fill="none" xmlns="http://www.w3.org/2000/svg">
<path d="M32.043 0.12207H4.48047C2.15425 0.12207 0.261719 2.0146 0.261719 4.34082V31.9033C0.261719 34.2295 2.15425 36.1221 4.48047 36.1221H32.043C34.3692 36.1221 36.2617 34.2295 36.2617 31.9033V4.34082C36.2617 2.0146 34.3692 0.12207 32.043 0.12207ZM33.4492 31.9033C33.4492 32.6787 32.8184 33.3096 32.043 33.3096H24.0273V21.8486H28.372L29.0898 17.4893H24.0273V14.4658C24.0273 13.2723 24.9432 12.3564 26.1367 12.3564H29.0195V7.99707H26.1367C22.5562 7.99707 19.6695 10.8975 19.6695 14.4781V17.4893H15.4492V21.8486H19.6695V33.3096H4.48047C3.70506 33.3096 3.07422 32.6787 3.07422 31.9033V4.34082C3.07422 3.56541 3.70506 2.93457 4.48047 2.93457H32.043C32.8184 2.93457 33.4492 3.56541 33.4492 4.34082V31.9033Z" fill="white"/>
</svg>
