<svg width="368" height="217" viewBox="0 0 368 217" fill="none" xmlns="http://www.w3.org/2000/svg">
<path d="M0.0976562 20.1313C0.0976562 9.08565 9.05196 0.131348 20.0977 0.131348H347.098C358.143 0.131348 367.098 9.08565 367.098 20.1313V216.131H0.0976562V20.1313Z" fill="#00371B"/>
<path d="M281.035 70.6321L281.618 71.1468C281.925 71.5885 282.345 72.0473 282.383 72.5987L282.398 72.7163C282.471 73.2425 282.976 73.9844 282.799 74.4144L281.931 74.5113C281.881 75.298 282.492 75.3586 282.322 76.1299C281.826 76.4218 281.504 76.4785 281.24 77.0155C280.802 77.5926 280.625 77.6689 279.976 77.9267C280.073 77.5199 280.539 77.3353 280.796 76.9053C280.819 76.5435 280.731 76.1945 280.607 75.8564L280.224 75.761L279.717 76.2841L279.69 75.8486C279.789 75.6563 280.18 75.4256 280.359 75.2843C280.409 74.5372 279.803 73.7578 279.427 73.1269L278.5 71.8988L281.035 70.6321Z" fill="#78F2B0"/>
<path d="M281.035 70.6321L281.618 71.1468C281.925 71.5885 282.345 72.0473 282.383 72.5987C281.675 72.42 280.777 72.2108 280.102 72.6059C279.856 72.7493 279.639 72.9383 279.427 73.1269L278.5 71.8988L281.035 70.6321Z" fill="#AEF9D6"/>
<path d="M97.6469 50.5021C98.8488 51.7472 100.173 52.7061 100.164 54.5772C100.162 55.1256 100.044 55.6776 99.9364 56.2133C99.7195 56.3973 99.7075 56.4732 99.414 56.4923C98.8434 56.5298 98.474 56.56 98.0239 56.9567L97.0511 56.1316C97.03 54.5369 96.7298 53.1611 97.037 51.5662L97.6469 50.5021Z" fill="#41EEA4"/>
<path d="M281.24 77.0155C281.908 78.4273 281.694 80.8307 281.393 82.3405L281.276 82.9044L281.143 83.5075C280.964 83.8854 280.851 83.9272 280.51 84.1517C279.373 84.1275 278.429 84.2314 277.54 83.4796L277.802 82.2507L277.521 82.4771C277.241 82.4698 277.062 82.4702 276.82 82.3125C275.528 81.473 274.157 81.6675 272.66 81.6402C273.289 81.3111 274.417 81.4535 275.137 81.456C275.088 80.5284 274.924 79.4583 275.019 78.5414C275.046 78.2727 275.065 78.2475 275.265 78.0903L275.837 78.4676C276.379 78.7138 276.589 78.5227 277.083 78.2814C278.286 78.5389 278.885 78.5694 279.976 77.9267C280.624 77.6689 280.802 77.5926 281.24 77.0155Z" fill="#009B64"/>
<path d="M277.801 82.2507L278.126 81.6993C279.05 81.6341 280.26 81.969 280.988 82.5659C281.11 82.6643 281.188 82.778 281.276 82.9044L281.143 83.5075C280.963 83.8854 280.851 83.9272 280.509 84.1517C279.373 84.1275 278.429 84.2314 277.54 83.4796L277.801 82.2507Z" fill="#78F2B0"/>
<path d="M280.123 107.116C280.582 107.134 280.832 107.326 281.273 107.324L281.389 107.133C281.448 107.885 281.458 108.697 281.639 109.429L281.688 118.951C280.764 118.673 279.797 118.38 278.835 118.275C277.968 118.18 277.001 118.228 276.158 118.019L276.084 117.936C275.397 117.869 274.888 117.589 274.203 117.607L274.342 117.564C275 117.335 275.925 115.951 276.511 115.451C277.295 114.781 278.359 114.447 279.081 113.731C279.469 113.349 279.701 112.732 279.921 112.239L280.058 111.908C280.336 110.938 280.325 109.482 279.89 108.611C280.1 108.089 280.121 107.666 280.123 107.116Z" fill="#009B64"/>
<path d="M279.597 100.017L281.666 99.9988L281.64 109.429C281.459 108.697 281.449 107.885 281.39 107.133L281.274 107.324C280.833 107.326 280.583 107.134 280.124 107.116C279.346 106.655 278.573 106.182 277.847 105.644C277.454 105.353 276.773 104.722 276.315 104.577C275.987 104.473 275.257 104.571 274.885 104.569C274.603 104.259 274.519 104.049 274.418 103.642C274.357 103.397 274.032 103.218 273.836 103.057C274.217 103.023 274.414 103.085 274.662 102.747C275.083 102.172 274.82 101.256 274.706 100.617C275.419 100.464 276.42 100.684 277.07 100.374C277.768 100.042 278.831 100.08 279.597 100.017Z" fill="#008455"/>
<path d="M280.922 131.666L281.597 132.307C281.624 135.012 282.212 138.625 280.169 140.707C278.422 142.488 275.569 142.999 273.212 143.384C273.323 142.251 273.858 141.368 273.982 140.316C273.662 139.969 273.485 139.732 273.378 139.267C273.78 138.776 274.261 138.787 274.865 138.641L274.391 139.363L274.884 139.613L275.743 139.296C276.206 138.806 276.238 138.219 276.41 137.594C276.948 135.636 277.104 134.079 277.062 132.061C278.3 132.118 279.797 132.235 280.922 131.666Z" fill="#008455"/>
<path d="M85.7074 83.9671C83.8805 83.142 81.9652 80.7439 81.2915 78.906C80.643 77.1366 80.9179 75.1774 81.7061 73.4984C82.7169 71.3455 84.3016 69.9144 86.526 69.1006C86.6591 69.6001 86.7949 70.0117 86.6354 70.5216C86.3537 71.422 86.488 72.5678 86.4892 73.5116C86.4911 75.3174 86.3898 77.1059 86.3556 78.9077C86.3241 80.5713 86.6537 82.5232 85.7074 83.9671Z" fill="#AEF9D6"/>
<path d="M266.465 136.165L266.447 135.272C266.958 134.931 267.792 135.033 268.4 135.141C268.644 135.185 268.867 135.316 269.068 135.456L269.226 135.381C269.966 135.041 270.651 135.044 271.452 135.045C271.913 135.525 271.656 137.157 272.325 137.17C272.912 137.182 273.336 136.914 273.835 136.645L274.503 136.723C274.781 137.13 275.014 138.051 274.902 138.542L274.865 138.641C274.261 138.787 273.78 138.776 273.378 139.267C273.485 139.732 273.662 139.969 273.982 140.316C273.858 141.368 273.322 142.251 273.212 143.384C272.388 143.579 271.328 143.466 270.477 143.473C268.913 143.487 267.231 143.628 265.685 143.389L264.428 139.805C264.306 139.299 264.165 138.707 264.474 138.25C264.737 137.856 265.24 137.475 265.706 137.384C266.026 137.322 266.156 137.265 266.423 137.074L266.465 136.165Z" fill="#EDF2F0"/>
<path d="M267.368 138.219C268.226 138.023 269.981 137.983 270.784 138.312C271.238 139.13 271.188 139.829 270.999 140.698C270.845 141.402 270.526 141.855 270.116 142.429L269.745 142.621L269.424 142.414L269.47 141.707L269.497 141.536L269.068 141.435C268.846 141.698 268.732 141.803 268.4 141.931L268.238 141.85C267.794 141.601 267.269 140.49 267.176 140.009C267.065 139.441 267.056 138.723 267.368 138.219Z" fill="#054B49"/>
<path d="M277.54 83.4797C278.429 84.2315 279.373 84.1275 280.51 84.1517C280.851 83.9273 280.964 83.8855 281.143 83.5075L281.463 83.8905L281.681 83.9053C282.339 83.9549 282.733 84.0203 283.241 84.4717C285.348 86.3449 286.044 88.8571 286.218 91.59L286.265 92.9816C285.379 93.1521 284.4 93.4515 283.506 93.524C282.388 93.0688 281.296 93.075 280.113 93.0979L280.603 92.6389L279.995 92.4331C279.209 92.7423 278.566 92.8822 277.724 92.9299L277.666 92.7468L277.592 92.4873L277.497 92.2291C277.235 91.2494 278.271 89.7212 278.772 88.8951C278.483 88.3946 277.613 88.0357 277.106 87.747C277.081 86.1742 277.066 85.0103 277.54 83.4797Z" fill="#68F3AD"/>
<path d="M278.773 88.895C279.317 88.541 279.637 88.5054 280.284 88.6127C280.875 88.7108 281.253 89.0405 281.613 89.4921C281.689 90.3509 281.775 91.0386 281.146 91.735C280.854 92.0575 280.391 92.2736 279.996 92.433C279.21 92.7422 278.568 92.8822 277.725 92.9298L277.667 92.7468L277.593 92.4872L277.498 92.229C277.236 91.2493 278.272 89.7211 278.773 88.895Z" fill="#EDF2F0"/>
<path d="M276.5 118.899C278.938 118.926 281.007 118.726 282.864 120.578C283.433 121.145 284.48 122.242 284.657 123.015C284.817 123.713 284.724 124.805 284.714 125.536C284.691 127.41 284.079 129.104 282.676 130.399C282.159 130.877 281.51 131.279 280.923 131.666C279.798 132.235 278.301 132.118 277.063 132.061L276.716 131.982C274.967 130.354 273.14 129.011 272.436 126.615C272.45 125.42 272.341 124.008 272.749 122.877C273.487 120.828 274.534 119.812 276.5 118.899Z" fill="#AEF9D6"/>
<path d="M104.311 36.7237C104.749 36.2651 105.163 35.7618 105.725 35.4555L106.611 35.7248C107.531 36.0274 108.326 36.2166 108.765 37.1721C108.864 37.3893 108.884 37.5714 108.896 37.8066L109.304 38.1605C110.04 38.348 110.486 38.9636 110.863 39.5884C111.127 40.0282 111.494 40.4737 111.329 40.9983C111.22 41.3484 110.869 41.6551 110.618 41.9135L110.775 42.3706L111.251 42.6148C111.349 42.8714 111.451 43.1573 111.461 43.4358C111.486 44.1647 111.194 44.9273 110.687 45.4426C110.157 45.981 109.501 45.8055 108.777 45.8187L108.504 46.1057L108.564 47.9823C107.9 48.1913 106.379 48.8416 105.751 48.6095C105.472 48.5065 105.351 48.0826 105.217 47.8221C104.663 47.6596 104.913 48.5929 104.362 48.7968C103.934 48.9553 102.256 48.9692 101.876 48.7424C101.333 48.4181 100.788 48.1615 100.367 47.6739L100.826 46.9639L100.656 46.6778L100.049 46.6305C99.0932 46.5121 98.8356 45.9695 98.2877 45.287C98.1694 45.1398 98.0314 44.99 97.9499 44.8171C97.7125 44.3125 97.7136 43.4392 97.9063 42.926C98.2804 42.7503 98.4748 42.65 98.6912 42.2915C98.2564 42.088 98.0211 41.9484 97.7756 41.5287C97.6723 40.8917 97.9206 40.3812 98.2648 39.8607C99.1217 38.565 101.359 35.9737 102.865 35.6952C103.493 35.8795 103.764 36.0915 104.184 36.5757L104.311 36.7237Z" fill="#68F3AD"/>
<path d="M104.311 36.7237C104.749 36.2651 105.163 35.7618 105.725 35.4555L106.611 35.7248C106.455 36.2822 106.328 36.8322 106.028 37.333C105.472 37.4509 105.259 37.3937 104.771 37.0788C104.604 36.9711 104.453 36.8629 104.311 36.7237Z" fill="#78F2B0"/>
<path d="M109.303 38.1605C110.039 38.348 110.485 38.9636 110.862 39.5884C111.127 40.0281 111.493 40.4736 111.329 40.9983C111.219 41.3484 110.868 41.6551 110.617 41.9135L110.774 42.3706L109.592 42.6172L109.443 42.6575L109.159 42.4822C109.212 41.4243 109.321 40.4862 109.485 39.4522C109.516 39.2552 109.526 39.1478 109.641 38.9749L109.731 38.8587C109.485 38.6188 109.408 38.4878 109.303 38.1605Z" fill="#41EEA4"/>
<path d="M104.285 39.8123C104.832 39.5999 105.564 39.6071 106.114 39.794L106.186 40.7592C106.25 41.9298 106.516 44.1624 105.724 45.0498L104.39 45.0669C103.695 44.6953 103.09 43.7875 102.593 43.1791C102.451 43.0054 102.318 42.9375 102.348 42.6968C102.497 41.5258 103.392 40.4985 104.285 39.8123Z" fill="#01C176"/>
<path d="M125.268 24.5654L125.262 21.3941L145.85 21.4094L145.867 25.3866L145.796 28.2614C140.919 28.45 135.978 28.285 131.095 28.2719C129.853 28.2684 127.051 28.5701 126.052 28.0264C125.89 27.9379 125.705 27.7323 125.559 27.6088C125.24 26.6312 125.286 25.5834 125.268 24.5654Z" fill="#08F290"/>
<path d="M262.671 29.7047C263.006 29.694 263.294 29.7758 263.599 29.9169C263.983 30.0941 264.845 30.802 264.957 31.2138L265.005 31.4211L265.074 31.6398L265.119 31.8025C266.308 32.1438 266.935 33.0835 267.551 34.091C268.278 35.2825 268.022 37.7265 267.948 39.1074C267.9 39.9967 266.699 40.4634 266.172 41.1209C265.346 42.1517 264.875 43.2918 263.773 44.1551C263.245 44.5684 262.703 44.3851 262.106 44.2942L261.685 43.8595C261.166 43.505 260.838 44.5127 260.169 44.6075C259.366 44.7214 257.863 44.4107 257.264 43.9125L257.403 43.2441L257.646 43.0305C257.333 42.5839 257.175 42.2528 256.671 42.0026L256.369 42.3869L256.702 43.2451L256.576 43.448L256.262 43.2914C255.457 42.8579 254.089 41.7812 253.59 41.0181C253.42 40.759 253.385 39.9629 253.281 39.6216C253.147 39.1847 252.863 38.8263 252.745 38.3711C252.212 36.315 253.252 33.8118 254.309 32.0927L257.338 32.0924C257.466 31.3671 257.288 30.8033 257.865 30.2366C258.523 29.5914 259.942 29.7535 260.771 29.8336C260.958 30.0783 261.13 30.3502 261.403 30.5043C261.467 30.5409 262.228 29.8801 262.671 29.7047Z" fill="#78F2B0"/>
<path d="M260.37 34.4723C261.108 34.2566 262.179 34.3633 262.961 34.3417L261.375 36.1887C261.497 36.7698 261.603 36.8821 262.002 37.333C262.378 37.3797 262.822 37.3994 263.15 37.6013C263.409 37.7617 263.404 38.0041 263.486 38.2865C263.346 39.1951 263.039 39.7584 262.298 40.3098C261.964 40.4532 261.607 40.4473 261.249 40.4581C259.548 40.5094 258.846 39.4495 257.689 38.3737C258.327 37.8077 259.382 37.0738 259.477 36.1866L259.517 35.8073C259.641 35.1358 259.832 34.8684 260.37 34.4723Z" fill="#01C176"/>
<path d="M92.0692 63.781C90.6591 63.7801 88.8088 63.7202 87.5114 63.153C87.0772 62.9631 86.7925 62.6391 86.5928 62.2206L87.1102 61.4578L86.922 61.1717C86.4145 61.1584 85.8204 61.1803 85.3271 61.063C84.7434 60.9242 83.9854 59.7086 83.7317 59.1941C83.4296 58.5815 83.1712 58.0048 83.39 57.3352L84.7461 56.9921L84.7163 56.7854L83.4112 56.5344C83.2898 56.3535 83.2103 56.2398 83.1684 56.0226C83.0026 55.1636 83.3099 53.9 83.79 53.1808C84.3746 52.3051 85.9295 49.8094 86.9393 49.6069C87.3585 49.9227 87.8234 50.2811 88.3696 50.2443L88.4265 49.9199C87.9165 49.4347 87.3739 49.034 86.8028 48.6259L87.2179 48.4211C88.0958 48.0095 90.517 46.9385 91.421 47.3464C91.7032 47.4736 91.7435 47.8922 92.1838 48.0553L92.7369 47.4406C93.4604 47.2642 94.1209 47.3338 94.8538 47.397L95.0882 47.6861C95.3479 48.0677 95.4141 48.4411 95.3389 48.8914C95.297 49.1437 95.2564 49.2846 95.3288 49.5384C96.4952 49.6246 96.8139 49.7526 97.6461 50.5021L97.0363 51.5663C96.729 53.1612 97.0292 54.5369 97.0504 56.1317L98.0232 56.9567C98.5831 57.2113 98.9666 57.311 99.5799 57.3541L99.841 57.739C99.3292 59.2065 99.0831 60.3519 97.5237 61.0438C97.2169 61.1798 96.836 61.1809 96.5061 61.1717C96.1544 61.626 96.5379 63.1324 96.4058 63.2419C96.1653 63.4408 93.9672 63.8142 93.5672 63.8548C93.0819 63.904 92.5538 63.8316 92.0692 63.781Z" fill="#78F2B0"/>
<path d="M91.1166 58.4613C91.9494 58.4537 92.7315 58.3232 93.5381 58.1249C93.3338 58.9343 93.1284 59.3506 92.5282 59.9345C92.4663 60.6691 92.5498 61.2361 92.0881 61.8231L91.5169 61.7997C91.0865 61.3084 90.9484 60.848 90.9799 60.1792C91.0056 59.6322 91.2581 58.9899 91.1166 58.4613Z" fill="#08F290"/>
<path d="M91.1172 58.4614C90.7478 58.2132 90.415 57.9529 90.1383 57.6026C89.5667 56.8796 89.4128 56.0447 89.5415 55.1457C89.6426 54.4414 89.9298 53.9896 90.5193 53.5847C91.3155 53.0379 92.2565 52.5278 93.2093 52.6874L93.2421 55.6686C93.7934 56.1162 94.3245 56.5369 94.9424 56.891C94.8839 57.3587 94.9489 57.602 94.5318 57.8831C94.2585 58.0672 93.8588 58.0879 93.5386 58.1249C92.7321 58.3233 91.95 58.4537 91.1172 58.4614Z" fill="#01C176"/>
<path d="M93.209 52.6875C93.3966 52.0364 93.837 51.1036 94.4454 50.7663C94.7905 50.5748 95.0533 50.2738 95.3304 49.9958C95.6962 50.193 96.2108 50.1169 96.6177 50.1096C96.8254 50.5813 96.9236 51.066 97.0361 51.5663C96.7289 53.1612 97.0291 54.537 97.0503 56.1317L96.6101 56.8087C96.0754 56.8528 95.4733 56.9607 94.9422 56.8911C94.3243 56.5369 93.7931 56.1162 93.2418 55.6686L93.209 52.6875Z" fill="#68F3AD"/>
<path d="M272.661 81.6403C274.158 81.6675 275.529 81.473 276.82 82.3125C277.062 82.4702 277.242 82.4698 277.522 82.4771L277.802 82.2507L277.541 83.4797C277.066 85.0103 277.081 86.1742 277.106 87.747C277.613 88.0357 278.483 88.3946 278.773 88.895C278.271 89.7212 277.236 91.2494 277.497 92.229L277.592 92.4873L277.667 92.7468L277.724 92.9299C278.567 92.8822 279.21 92.7422 279.995 92.4331L280.604 92.6389L280.114 93.0979C281.296 93.075 282.389 93.0687 283.506 93.524L284.961 95.1492C284.349 95.9942 283.449 97.4522 282.379 97.6273C282.194 97.6578 282.026 97.6513 281.84 97.6357L281.634 97.9065L281.666 99.9987L279.597 100.017C278.83 100.08 277.768 100.042 277.07 100.374C276.42 100.684 275.418 100.464 274.705 100.617C273.94 100.306 273.183 100.15 272.394 99.9267C271.915 99.7916 271.324 99.3963 271.267 98.8469C271.217 98.3493 271.606 98.3159 271.293 97.7667L268.999 97.6118C268.427 96.8803 267.439 95.4633 267.353 94.5187C267.315 94.1075 267.765 93.7412 268.019 93.4275L267.828 93.0966L266.474 93.0579L266.411 89.7637C267.168 89.0499 267.607 88.0822 268.475 87.4836C268.663 87.3526 268.635 87.2319 268.688 87.0129C268.427 86.6912 268.236 86.4763 268.171 86.0594L268.78 85.1423C269.491 84.2696 270.515 84.3523 271.528 84.2783L272.329 84.0569L272.512 83.6755C272.283 83.3788 272.029 83.0736 271.904 82.7153C271.741 82.2521 271.701 82.2154 271.905 81.7684L272.661 81.6403Z" fill="#41EEA4"/>
<path d="M274.116 87.7565L274.616 88.1747C273.353 89.708 272.953 91.058 272.39 92.9432C272.125 92.9571 272.077 92.9466 271.841 92.8295C271.784 92.3186 271.721 91.7978 271.81 91.2875C271.982 90.323 272.375 89.1464 273.203 88.5693C273.521 88.3473 273.748 88.1457 274.017 87.8637L274.116 87.7565Z" fill="#78F2B0"/>
<path d="M277.434 96.8889C278.472 96.9143 280.518 96.744 281.407 97.216L281.634 97.9066L281.666 99.9988L279.597 100.017L277.554 99.9883C277.045 99.1509 277.276 97.8322 277.434 96.8889Z" fill="#AEF9D6"/>
<path d="M280.113 93.0979C281.295 93.075 282.388 93.0687 283.506 93.524L284.961 95.1492C284.349 95.9942 283.449 97.4522 282.379 97.6273C282.194 97.6578 282.026 97.6513 281.839 97.6357L281.633 97.9065L281.406 97.2159C280.517 96.7439 278.471 96.9142 277.434 96.8888C277.933 94.8893 278.334 94.1695 280.113 93.0979Z" fill="#78F2B0"/>
<path d="M277.106 87.7469C277.613 88.0357 278.483 88.3946 278.773 88.895C278.271 89.7212 277.236 91.2493 277.497 92.229L277.592 92.4872L277.667 92.7468L277.724 92.9299L277.546 93.0521C276.005 93.1002 273.843 93.4097 272.39 92.9432C272.952 91.0581 273.353 89.708 274.615 88.1747C275.346 87.8793 276.318 87.8522 277.106 87.7469Z" fill="#18F8C2"/>
<path d="M272.66 81.6403C274.157 81.6675 275.528 81.473 276.82 82.3125C277.062 82.4702 277.241 82.4698 277.521 82.4771L277.802 82.2507L277.54 83.4797C277.066 85.0103 277.081 86.1742 277.106 87.747C276.318 87.8522 275.345 87.8793 274.615 88.1747L274.115 87.7565L274.003 87.4827C274.1 87.2822 274.184 87.0904 274.319 86.9124L274.396 86.8222L274.121 86.6109C274.007 86.3228 273.976 86.2653 274.026 85.964L273.455 85.4863C273.431 85.3593 273.433 85.3311 273.36 85.2012C272.786 84.1731 272.405 84.5856 271.527 84.2783L272.328 84.0569L272.511 83.6755C272.283 83.3788 272.029 83.0736 271.903 82.7153C271.741 82.2521 271.701 82.2154 271.905 81.7684L272.66 81.6403Z" fill="#08F290"/>
<path d="M113.826 56.4135L113.834 57.176C113.835 60.3124 113.836 63.4488 113.835 66.5852C113.835 67.8666 113.999 69.3911 113.802 70.6477C113.437 71.3041 113.262 72.0138 113.246 72.7642L112.933 72.2329L112.358 72.0601C110.983 71.7527 97.9046 71.6457 97.1332 72.1827C96.924 72.3284 96.8071 72.3803 96.5708 72.4646C96.3518 72.1427 96.2677 71.7681 96.054 71.4701C95.6699 70.9345 94.7802 70.4879 94.2195 70.1603C92.6088 68.7277 90.5592 68.6746 88.5459 68.6624C89.3373 68.461 90.0361 68.4523 90.8495 68.4822L90.9626 68.228L90.0981 67.4652L90.5634 67.1278C90.9204 67.3765 91.1907 67.6425 91.4779 67.9696L91.5788 68.0861C92.1021 67.9463 92.2083 67.5319 92.4837 67.0837C92.5275 66.6411 92.5815 66.2877 92.3599 65.8842C92.1938 65.5817 92.0824 65.3147 91.9773 64.9859C92.0984 64.541 92.2054 64.2319 92.0698 63.781C92.5544 63.8316 93.0825 63.904 93.5679 63.8548C93.9678 63.8142 96.1659 63.4408 96.4064 63.2419C96.5385 63.1324 96.155 61.626 96.5067 61.1717C96.8366 61.1809 97.2175 61.1797 97.5243 61.0438C99.0838 60.3519 99.3298 59.2065 99.8416 57.7389L99.5806 57.3541C99.9521 57.1628 101.386 57.3985 101.882 57.4008C103.571 57.4086 112.947 57.4548 113.726 56.9761L113.826 56.4135Z" fill="#005B38"/>
<path d="M88.5464 68.6624C90.5597 68.6746 92.6093 68.7276 94.22 70.1603C94.7807 70.4879 95.6704 70.9345 96.0545 71.47C96.2683 71.7681 96.3524 72.1427 96.5713 72.4646C96.8076 72.3803 96.9245 72.3284 97.1337 72.1827C97.9051 71.6457 110.984 71.7527 112.358 72.0601L112.933 72.2329L113.246 72.7642L113.232 92.8749L113.008 98.3714L92.5647 98.4162L87.126 98.4568L87.0959 86.1494C87.1293 85.4664 87.2082 84.8045 86.9525 84.1545L85.709 83.9671C86.6553 82.5232 86.3258 80.5713 86.3572 78.9077C86.3914 77.1059 86.4927 75.3174 86.4908 73.5116C86.4896 72.5678 86.3554 71.422 86.637 70.5216C86.7965 70.0117 86.6607 69.6001 86.5276 69.1007L88.5464 68.6624Z" fill="#41EEA4"/>
<path d="M103.399 81.7685L104.103 81.6743C104.474 81.8283 104.815 81.9987 105.116 82.271C105.937 83.0157 106.112 83.1753 106.178 84.2477C105.833 84.9398 105.234 85.4127 104.671 85.9233C104.473 86.0657 104.235 86.1321 104.008 86.2175C103.731 86.1487 103.557 86.0673 103.342 85.8796C102.724 85.3395 102.456 84.8364 102.413 83.9977C102.361 82.9759 102.736 82.5122 103.399 81.7685Z" fill="#AEF9D6"/>
<path d="M88.5464 68.6624C90.5597 68.6746 92.6093 68.7276 94.22 70.1603L94.2162 70.5298L94.0351 70.3891C93.8295 70.2329 93.6471 70.1965 93.4246 70.0864L93.3262 70.0124C93.1856 69.9077 93.0649 69.9022 92.9001 69.8481C92.4525 69.7008 92.0503 69.3924 91.6605 69.1338L91.4202 69.3722C91.499 69.6244 91.6289 69.7519 91.8016 69.9444L91.778 70.0561C91.7107 70.392 91.6916 70.5733 91.8016 70.8979L91.4212 71.0409C91.1481 71.9361 90.8195 73.2234 90.8481 74.14C90.4949 74.5815 90.3124 74.8515 90.3879 75.4559L90.4667 75.8564L90.1825 76.0471L90.2064 76.1623C90.2693 76.4834 90.2853 76.5952 90.1816 76.9043C90.0444 77.313 90.005 77.2657 89.8011 77.5728C89.4302 78.1312 89.9098 78.4437 89.229 79.0984C89.2274 79.4684 89.0907 79.6336 89.1317 80.052L88.6568 80.4334L88.7503 81.0055L88.4661 81.1962L88.5596 81.7684L88.0847 82.1498C88.0841 82.3081 88.1045 82.3506 88.0212 82.4896L87.7986 82.9107L87.3696 82.865C87.4054 83.3949 87.4054 83.4933 87.163 83.9615C87.7626 83.9633 88.289 84.0681 88.868 84.2104C89.3726 84.3342 89.9907 84.2245 90.4686 84.0588C90.8359 83.9314 92.1751 83.771 92.3608 83.5872C92.4884 83.4607 92.5511 83.4592 92.7094 83.3904C93.5375 83.0307 94.3432 82.3567 95.0456 81.7985C95.0456 82.457 93.6908 83.2315 93.3283 83.8185C93.0687 84.2388 93.5238 85.4216 93.3273 85.7733C93.3035 85.816 93.051 86.0315 93.0432 86.0593C92.9747 86.3015 93.2589 86.4799 93.3273 86.6315C93.3962 86.7842 93.3273 87.4042 93.3273 87.5999C93.3273 88.1121 92.7741 88.1728 93.2806 88.7293L93.2991 88.911C93.3302 89.1557 93.2985 89.0642 93.4236 89.2537L93.2339 89.4921L93.518 89.8735C93.4643 90.0913 93.4309 90.2273 93.2816 90.398L93.6143 90.4466C93.7145 90.845 93.7086 91.1355 93.663 91.5423L93.8995 91.7806L93.8892 91.8739L93.8537 93.2586L94.1865 93.3073C94.2866 93.7057 94.2807 93.9961 94.2351 94.4029C94.6642 94.8354 94.3223 95.2737 94.6623 95.7855C94.6058 96.0094 94.5534 96.1651 94.4249 96.3577C94.4439 96.696 94.439 96.8463 94.6623 97.1205L94.6642 98.0741C95.8687 97.9762 97.1059 98.1814 98.2877 97.9806L98.7052 98.1711C96.7103 98.2308 94.5286 98.1145 92.5647 98.4162L87.126 98.4568L87.0959 86.1494C87.1293 85.4664 87.2082 84.8045 86.9525 84.1545L85.709 83.9671C86.6553 82.5232 86.3258 80.5713 86.3572 78.9077C86.3914 77.1059 86.4927 75.3174 86.4908 73.5116C86.4896 72.5678 86.3554 71.422 86.637 70.5216C86.7965 70.0117 86.6607 69.6001 86.5276 69.1007L88.5464 68.6624Z" fill="#78F2B0"/>
<path d="M86.7279 126.699C85.9263 125.364 86.3502 121.802 86.3508 120.141C86.3523 115.941 86.2275 111.683 86.4119 107.489C86.5317 104.765 86.9367 102.035 87.0035 99.3137C87.1097 94.9928 86.5132 90.4347 87.0948 86.1494L87.125 98.4569L92.5636 98.4163L113.007 98.3714L113.231 92.875L113.353 96.9726L113.545 97.0252C113.612 96.2149 113.617 95.3271 113.819 94.542L113.858 104.721C113.663 109.488 113.806 114.302 113.818 119.074C113.824 121.395 113.484 124.447 113.983 126.697L86.7279 126.699Z" fill="url(#paint0_linear_242_40423)"/>
<path d="M102.947 105.035C103.558 104.941 104.851 104.716 105.368 105.025C105.525 105.118 105.421 105.069 105.601 105.149L105.726 105.203L105.915 105.288C106.232 105.153 106.809 104.873 107.156 104.946C107.866 105.096 108.476 106.084 108.849 106.672C108.981 106.881 109.666 106.976 109.948 107.098C109.953 107.54 109.914 108.452 110.1 108.849C110.365 109.417 111.185 109.687 111.191 110.375L110.302 110.724C109.937 111.456 110.27 112.169 110.066 112.95C109.883 113.65 109.45 113.753 108.871 114.097L108.068 113.808L107.845 113.998C108.245 114.177 108.365 114.2 108.621 114.571L108.274 115.143L107.683 115.502C107.042 115.853 106.599 115.84 105.915 115.642C104.989 116.009 103.075 115.594 102.137 115.218C101.597 115.002 100.479 113.43 100.257 112.877C100.014 112.271 99.6771 110.897 99.9313 110.331L100.48 110.377L100.643 110.184C100.243 110.035 100.242 109.962 100.024 109.612C100.026 109.116 99.9796 108.458 100.132 107.986C100.355 107.299 101.86 106.405 102.353 105.753L102.947 105.035Z" fill="#68F3AD"/>
<path d="M104.977 107.896L105.509 107.858C106.065 108.263 106.647 108.99 106.938 109.612C107.115 109.992 107.277 110.889 107.063 111.276C106.632 112.054 106.195 112.621 105.343 112.81L105.185 112.779C104.068 112.499 103.447 110.991 102.915 110.07C103.542 109.19 104.061 108.504 104.977 107.896Z" fill="#01C176"/>
<path d="M81.9199 134.988C84.9585 137.595 88.2026 138.377 92.1066 138.767C95.0243 139.059 97.9998 139.019 100.931 139.056C105.64 139.115 110.349 139.131 115.059 139.123C128.537 139.099 142.023 139.005 155.5 139.087C165.414 139.147 175.335 139.435 185.249 139.469C188.401 139.479 191.538 139.301 194.687 139.291C206.938 139.251 219.182 139.271 231.434 139.174C237.254 139.127 243.076 139.078 248.897 139.117C252.554 139.141 256.3 139.36 259.948 139.122C260.269 138.154 260.69 137.26 261.142 136.348C261.48 136.483 261.722 136.469 262.083 136.462C262.63 136.451 263.068 136.599 263.591 136.364C264.308 136.04 265.683 136.068 266.465 136.166L266.423 137.074C266.156 137.265 266.026 137.322 265.706 137.384C265.241 137.475 264.737 137.856 264.474 138.25C264.165 138.707 264.306 139.299 264.428 139.805L265.685 143.389C262.258 143.681 258.667 143.463 255.227 143.456C248.7 143.443 242.174 143.44 235.647 143.444C214.397 143.459 193.147 143.467 171.898 143.469C154.603 143.471 137.309 143.422 120.015 143.45C114.857 143.459 109.699 143.467 104.541 143.473C99.8418 143.479 95.2875 143.615 90.6294 142.851C86.7906 142.221 84.2857 141.64 81.9167 138.348C81.78 137.308 81.4111 135.949 81.9199 134.988Z" fill="#009B64"/>
<path d="M250.145 93.3067L266.474 93.0579L267.828 93.0966L268.019 93.4275C267.765 93.7412 267.315 94.1075 267.353 94.5187C267.439 95.4633 268.427 96.8803 268.999 97.6118L271.293 97.7667C271.606 98.3159 271.217 98.3493 271.267 98.8469C271.324 99.3963 271.915 99.7916 272.394 99.9267C273.183 100.15 273.94 100.306 274.705 100.617C274.82 101.256 275.083 102.172 274.661 102.746C274.413 103.085 274.217 103.023 273.836 103.057C274.032 103.218 274.356 103.397 274.417 103.641C274.518 104.049 274.602 104.259 274.884 104.569C275.256 104.571 275.987 104.473 276.315 104.577C276.772 104.722 277.453 105.353 277.846 105.644C278.573 106.182 279.345 106.655 280.123 107.116C280.121 107.666 280.1 108.089 279.891 108.611C280.325 109.482 280.337 110.938 280.058 111.908L279.921 112.239C279.702 112.732 279.469 113.349 279.082 113.731C278.359 114.447 277.295 114.781 276.511 115.451C275.926 115.951 275.001 117.335 274.343 117.564L274.204 117.607C274.888 117.589 275.397 117.869 276.084 117.936L276.158 118.019L276.5 118.899C274.534 119.812 273.487 120.828 272.748 122.877C272.34 124.008 272.449 125.42 272.436 126.616C269.888 126.25 267.01 126.563 264.426 126.598C259.525 126.663 254.457 126.676 249.581 126.179L250.026 118.274C249.958 117.764 250.006 117.192 250.003 116.676L250.145 93.3067Z" fill="#00371B"/>
<path d="M267.619 115.477C266.955 115.342 266.57 115 266.124 114.511C265.916 114.284 264.88 112.747 264.972 112.473C265.105 112.073 265.399 112.16 265.42 111.614L263.933 110.243C264.69 108.605 265.456 106.93 266.58 105.505C267.445 104.407 268.067 104.555 269.355 104.395L269.673 103.223C270.651 102.434 272.616 102.981 273.836 103.057C274.033 103.218 274.357 103.397 274.418 103.641C274.519 104.049 274.603 104.259 274.885 104.569C275.257 104.571 275.987 104.473 276.315 104.577C276.773 104.722 277.454 105.353 277.847 105.644C278.573 106.182 279.346 106.655 280.124 107.116C280.122 107.666 280.101 108.089 279.891 108.611C280.326 109.482 280.337 110.938 280.059 111.908L279.922 112.239C279.702 112.732 279.47 113.349 279.083 113.731C278.36 114.447 277.296 114.781 276.512 115.451C275.926 115.951 275.001 117.335 274.343 117.564L274.204 117.607L273.497 117.416C272.938 117.573 272.11 117.519 271.517 117.556C269.74 117.307 268.99 116.501 267.619 115.477Z" fill="#41EEA4"/>
<path d="M279.891 108.611C280.326 109.482 280.337 110.938 280.059 111.908L279.921 112.239L278.367 110.756C278.747 110.206 279.338 108.908 279.891 108.611Z" fill="#01C176"/>
<path d="M267.618 115.477L268.019 114.419C268.846 114.201 270.389 115.337 271.165 115.796C271.505 115.997 271.825 116.186 272.184 116.352C272.704 116.594 273.185 116.927 273.496 117.416C272.937 117.573 272.109 117.519 271.516 117.556C269.739 117.307 268.989 116.501 267.618 115.477Z" fill="#08F290"/>
<path d="M271.6 108.468C272.163 108.286 273.04 108.369 273.645 108.358C274.144 108.615 274.549 109.07 274.759 109.597C275.016 110.246 275.066 111.355 274.762 111.985L274.122 112.189L271.261 112.104C270.818 111.738 270.778 111.69 270.622 111.138C270.817 110.277 270.975 109.118 271.6 108.468Z" fill="#01C176"/>
<path d="M250.003 116.676C250.076 117.196 250.088 117.884 250.378 118.327L273.591 118.194L273.78 117.924C273.036 117.664 272.264 117.794 271.516 117.556C272.11 117.519 272.937 117.573 273.496 117.416L274.204 117.607C274.888 117.589 275.397 117.869 276.084 117.936L276.158 118.019L276.5 118.899C274.534 119.812 273.487 120.828 272.748 122.877C272.34 124.008 272.449 125.42 272.436 126.616C269.888 126.25 267.01 126.563 264.426 126.598C259.525 126.663 254.457 126.676 249.581 126.179L250.026 118.273C249.958 117.764 250.006 117.192 250.003 116.676Z" fill="#008455"/>
<path d="M250.118 55.914C251.7 55.6093 253.437 55.7374 255.049 55.7357C257.757 55.7329 260.466 55.7376 263.174 55.7348C265.957 55.7319 268.741 55.7291 271.524 55.7323C273.038 55.734 274.619 55.6448 276.127 55.7819C277.214 55.8807 278.29 56.0821 279.215 56.698C280.294 57.4176 281.273 58.5966 281.526 59.8808C281.969 62.1348 281.679 65.0002 281.683 67.3236C281.683 68.4872 281.847 70.0201 281.618 71.1468L281.034 70.6321L278.5 71.8988L279.427 73.1269C279.802 73.7578 280.409 74.5372 280.359 75.2843C280.18 75.4256 279.789 75.6563 279.69 75.8486L279.716 76.2841L280.224 75.761L280.607 75.8564C280.731 76.1945 280.819 76.5435 280.796 76.9053C280.538 77.3353 280.073 77.5199 279.976 77.9267C278.885 78.5694 278.286 78.5389 277.083 78.2814C276.589 78.5227 276.379 78.7138 275.837 78.4676L275.265 78.0904C275.065 78.2475 275.046 78.2727 275.019 78.5414C274.924 79.4583 275.088 80.5284 275.138 81.456C274.417 81.4535 273.29 81.3111 272.66 81.6402L271.905 81.7684C271.701 82.2154 271.741 82.252 271.903 82.7153C272.029 83.0736 272.283 83.3787 272.511 83.6755L272.328 84.0569L271.527 84.2783C270.515 84.3523 269.491 84.2695 268.779 85.1422L268.171 86.0594C268.236 86.4763 268.426 86.6912 268.688 87.0129C268.634 87.2318 268.663 87.3526 268.474 87.4836C267.606 88.0822 267.168 89.0499 266.411 89.7637L266.474 93.0578L250.145 93.3067L250.194 85.5399L249.138 85.4495C248.733 85.4252 248.485 85.4413 248.144 85.1941C247.385 84.6433 246.488 84.5806 245.818 83.9606C245.676 82.5196 244.609 82.3861 244.005 81.3439C243.447 80.3817 243.643 78.1226 243.642 76.9785C244.419 75.4668 246.214 73.9758 247.82 73.4161C248.592 73.1472 249.255 73.1819 249.887 72.5926L249.992 72.4888C249.767 71.5934 250.129 69.8875 250.148 68.8941C250.234 64.6329 250.464 60.1602 250.118 55.914Z" fill="#008455"/>
<path d="M276.93 69.8528C277.784 69.3927 278.85 69.4558 279.8 69.4184L281.036 70.6321L278.501 71.8988L278.408 71.8015L276.93 69.8528Z" fill="#78F2B0"/>
<path d="M276.928 69.8529L278.406 71.8016L278.499 71.8988L279.426 73.127C279.802 73.7579 280.408 74.5373 280.359 75.2843C280.18 75.4256 279.789 75.6564 279.689 75.8486L279.716 76.2842L280.223 75.7611L280.607 75.8564C280.731 76.1946 280.818 76.5436 280.796 76.9054C280.538 77.3354 280.073 77.52 279.976 77.9268C278.885 78.5695 278.286 78.539 277.082 78.2815C276.65 78.1045 276.232 78.0212 275.784 77.9056C274.481 77.5704 273.226 75.8442 272.574 74.7374C272.5 74.1399 272.374 73.4642 272.641 72.9004C272.799 72.5675 273.938 70.3661 274.151 70.2656C274.405 70.1447 275.021 70.164 275.309 70.1399C275.768 70.1018 276.31 70.1132 276.737 69.9374L276.928 69.8529Z" fill="#08F290"/>
<path d="M278.406 71.8016L278.5 71.8988L279.427 73.127C279.802 73.7579 280.409 74.5373 280.359 75.2843C280.18 75.4256 279.789 75.6564 279.69 75.8486C278.965 76.1707 278.355 76.4482 277.554 76.4753C276.751 76.2888 276.066 75.0435 275.582 74.4103C275.662 73.8025 276.169 73.0818 276.465 72.5408C277.104 72.245 277.714 71.9498 278.406 71.8016Z" fill="#41EEA4"/>
<path d="M249.992 72.4888C251.843 72.5067 253.07 73.3664 254.339 74.6566C254.671 74.9945 255.413 75.6313 255.572 76.0474C255.735 76.4727 255.737 77.1324 255.844 77.5977C256.086 78.6493 256.515 79.3696 256.497 80.4818C256.484 81.2387 255.747 81.9316 255.241 82.4255C254.927 82.5193 254.548 82.694 254.222 82.6237C254.212 83.2393 254.37 84.1749 253.906 84.6387C253.027 85.5175 251.753 85.4984 250.611 85.4879L250.194 85.5398L249.138 85.4494C248.733 85.4252 248.485 85.4412 248.144 85.1941C247.385 84.6433 246.488 84.5805 245.818 83.9605C245.676 82.5195 244.609 82.386 244.005 81.3438C243.447 80.3817 243.643 78.1225 243.642 76.9785C244.419 75.4667 246.214 73.9757 247.82 73.416C248.592 73.1471 249.255 73.1818 249.887 72.5925L249.992 72.4888Z" fill="#08F290"/>
<path d="M250.611 85.488L250.242 85.0742C250.358 84.5217 250.419 83.9848 250.434 83.4209C251.002 83.0433 251.329 83.1655 251.999 83.1999C252.34 82.9563 252.747 82.6699 253.141 82.5312C253.599 82.3701 253.804 82.421 254.222 82.6237C254.213 83.2393 254.37 84.175 253.906 84.6388C253.027 85.5176 251.753 85.4985 250.611 85.488Z" fill="#41EEA4"/>
<path d="M249.344 77.1102C250.83 77.1332 250.814 77.0919 251.853 78.1459C251.923 78.9267 251.675 79.8539 251.522 80.6242C251.073 81.075 250.284 80.9696 249.651 81.0085L249.518 80.9349C249.35 80.8647 249.17 80.8498 249.008 80.7499C248.374 80.358 247.329 79.236 247.132 78.5264C247.459 77.7698 248.598 77.4651 249.344 77.1102Z" fill="#01C176"/>
<path d="M218.315 22.4998L218.326 21.6948L218.625 21.4061C223.508 21.399 228.39 21.3916 233.272 21.3883C234.927 21.3872 237.32 21.0414 238.843 21.5014L238.948 22.3335C239.093 23.1528 239.146 23.9408 239.167 24.7721C241.631 24.2475 245.623 24.1824 247.804 25.5897C249.034 26.383 249.687 28.2573 249.952 29.6241C250.244 31.1369 249.854 32.788 249.738 34.3072L249.67 34.3356L249.592 40.2741L249.33 39.4375C247.433 38.6937 244.303 38.9735 242.242 38.9172C241.359 38.4288 240.047 38.5536 239.06 38.528C236.921 38.4723 234.782 38.4359 232.643 38.3989L232.457 38.3865C228.456 37.909 224.135 38.2356 220.088 38.2305C212.048 38.2202 204.008 38.1996 195.968 38.1903C185.23 38.1781 174.492 38.1664 163.754 38.1514C158.329 38.1435 152.744 37.8308 147.348 38.1883L126.824 38.1536L126.767 42.2619L126.798 55.1363C126.836 55.8448 127.713 56.7173 128.181 57.2225C123.402 57.6921 118.625 57.3185 113.834 57.176L113.827 56.4135L113.848 39.8103C113.837 37.5193 113.832 35.2283 113.835 32.9373C113.837 31.7387 113.696 30.2024 114.081 29.0627C114.408 28.0945 114.849 27.0692 115.531 26.2957C117.186 24.4174 122.758 24.6876 125.268 24.5654C125.285 25.5834 125.24 26.6311 125.559 27.6087C125.705 27.7323 125.889 27.9379 126.051 28.0264C127.05 28.5701 129.853 28.2684 131.094 28.2718C135.978 28.285 140.919 28.4499 145.796 28.2613L145.867 25.3866L218.221 25.2243C218.189 24.2963 218.196 23.4215 218.315 22.4998Z" fill="#008455"/>
<path d="M181.553 27.6068L181.663 27.5726C182.491 27.3922 183.122 27.7065 183.82 28.095C184.793 28.6368 185.219 29.564 185.75 30.5019C184.914 31.7156 184.265 32.583 183.041 33.4377C182.757 33.6456 182.449 33.6015 182.104 33.6273C181.4 33.304 180.714 32.9764 180.212 32.3663C179.5 31.5026 179.391 30.7966 179.479 29.7046C180.004 28.747 180.612 28.1493 181.553 27.6068Z" fill="#00371B"/>
<path d="M232.642 38.3989L232.866 32.6667L233.027 32.5605C236.578 32.3132 240.103 32.5128 243.653 32.5861C245.541 32.6248 247.779 32.4552 249.606 32.8597C249.695 33.3514 249.674 33.8383 249.669 34.3356L249.59 40.2742L249.328 39.4375C247.432 38.6937 244.302 38.9735 242.241 38.9173C241.357 38.4289 240.046 38.5536 239.059 38.528C236.92 38.4723 234.781 38.4359 232.642 38.3989Z" fill="#41EEA4"/>
<path d="M218.314 22.4998L218.326 21.6948L218.625 21.4061C223.507 21.399 228.39 21.3916 233.272 21.3883C234.927 21.3872 237.32 21.0414 238.843 21.5014L238.948 22.3335L239.005 28.2815C234.413 28.3378 229.821 28.3206 225.23 28.3065C223.793 28.3021 220.093 28.6889 218.911 27.9028C217.885 26.7707 218.419 23.9801 218.314 22.4998Z" fill="#08F290"/>
<path d="M113.848 39.8103L113.978 38.4773C114.21 38.3146 114.212 38.2355 114.504 38.2753C116.19 38.5063 125.579 38.064 126.043 38.3655C126.159 39.6669 126.053 46.9799 126.512 47.4387C126.923 45.9525 126.701 43.8423 126.726 42.2754L126.766 42.2619L126.798 55.1364C126.835 55.8448 127.712 56.7173 128.181 57.2225C123.402 57.6921 118.625 57.3185 113.834 57.176L113.826 56.4135L113.848 39.8103Z" fill="#01C176"/>
<path d="M215.442 126.697C222.643 126.701 229.817 126.43 237.014 126.222C241.225 126.101 245.374 125.751 249.581 126.179C254.457 126.676 259.524 126.663 264.426 126.598C267.01 126.563 269.887 126.25 272.435 126.616C273.139 129.011 274.966 130.354 276.715 131.982L277.062 132.061C277.104 134.079 276.948 135.636 276.41 137.594C276.238 138.219 276.206 138.806 275.742 139.296L274.884 139.613L274.39 139.363L274.865 138.641L274.901 138.542C275.014 138.051 274.781 137.13 274.503 136.723L273.835 136.645C273.336 136.914 272.912 137.182 272.325 137.17C271.655 137.157 271.913 135.525 271.451 135.045C270.65 135.044 269.966 135.041 269.226 135.381L269.067 135.456C268.867 135.316 268.644 135.185 268.4 135.141C267.792 135.033 266.958 134.931 266.447 135.272L266.464 136.166C265.682 136.068 264.307 136.04 263.59 136.364C263.068 136.599 262.629 136.451 262.082 136.462C261.721 136.469 261.479 136.483 261.142 136.348C260.69 137.26 260.268 138.154 259.948 139.122C256.299 139.36 252.553 139.141 248.896 139.117C243.075 139.078 237.254 139.127 231.433 139.174C219.181 139.271 206.937 139.251 194.686 139.291C191.538 139.301 188.4 139.479 185.248 139.469C175.334 139.435 165.413 139.147 155.5 139.087C142.022 139.005 128.537 139.099 115.058 139.123C110.348 139.131 105.639 139.115 100.93 139.056C97.999 139.019 95.0235 139.059 92.1059 138.767C88.2018 138.377 84.9577 137.595 81.9191 134.988C80.5425 131.989 80.9008 129.671 81.8954 126.664L86.728 126.699L113.983 126.697L215.442 126.697Z" fill="#08F290"/>
<path d="M261.142 136.348L262.265 134.937C262.999 134.1 264.214 132.684 265.175 132.18C265.425 132.048 266.186 132.034 266.508 131.995C269.832 131.598 273.173 132.232 276.499 131.998L276.715 131.982L277.062 132.061C277.104 134.079 276.948 135.636 276.41 137.594C276.238 138.219 276.206 138.806 275.742 139.296L274.884 139.613L274.39 139.363L274.865 138.641L274.901 138.542C275.014 138.051 274.781 137.13 274.503 136.723L273.835 136.645C273.336 136.914 272.912 137.182 272.325 137.17C271.655 137.157 271.913 135.525 271.451 135.045C270.65 135.044 269.966 135.041 269.226 135.381L269.068 135.456C268.867 135.316 268.644 135.185 268.4 135.141C267.792 135.033 266.958 134.931 266.447 135.272L266.464 136.165C265.682 136.068 264.307 136.04 263.59 136.363C263.068 136.599 262.629 136.451 262.082 136.462C261.721 136.469 261.479 136.482 261.142 136.348Z" fill="#00371B"/>
<path d="M171.945 132.116L193.012 132.04C193.321 132.666 193.858 133.497 193.777 134.206C193.71 134.796 193.125 135.227 192.682 135.549C192.336 135.716 192.042 135.768 191.659 135.796C187.399 136.107 182.911 135.836 178.629 135.836C177.168 135.836 175.706 135.836 174.245 135.832C173.618 135.83 172.718 135.908 172.122 135.739C171.969 135.696 171.673 135.432 171.556 135.322C171.22 135.005 171.045 134.543 171.04 134.084C171.033 133.401 171.472 132.587 171.945 132.116Z" fill="#00371B"/>
<path d="M198.012 132.116C199.079 131.845 218.812 131.803 219.77 132.179C220.001 132.838 220.154 133.458 220.105 134.163C220.056 134.857 219.901 135.29 219.388 135.743C218.205 135.932 216.896 135.831 215.694 135.833C213.514 135.835 211.334 135.836 209.153 135.836C206.772 135.835 204.39 135.835 202.008 135.831C200.851 135.829 199.596 135.923 198.449 135.81C197.785 135.745 197.662 135.422 197.266 134.944C197.04 133.743 197.444 133.159 198.012 132.116Z" fill="#00371B"/>
<path d="M147.348 38.1883C152.744 37.8308 158.329 38.1435 163.753 38.1513C174.491 38.1664 185.23 38.178 195.968 38.1902C204.008 38.1996 212.048 38.2202 220.088 38.2305C224.134 38.2356 228.455 37.9089 232.457 38.3865L232.643 38.3989C234.782 38.4359 236.921 38.4723 239.06 38.528C240.047 38.5535 241.358 38.4288 242.242 38.9172C244.303 38.9735 247.432 38.6937 249.329 39.4375L249.591 40.2741L249.899 53.3015L250.118 55.9141C250.465 60.1602 250.234 64.6329 250.149 68.8941C250.129 69.8876 249.768 71.5935 249.992 72.4888L249.887 72.5926C249.256 73.1819 248.593 73.1472 247.821 73.4161C246.215 73.9758 244.419 75.4668 243.642 76.9785C243.643 78.1226 243.448 80.3817 244.005 81.3439C244.609 82.3861 245.676 82.5196 245.819 83.9606C246.489 84.5806 247.385 84.6434 248.145 85.1941C248.486 85.4413 248.734 85.4253 249.139 85.4495L250.194 85.5399L250.145 93.3067L250.003 116.676C250.006 117.192 249.958 117.764 250.026 118.274L249.581 126.179C245.374 125.751 241.225 126.101 237.014 126.222C229.818 126.43 222.643 126.701 215.442 126.697L113.983 126.697C113.484 124.447 113.824 121.395 113.818 119.074C113.806 114.302 113.663 109.488 113.859 104.721L113.82 94.542C113.617 95.3271 113.612 96.2149 113.546 97.0252L113.353 96.9726L113.231 92.875L113.246 72.7642C113.261 72.0138 113.437 71.3041 113.801 70.6477C113.999 69.3911 113.835 67.8666 113.835 66.5852C113.836 63.4488 113.835 60.3124 113.834 57.176C118.625 57.3184 123.402 57.692 128.181 57.2225C127.712 56.7173 126.836 55.8448 126.798 55.1363L126.766 42.2619L126.824 38.1536L147.348 38.1883Z" fill="url(#paint1_linear_242_40423)"/>
<path d="M113.801 70.6477L113.82 72.5725V94.5419C113.617 95.3271 113.612 96.2148 113.546 97.0252L113.353 96.9725L113.231 92.8749L113.246 72.7642C113.261 72.0138 113.437 71.3041 113.801 70.6477Z" fill="#00371B"/>
<path d="M231.089 107.47C230.949 107.087 230.9 106.777 230.892 106.37C231.436 105.373 232.333 104.701 233.131 103.918C233.67 103.389 234.089 102.776 234.644 102.251C235.57 102.215 236.111 102.23 236.931 102.71L237.123 102.827L237.695 102.268C238.26 102.229 238.867 102.097 239.362 102.417C239.554 102.775 239.711 103.228 239.941 103.554C240.576 104.453 242.016 105.5 241.966 106.684C241.179 107.02 240.329 107.529 239.507 107.746C238.941 107.896 238.295 107.733 237.76 107.95L237.416 108.563C237.259 108.774 237.047 109.025 236.785 109.069C235.987 109.203 234.738 109.338 234.07 108.8C233.403 108.263 233.301 107.86 233.217 107.048L232.737 106.676C232.503 106.71 232.292 106.685 232.128 106.861C231.789 107.227 231.578 107.373 231.089 107.47Z" fill="#68F3AD"/>
<path d="M233.217 107.048C233.767 106.188 234.603 105.908 235.502 105.53C236.109 105.587 236.874 105.814 237.272 106.315C237.605 106.734 237.801 107.426 237.76 107.95L237.415 108.563C237.259 108.774 237.046 109.025 236.785 109.069C235.986 109.203 234.738 109.338 234.07 108.8C233.403 108.263 233.3 107.86 233.217 107.048Z" fill="#EDF2F0"/>
<path d="M231.09 107.47C231.578 107.372 231.79 107.227 232.129 106.861C232.292 106.685 232.504 106.71 232.737 106.676L233.218 107.048C233.301 107.86 233.403 108.263 234.071 108.8C234.739 109.338 235.987 109.203 236.786 109.069C237.047 109.025 237.259 108.774 237.416 108.563L237.76 107.95C238.295 107.733 238.942 107.896 239.507 107.746C240.33 107.529 241.179 107.02 241.966 106.684L241.972 107.738L241.958 109.923C241.878 110.475 241.888 110.674 241.414 111.03C240.974 111.362 240.407 111.373 240.288 111.947C240.252 112.119 240.264 112.058 240.257 112.228C240.236 112.802 239.877 113.18 239.543 113.617C238.548 113.794 237.5 113.756 236.491 113.773L235.968 113.756C235.558 113.738 235.033 113.793 234.677 113.583C233.855 113.097 233.571 112.039 233.353 111.176C232.784 111.325 232.279 111.425 231.688 111.45C230.728 110.702 231.627 108.679 231.16 107.59L231.09 107.47Z" fill="#18F8C2"/>
<path d="M239.193 110.383L239.404 110.04C239.526 109.773 239.594 109.515 239.794 109.287C240.3 108.709 241.192 107.812 241.972 107.738L241.958 109.923C241.323 109.821 241.131 109.939 240.556 110.182L240.173 109.612C240.028 109.815 239.944 109.977 239.868 110.215L239.193 110.383Z" fill="#68F3AD"/>
<path d="M233.353 111.176C233.856 110.796 234.285 110.743 234.93 110.834C235.137 110.864 235.32 110.932 235.506 111.023C235.942 111.737 235.895 112.925 235.968 113.756C235.558 113.738 235.033 113.793 234.677 113.583C233.855 113.097 233.571 112.039 233.353 111.176Z" fill="#78F2B0"/>
<path d="M239.194 110.383L239.868 110.215C239.945 109.978 240.028 109.815 240.173 109.612L240.557 110.182C241.131 109.939 241.324 109.821 241.958 109.923C241.878 110.475 241.888 110.674 241.415 111.03C240.974 111.362 240.407 111.373 240.288 111.948C240.253 112.12 240.264 112.058 240.258 112.229C240.237 112.802 239.877 113.18 239.544 113.617C238.548 113.794 237.5 113.756 236.491 113.773C236.615 113.106 236.452 111.232 236.807 110.778C237.578 110.582 238.392 110.307 239.194 110.383Z" fill="#78F2B0"/>
<path d="M135.777 90.8539L137.949 90.7534C138.734 90.764 140.401 91.8831 140.914 92.469C141.763 93.4361 142.732 95.8936 142.576 97.2159C142.36 99.0376 141.427 100.521 140.01 101.662C139.106 102.39 137.832 102.712 136.687 102.597L135.762 102.429C133.933 102.091 132.976 100.111 131.555 99.1074L131.408 99.005C131.376 98.3324 131.919 98.4868 132.076 97.8876C132.204 97.3956 132.006 96.5204 131.792 96.0723L131.711 95.91C131.455 95.3657 131.385 94.9147 131.574 94.3553L131.947 94.2624C132.07 94.5725 132.272 94.7197 132.519 94.9255L132.785 94.7367L132.782 94.1646L132.237 93.7832L132.303 93.4889L133.328 92.9696C133.989 91.8448 134.659 91.4746 135.777 90.8539Z" fill="#41EEA4"/>
<path d="M152.789 89.3968C153.925 89.2114 155.298 89.3253 156.463 89.3169C158.954 89.2988 161.445 89.3028 163.936 89.3011L163.453 100.267L163.214 100.686C159.738 100.788 156.116 100.664 152.705 99.9673C152.286 96.741 152.353 92.6278 152.789 89.3968Z" fill="#78F2B0"/>
<path d="M232.642 38.3989C234.781 38.4359 236.92 38.4723 239.059 38.528C240.046 38.5536 241.357 38.4289 242.241 38.9173C244.302 38.9735 247.432 38.6938 249.328 39.4375L249.59 40.2742L249.898 53.3016L249.785 53.8205C249.142 53.9523 246.143 53.9719 245.584 53.6921L232.834 53.4827L232.642 38.3989Z" fill="#AEF9D6"/>
<path d="M242.242 38.9171C244.303 38.9734 247.432 38.6936 249.329 39.4374L249.591 40.274L249.899 53.3014L249.786 53.8204C249.142 53.9521 246.144 53.9718 245.585 53.692C245.768 53.4662 245.704 53.2541 245.704 52.9711L245.133 52.6387C245.048 49.2439 245.075 45.4282 244.466 42.1007C243.851 42.0991 243.209 42.2105 242.595 42.3249C242.355 42.3696 242.306 42.3219 242.082 42.2431C242.016 41.125 242.388 40.1276 242.242 38.9171Z" fill="#78F2B0"/>
<path d="M215.322 118.021L250.026 118.274L249.581 126.179C245.375 125.751 241.226 126.101 237.015 126.222C229.818 126.43 222.643 126.701 215.442 126.697C215.238 125.663 215.328 124.521 215.325 123.464C215.322 121.65 215.321 119.836 215.322 118.021Z" fill="#01C176"/>
<path d="M199.552 74.7121C200.847 75.0428 202.277 74.8973 203.606 74.9369C207.478 75.0519 211.442 75.1553 215.302 74.8303L215.213 93.7831L199.275 93.9341L199.552 74.7121Z" fill="#01C176"/>
<path d="M113.834 57.176C118.625 57.3184 123.402 57.692 128.181 57.2225C130.957 59.1723 133.36 62.024 135.768 64.4138C136.468 67.2987 135.772 70.5424 135.1 73.3592C128.288 73.2215 121.458 73.3087 114.644 73.3203C114.46 73.3207 114.34 73.3699 114.19 73.2385C114.138 73.1929 114.087 73.1458 114.045 73.0911L113.82 72.5725L113.802 70.6477C113.999 69.3911 113.835 67.8666 113.836 66.5852C113.836 63.4488 113.835 60.3124 113.834 57.176Z" fill="#08F290"/>
<path d="M126.766 42.2618L126.823 38.1536L147.347 38.1883C147.334 41.6031 147.34 45.0163 147.355 48.4311C147.363 50.3228 147.742 53.2545 146.727 54.8946L146.615 55.0886C145.986 56.155 137.615 64.7475 136.715 64.9689C136.325 64.8289 136.083 64.6802 135.767 64.4137C133.359 62.024 130.957 59.1723 128.18 57.2225C127.712 56.7173 126.835 55.8448 126.797 55.1363L126.766 42.2618Z" fill="#41EEA4"/>
<path d="M113.859 104.721L114.126 117.998C119.581 118.041 125.038 118.053 130.493 118.041C131.894 118.038 133.295 118.034 134.695 118.024C135.524 118.019 136.399 118.097 137.192 117.833L137.289 117.875C138.516 118.355 140.851 118.041 142.24 118.038C145.871 118.032 149.503 118.035 153.134 118.041C173.854 118.071 194.608 117.752 215.322 118.021C215.321 119.836 215.322 121.65 215.325 123.464C215.328 124.521 215.238 125.663 215.442 126.697L113.983 126.697C113.484 124.447 113.825 121.395 113.819 119.074C113.807 114.302 113.664 109.488 113.859 104.721Z" fill="url(#paint2_linear_242_40423)"/>
<defs>
<linearGradient id="paint0_linear_242_40423" x1="113.543" y1="126.204" x2="81.6018" y2="112.105" gradientUnits="userSpaceOnUse">
<stop stop-color="#004627"/>
<stop offset="1" stop-color="#006039"/>
</linearGradient>
<linearGradient id="paint1_linear_242_40423" x1="147.681" y1="38.668" x2="202.84" y2="142.743" gradientUnits="userSpaceOnUse">
<stop stop-color="#00AA63"/>
<stop offset="1" stop-color="#01FFA7"/>
</linearGradient>
<linearGradient id="paint2_linear_242_40423" x1="214.62" y1="125.632" x2="114.284" y2="118.916" gradientUnits="userSpaceOnUse">
<stop stop-color="#00623A"/>
<stop offset="1" stop-color="#008555"/>
</linearGradient>
</defs>
</svg>
