<svg width="368" height="217" viewBox="0 0 368 217" fill="none" xmlns="http://www.w3.org/2000/svg">
<g clip-path="url(#clip0_242_40519)">
<path d="M0.0976562 20.1313C0.0976562 9.08565 9.05196 0.131348 20.0977 0.131348H347.098C358.143 0.131348 367.098 9.08565 367.098 20.1313V216.131H0.0976562V20.1313Z" fill="#471601"/>
<path d="M-12.0196 218.324H-13.748V-23.5484H402.453V-21.9593V111.441V218.124C400.424 218.718 384.982 218.338 381.788 218.338C363.329 218.34 344.866 218.332 326.403 218.324H96.3941H-12.0196Z" fill="#2E0F00"/>
<path d="M72.4997 150.381L72.8344 150.377L73.3387 150.932C73.766 151.484 74.1107 151.752 74.7438 152.06C75.0014 152.186 74.9604 152.187 75.0857 152.423L74.6657 152.677C73.8413 153.063 73.4174 153.43 72.7785 154.093L72.3926 153.982L72.328 153.165C72.1599 152.457 70.8864 152.868 70.2761 152.538L70.1963 152.237C70.75 151.928 71.4664 152.015 71.9379 151.716C72.2972 151.488 72.3839 150.777 72.4997 150.381Z" fill="#F7F4F8"/>
<path d="M295.731 153.94L296.056 154.001C296.292 154.979 296.746 156.002 297.298 156.845C298.597 158.824 300.744 159.327 302.929 159.775L299.982 161.195C297.687 162.443 296.782 164.085 296.063 166.547C295.583 166.632 294.229 163.228 293.843 162.617C293.092 161.431 290.419 160.455 289.127 159.805C290.456 159.49 291.661 159.078 292.817 158.342C294.422 157.322 294.779 155.472 295.731 153.94Z" fill="#F7F4F8"/>
<path d="M72.5239 15.9721C73.0418 16.2221 73.7103 18.0827 74.063 18.6711C74.4526 19.3211 74.9311 19.9437 75.4638 20.4829C76.2543 21.283 77.2231 21.8456 78.2185 22.3512C78.6937 22.5925 79.8614 22.9942 80.1453 23.4194L78.1615 24.29C75.185 25.6317 73.862 27.4151 72.7099 30.4499L72.417 30.6925L72.0506 29.6441C70.8298 25.7639 68.4365 24.8821 65.1367 23.1522L67.0207 22.5302C70.4632 21.1715 71.166 19.1416 72.5239 15.9721Z" fill="#F7F4F8"/>
<path d="M317.613 31.1619C317.403 29.3758 316.16 26.8926 314.745 25.7483C313.153 24.4609 311.154 23.5893 309.166 23.1559C310.957 22.3587 313.249 21.598 314.782 20.3752C316.026 19.3822 316.839 17.5556 317.539 16.1494C317.726 15.7717 318.07 14.8115 318.38 14.6105C319.519 17.8043 321.134 20.1787 324.264 21.6563L327.022 22.9513C324.687 23.9444 321.908 24.9235 320.382 27.0697C319.31 28.5763 318.701 30.3838 317.938 32.0541C317.752 31.7746 317.693 31.4819 317.613 31.1619Z" fill="#F7F4F8"/>
<path d="M284.401 53.7836C285.123 54.3714 285.623 54.5821 285.725 55.5651C286.025 58.4265 285.778 61.5442 285.782 64.4366C285.786 70.5958 285.79 76.755 285.793 82.9141C285.803 94.6558 285.786 106.395 285.777 118.136C285.773 124.167 285.882 130.215 285.765 136.244C285.752 136.944 285.758 137.581 285.504 138.247L284.607 138.765C284.412 136.964 284.488 135.034 284.501 133.221C284.52 130.217 284.572 127.214 284.613 124.211C284.707 117.305 284.613 110.364 284.617 103.453C284.622 91.4508 284.561 79.4469 284.555 67.4441C284.553 64.2605 284.529 61.0761 284.494 57.8927C284.479 56.5204 284.34 55.1525 284.401 53.7836Z" fill="#C72F06"/>
<path d="M92.9321 139.002L91.6748 138.126C91.3067 135.761 91.3881 133.27 91.3505 130.876C91.2816 126.495 91.2869 122.113 91.2818 117.731C91.2661 104.175 91.2788 90.6211 91.3249 77.0655C91.3427 71.7993 91.3192 66.5368 91.38 61.2699C91.3997 59.5648 91.1719 57.403 91.4779 55.7442C91.6389 54.8715 92.688 54.2591 93.3526 53.801C93.6119 55.5502 93.4457 57.4091 93.421 59.1775C93.3785 62.2299 93.3361 65.2832 93.3473 68.336C93.4215 88.6086 93.846 108.954 93.3395 129.22C93.2923 131.11 93.3232 133.006 93.3181 134.897C93.315 136.054 93.3965 137.184 93.0551 138.302C92.986 138.528 92.9602 138.767 92.9321 139.002Z" fill="#C72F06"/>
<path d="M173.751 132.509C174.654 132.531 175.661 132.428 176.549 132.534C177.643 132.664 178.684 133.094 179.761 133.299C180.756 133.488 181.587 134.11 182.532 134.412C183.819 135.313 185.663 138.273 187.13 138.508C188.065 138.658 189.356 138.719 190.244 138.367C192.319 137.548 193.76 135.066 195.584 133.756C196.186 133.869 198.315 133.171 199.016 132.93C199.925 132.617 201.001 132.562 201.953 132.679C201.934 133.37 202.169 134.375 202.619 134.912C202.806 135.136 203.088 135.15 203.355 135.217L202.906 135.29C202.356 135.856 202.722 138.632 202.494 139.604C201.674 143.103 199.507 146.234 196.455 148.131C193.268 150.111 189.616 150.906 185.925 150.013C182.078 149.083 178.862 146.695 176.847 143.302C175.756 141.465 175.248 139.671 174.901 137.587C174.747 136.663 174.551 135.986 174.784 135.052L175.109 134.822C175.138 134.298 175.282 133.457 175.012 132.997C174.817 132.664 174.122 132.607 173.751 132.509Z" fill="#C72F06"/>
<path d="M93.3522 53.8011L93.8587 53.4634L94.036 53.5156C95.2483 53.8568 96.5781 53.7966 97.8321 53.8501C99.1593 53.9065 100.478 54.0528 101.801 54.1535C102.586 54.2133 103.455 54.2051 104.208 54.4346C103.775 56.0616 103.936 58.0586 103.918 59.7351C103.878 63.5168 103.92 67.3001 103.93 71.082C103.962 83.2683 103.975 95.4553 103.98 107.642C103.983 114.132 103.981 120.622 103.992 127.112C103.995 128.786 103.999 130.46 104.007 132.135C104.011 132.865 103.916 133.825 104.125 134.521L104.568 137.606C104.912 137.853 105.238 137.803 105.647 137.795C103.736 138.03 93.9526 139.679 92.9316 139.002C92.9598 138.767 92.9855 138.528 93.0546 138.302C93.396 137.184 93.3146 136.054 93.3177 134.897C93.3228 133.006 93.2918 131.11 93.3391 129.22C93.8456 108.954 93.421 88.6086 93.3469 68.336C93.3357 65.2832 93.3781 62.2299 93.4206 59.1775C93.4453 57.4092 93.6115 55.5503 93.3522 53.8011Z" fill="#E67121"/>
<path d="M273.218 54.1049L284.112 53.4423L284.401 53.7836C284.34 55.1525 284.479 56.5205 284.494 57.8927C284.529 61.0761 284.553 64.2605 284.555 67.4441C284.561 79.4469 284.622 91.4509 284.616 103.453C284.613 110.364 284.707 117.305 284.613 124.211C284.572 127.214 284.52 130.217 284.501 133.221C284.488 135.034 284.412 136.964 284.607 138.765L284.204 139.134C282.383 139.31 280.615 138.946 278.816 138.724C276.875 138.484 274.918 138.365 272.997 137.981C273.12 136.879 273.255 135.64 273.025 134.55L273.251 134.374L273.218 54.1049Z" fill="#E67121"/>
<path d="M109.789 44.1578C109.811 43.0805 109.645 41.5391 110.128 40.5691C110.633 40.1086 110.815 39.8642 111.492 39.7122L121.893 43.7216C121.461 63.0407 121.845 82.4147 121.806 101.741C121.793 108.001 121.658 114.266 121.798 120.525C121.819 121.491 121.647 123.156 121.889 124.054C121.923 124.181 122.182 124.454 122.269 124.574L122.665 124.953L112.922 130.721L112.906 130.713L109.785 131.967L109.789 44.1578Z" fill="#E67121"/>
<path d="M109.789 44.1577L109.785 131.966L112.906 130.713L112.922 130.721C113.853 130.874 115.047 130.487 115.947 130.232C118.764 129.435 121.485 128.337 124.265 127.425C126.664 126.638 129.105 125.912 131.537 125.228C134.557 124.38 137.625 123.682 140.703 123.078C146.102 122.019 151.734 121.71 157.225 121.991C158.891 122.076 160.896 121.855 162.501 122.251C162.945 122.455 163.368 122.438 163.725 122.592C164.113 122.758 164.489 122.604 164.858 122.85C164.857 123.08 164.898 123.237 164.77 123.431C164.638 123.628 164.688 123.547 164.631 123.772C164.566 124.03 164.467 124.132 164.301 124.334L164.299 124.706L164.178 124.636C163.902 124.518 163.597 124.556 163.303 124.567C163.822 124.857 164.388 124.933 164.949 125.11C165.903 125.411 166.852 125.81 167.788 126.166C169.87 126.958 171.846 127.93 173.869 128.851C174.231 129.016 175.589 129.519 175.767 129.847C178.13 131.02 180.679 132.515 182.532 134.412C181.587 134.11 180.756 133.488 179.762 133.299C178.684 133.094 177.644 132.664 176.549 132.534C175.661 132.428 174.654 132.531 173.751 132.509C174.122 132.607 174.817 132.664 175.012 132.997C175.282 133.457 175.139 134.298 175.109 134.822L174.785 135.052C170.05 134.72 165.259 134.241 160.526 134.022C157.197 133.868 153.823 134.012 150.49 134.01C146.678 134.009 142.828 133.875 139.02 134.052C127.875 134.57 116.688 136.222 105.647 137.795C105.238 137.803 104.912 137.853 104.568 137.606L104.126 134.521C103.916 133.825 104.011 132.865 104.008 132.134C104 130.46 103.996 128.786 103.993 127.112C103.981 120.622 103.983 114.132 103.98 107.642C103.975 95.4552 103.962 83.2683 103.93 71.0819C103.92 67.3001 103.878 63.5167 103.918 59.7351C103.936 58.0586 103.775 56.0616 104.209 54.4345L104.322 54.7699C104.719 54.0252 104.585 53.0396 104.591 52.209C104.606 50.2234 104.507 48.169 104.654 46.1917C104.699 45.5931 104.986 45.1513 105.422 44.7689C106.516 43.8123 108.426 44.0792 109.789 44.1577Z" fill="url(#paint0_linear_242_40519)"/>
<path d="M113.271 133.305L113.298 133.227C114.359 132.364 120.204 131.875 121.905 131.565C126.922 130.652 131.853 129.702 136.932 129.12C139.339 128.845 141.764 128.789 144.179 128.608C146.77 128.414 149.324 128.138 151.929 128.126C156.328 128.105 160.786 128.477 165.172 128.817C167.757 129.018 170.316 129.459 172.837 130.059C173.862 130.303 175.05 130.899 176.085 130.928C176.193 130.772 176.248 130.695 176.423 130.607L176.551 130.553C176.149 130.413 175.96 130.429 175.682 130.089L175.767 129.847C178.129 131.02 180.679 132.515 182.532 134.412C181.587 134.11 180.756 133.488 179.762 133.299C178.684 133.094 177.643 132.664 176.549 132.534C175.661 132.428 174.654 132.531 173.751 132.509C169.481 131.848 165.039 131.262 160.72 131.045C156.773 130.846 152.746 130.989 148.793 130.989C145.436 130.989 142.034 130.865 138.687 131.074C130.194 131.605 121.746 132.704 113.271 133.305Z" fill="#760700"/>
<path d="M113.27 133.305C121.746 132.704 130.193 131.605 138.687 131.074C142.033 130.865 145.436 130.989 148.792 130.989C152.746 130.989 156.773 130.846 160.72 131.045C165.039 131.262 169.481 131.848 173.751 132.509C174.122 132.607 174.817 132.664 175.012 132.997C175.282 133.457 175.138 134.298 175.108 134.822L174.784 135.052C170.049 134.72 165.258 134.241 160.525 134.022C157.197 133.868 153.822 134.012 150.489 134.01C146.677 134.009 142.827 133.875 139.02 134.052C127.875 134.57 116.688 136.222 105.646 137.795C105.237 137.803 104.911 137.853 104.567 137.606L104.125 134.521C105.211 134.167 106.374 134.113 107.501 133.987C109.412 133.774 111.373 133.609 113.27 133.305Z" fill="#F8D89F"/>
<path d="M126.837 38.5651C126.905 38.4758 126.935 38.4277 127.035 38.3537C128.26 37.4518 129.966 36.6587 131.335 35.9797C140.091 31.6347 149.926 30.1197 159.628 30.8809C167.463 32.0781 175.582 33.9851 182.213 38.5543C182.231 42.7102 182.54 46.8629 182.568 51.0199C182.594 54.9109 182.458 58.7994 182.442 62.6899C182.403 72.5563 182.409 82.4314 182.422 92.2984C182.436 102.163 182.781 112.06 182.622 121.922C182.614 122.397 182.607 122.678 182.347 123.088L179.718 120.471C179.458 120.461 178.907 120.516 178.684 120.432C177.843 120.117 176.903 119.352 176.081 118.923C174.726 118.215 173.267 117.747 171.816 117.275C168.347 116.145 164.855 115.429 161.233 115.017C158.018 114.652 154.814 114.867 151.61 115.214C144.197 116.018 136.948 118.012 130.148 121.07C128.194 121.95 126.33 123.018 124.435 124.016C123.937 124.278 123.193 124.834 122.665 124.953L122.27 124.574C122.508 123.66 122.425 122.592 122.435 121.651C122.456 119.788 122.459 117.926 122.453 116.063C122.432 110.432 122.4 104.8 122.375 99.169C122.286 79.0976 122.378 59.0194 122.33 38.9474C123.507 38.7173 124.982 38.4591 126.161 38.7182C126.434 38.7783 126.581 38.6659 126.837 38.5651Z" fill="#E67121"/>
<path d="M122.27 124.574C122.508 123.66 122.425 122.592 122.435 121.65C122.456 119.788 122.459 117.926 122.453 116.063C122.432 110.432 122.4 104.8 122.375 99.1689C122.286 79.0976 122.378 59.0193 122.33 38.9474C123.507 38.7172 124.982 38.459 126.161 38.7181C126.434 38.7783 126.581 38.6658 126.837 38.565L126.914 114.955C134.566 110.45 143.735 108.447 152.573 108.767C154.917 108.852 157.239 109.235 159.562 109.542C165.643 111.19 171.021 113.86 176.108 117.573C177.355 118.483 178.665 119.336 179.718 120.471C179.458 120.461 178.907 120.515 178.684 120.432C177.843 120.116 176.903 119.352 176.081 118.923C174.726 118.215 173.267 117.747 171.816 117.274C168.347 116.145 164.855 115.429 161.233 115.017C158.018 114.652 154.814 114.867 151.61 115.214C144.197 116.018 136.948 118.012 130.148 121.07C128.194 121.95 126.33 123.018 124.435 124.016C123.937 124.278 123.193 124.834 122.665 124.953L122.27 124.574Z" fill="#DE520A"/>
<path d="M159.628 30.8809C167.463 32.0781 175.582 33.985 182.213 38.5543C182.231 42.7101 182.54 46.8628 182.568 51.0198C182.594 54.9108 182.458 58.7994 182.442 62.6898C182.403 72.5562 182.409 82.4314 182.422 92.2983C182.436 102.163 182.781 112.06 182.622 121.922C182.614 122.397 182.608 122.678 182.347 123.088L179.718 120.471C178.665 119.337 177.355 118.483 176.108 117.573C171.021 113.86 165.643 111.19 159.562 109.542C159.819 107.287 159.574 104.684 159.574 102.396C159.572 97.1011 159.573 91.8057 159.579 86.5106C159.598 67.9703 159.463 49.4198 159.628 30.8809Z" fill="#F6A273"/>
<path d="M182.213 38.5543C184.475 39.6516 186.69 41.3184 188.609 42.9394C196.345 36.2094 207.402 31.9062 217.554 30.8746C219.508 30.6762 221.514 30.7439 223.477 30.7471C229.314 30.8349 235.136 31.7716 240.623 33.8182C243.256 34.7244 246.72 36.037 248.787 37.9319L249.02 38.5311L249.125 38.5803C250.654 39.2507 253.046 38.787 254.716 38.7844L254.786 42.5722C255.009 42.7848 255.058 42.8102 255.357 42.8841C257.975 42.7111 260.546 42.6656 263.169 42.7024C264.339 42.7189 265.842 42.6107 266.928 43.0717L267.05 43.1291L267.349 42.8971C267.429 43.2171 267.488 43.5098 267.674 43.7893C267.524 44.1188 267.399 44.3536 267.435 44.7278L267.602 44.5982C267.804 44.4365 267.928 44.2689 268.075 44.0571C268.955 43.842 270.9 43.8222 271.676 44.3233C272.435 44.8141 272.734 45.8333 272.884 46.6817C273.309 49.0997 273.098 51.6609 273.218 54.1049L273.252 134.374L273.025 134.55C273.255 135.64 273.12 136.879 272.997 137.981C270.69 137.347 267.977 137.264 265.588 136.917C258.52 135.887 251.496 135.12 244.378 134.56C242.417 134.406 240.468 134.133 238.501 134.039C235.772 133.909 233.009 134.023 230.276 134.013C226.119 134 221.908 133.86 217.759 134.033C215.754 134.117 213.774 134.382 211.776 134.536C209.014 134.748 206.057 134.64 203.356 135.217C203.088 135.15 202.806 135.136 202.619 134.912C202.17 134.375 201.935 133.37 201.953 132.679C201.002 132.562 199.926 132.617 199.017 132.93C198.316 133.171 196.186 133.869 195.584 133.756C193.76 135.066 192.319 137.548 190.245 138.367C189.356 138.719 188.065 138.658 187.131 138.508C185.663 138.273 183.82 135.313 182.532 134.412C180.679 132.515 178.13 131.02 175.767 129.847C175.589 129.519 174.231 129.016 173.869 128.851C171.846 127.93 169.87 126.959 167.788 126.167C166.852 125.81 165.903 125.411 164.949 125.11C164.388 124.933 163.822 124.857 163.303 124.567C163.597 124.556 163.902 124.518 164.179 124.636L164.299 124.706L164.301 124.335C164.467 124.132 164.566 124.03 164.631 123.772C164.688 123.547 164.638 123.628 164.77 123.431C164.899 123.237 164.857 123.081 164.858 122.85C164.489 122.604 164.114 122.758 163.725 122.592C163.368 122.438 162.945 122.455 162.501 122.251C160.897 121.855 158.891 122.076 157.225 121.991C151.734 121.71 146.103 122.019 140.704 123.078C137.626 123.682 134.557 124.38 131.537 125.228C129.106 125.912 126.664 126.638 124.265 127.425C121.485 128.337 118.764 129.436 115.947 130.232C115.047 130.487 113.853 130.874 112.922 130.721L122.665 124.953C123.193 124.834 123.937 124.278 124.435 124.016C126.33 123.018 128.194 121.95 130.148 121.07C136.948 118.012 144.197 116.018 151.61 115.214C154.814 114.867 158.018 114.652 161.233 115.017C164.855 115.429 168.347 116.145 171.816 117.275C173.267 117.747 174.726 118.215 176.081 118.923C176.903 119.352 177.843 120.116 178.684 120.432C178.907 120.516 179.458 120.461 179.718 120.471L182.347 123.088C182.607 122.678 182.614 122.397 182.622 121.922C182.781 112.06 182.436 102.163 182.422 92.2984C182.409 82.4314 182.403 72.5563 182.442 62.6898C182.458 58.7994 182.594 54.9108 182.568 51.0198C182.54 46.8629 182.231 42.7102 182.213 38.5543Z" fill="#C72F06"/>
<path d="M198.741 131.658C199.703 131.287 200.699 130.944 201.607 130.451C201.898 130.559 202.104 130.697 202.349 130.881C202.757 130.852 203.071 130.843 203.424 130.615C203.883 130.319 204.361 130.437 204.869 130.348C206.639 130.038 208.352 129.718 210.145 129.493C215.363 128.838 220.892 128.296 226.157 128.259C228.774 128.24 231.355 128.483 233.964 128.633C244.261 129.224 254.566 130.801 264.62 133.133C264.847 133.186 265.118 133.276 265.268 133.466C263.141 133.46 260.841 132.924 258.7 132.728C252.209 132.132 245.694 131.455 239.188 131.047C235.712 130.828 232.133 130.975 228.646 130.969C224.609 130.963 220.47 130.815 216.444 131.116C211.602 131.478 206.786 132.208 201.953 132.679C201.001 132.562 199.926 132.617 199.017 132.93C198.315 133.171 196.186 133.869 195.584 133.756C196.55 132.931 197.636 132.277 198.741 131.658Z" fill="#760700"/>
<path d="M201.953 132.679C206.786 132.208 211.602 131.478 216.444 131.116C220.47 130.815 224.609 130.963 228.646 130.969C232.133 130.975 235.712 130.829 239.188 131.047C245.694 131.455 252.209 132.132 258.701 132.728C260.841 132.924 263.141 133.46 265.269 133.466C267.765 134.113 270.477 133.948 273.025 134.55C273.255 135.64 273.12 136.879 272.997 137.981C270.69 137.346 267.977 137.264 265.588 136.917C258.52 135.887 251.496 135.12 244.378 134.56C242.417 134.406 240.468 134.133 238.502 134.039C235.772 133.909 233.009 134.023 230.276 134.013C226.119 134 221.908 133.86 217.759 134.033C215.755 134.117 213.774 134.382 211.776 134.536C209.014 134.748 206.057 134.64 203.356 135.217C203.088 135.15 202.806 135.136 202.619 134.912C202.17 134.375 201.935 133.37 201.953 132.679Z" fill="#F8D89F"/>
<path d="M194.758 122.298C196.182 121.409 197.591 120.447 199.101 119.71C209.415 114.674 221.689 113.68 232.821 116.255C236.725 117.157 240.52 118.312 244.198 119.912C247.676 121.426 250.98 123.298 254.432 124.863L264.662 130.742C262.93 131.199 250.071 126.317 247.174 125.418C240.707 123.413 233.947 122.35 227.209 121.9C225.303 121.773 223.378 121.578 221.468 121.587C218.78 121.6 216.016 121.93 213.338 122.183C207.364 122.746 200.544 124.425 195.68 128.05C194.896 128.634 194.073 129.185 193.445 129.943L193.428 130.365C192.736 130.968 192.369 131.656 191.677 132.223L191.676 132.455C191.248 132.876 190.925 133.243 190.61 133.754C191.196 133.952 191.657 133.807 192.208 133.542C192.556 133.375 192.536 133.269 192.791 133.059C192.874 132.991 193.17 133.032 193.256 132.966C193.477 132.794 193.449 132.47 193.756 132.381C194.154 132.266 194.527 132.004 194.925 131.854L194.971 132.269L194.554 132.501L194.647 132.596C195.038 132.596 196.068 132.938 196.307 132.699C196.591 132.415 196.719 132.52 196.949 132.348C197.109 132.23 197.292 132.159 197.458 132.049L198.619 131.402L198.741 131.658C197.636 132.277 196.551 132.932 195.584 133.756C193.76 135.066 192.319 137.548 190.245 138.367C189.356 138.719 188.065 138.658 187.131 138.508C185.663 138.273 183.82 135.313 182.532 134.412C180.679 132.515 178.13 131.02 175.767 129.847C175.589 129.519 174.231 129.016 173.869 128.851C171.846 127.93 169.87 126.959 167.788 126.167C166.852 125.81 165.903 125.411 164.949 125.11C164.388 124.933 163.822 124.857 163.303 124.567C163.597 124.556 163.902 124.518 164.179 124.636L164.299 124.706L164.301 124.335C164.467 124.132 164.566 124.03 164.631 123.772C164.688 123.547 164.638 123.628 164.77 123.431C164.899 123.237 164.857 123.081 164.858 122.85C164.489 122.604 164.114 122.758 163.725 122.592C163.368 122.438 162.945 122.455 162.501 122.251C160.897 121.855 158.891 122.076 157.225 121.991C151.734 121.71 146.103 122.019 140.704 123.078C137.626 123.682 134.557 124.38 131.537 125.228C129.106 125.912 126.664 126.638 124.265 127.425C121.485 128.337 118.764 129.436 115.947 130.232C115.047 130.487 113.853 130.874 112.922 130.721L122.665 124.953C123.193 124.834 123.937 124.278 124.435 124.016C126.33 123.018 128.194 121.95 130.148 121.07C136.948 118.012 144.197 116.018 151.61 115.214C154.814 114.867 158.018 114.652 161.233 115.017C164.855 115.429 168.347 116.145 171.816 117.275C173.267 117.747 174.726 118.215 176.081 118.923C176.903 119.352 177.843 120.116 178.684 120.432C178.907 120.516 179.458 120.461 179.718 120.471L182.347 123.088L182.339 123.097C184.166 125.88 186.735 128.348 187.686 131.642C187.913 132.426 187.902 133.524 188.003 134.361C188.473 133.202 188.679 131.961 189.075 130.777C190.048 127.87 192.088 124.2 194.59 122.416L194.758 122.298Z" fill="#760700"/>
<path d="M162.501 122.251C167.875 122.52 174.04 123.852 178.711 126.624C182.093 128.63 185.041 131.436 187.663 134.336L188.429 135.289C188.805 135.304 188.848 135.359 189.145 135.088C190.779 133.602 191.708 131.453 193.445 129.943L193.428 130.365C192.736 130.968 192.369 131.656 191.677 132.223L191.676 132.455C191.248 132.876 190.925 133.243 190.61 133.754C191.196 133.952 191.657 133.807 192.208 133.542C192.556 133.375 192.537 133.269 192.792 133.059C192.874 132.992 193.17 133.032 193.257 132.966C193.477 132.794 193.449 132.47 193.756 132.381C194.154 132.266 194.528 132.004 194.925 131.854L194.972 132.269L194.554 132.501L194.647 132.596C195.038 132.596 196.068 132.938 196.307 132.699C196.591 132.415 196.719 132.52 196.95 132.348C197.109 132.23 197.292 132.159 197.458 132.049L198.619 131.402L198.741 131.658C197.636 132.277 196.551 132.932 195.584 133.756C193.761 135.066 192.32 137.548 190.245 138.367C189.356 138.719 188.065 138.658 187.131 138.508C185.663 138.273 183.82 135.313 182.532 134.412C180.679 132.515 178.13 131.02 175.767 129.847C175.589 129.519 174.231 129.016 173.869 128.851C171.846 127.93 169.87 126.959 167.789 126.167C166.852 125.81 165.903 125.411 164.949 125.11C164.388 124.933 163.822 124.857 163.304 124.567C163.598 124.556 163.902 124.518 164.179 124.636L164.299 124.706L164.301 124.335C164.467 124.132 164.566 124.03 164.631 123.772C164.688 123.547 164.638 123.628 164.77 123.431C164.899 123.237 164.857 123.081 164.858 122.85C164.489 122.604 164.114 122.758 163.725 122.592C163.368 122.439 162.945 122.455 162.501 122.251Z" fill="#E67121"/>
<path d="M267.348 42.8971C267.428 43.2171 267.488 43.5098 267.673 43.7893C267.523 44.1188 267.399 44.3536 267.434 44.7278C267.863 46.5915 267.764 48.832 267.809 50.7483C267.935 56.1826 267.764 61.6046 267.766 67.0378C267.772 77.2832 267.989 87.5387 267.905 97.7836C267.853 104.309 267.915 110.828 267.883 117.352C267.861 122.136 267.69 126.913 267.898 131.698L264.661 130.742L254.432 124.863C254.888 123.042 254.723 120.504 254.738 118.612C254.769 114.784 254.765 110.955 254.77 107.127C254.793 91.0445 254.518 74.9276 254.775 58.8534C254.856 53.7483 254.454 48.4003 254.932 43.3319C254.95 43.1391 255.207 43.0062 255.356 42.8841C257.974 42.7111 260.545 42.6656 263.168 42.7023C264.338 42.7189 265.841 42.6107 266.927 43.0717L267.05 43.1291L267.348 42.8971Z" fill="#E67121"/>
<path d="M223.477 30.7471C229.314 30.8349 235.135 31.7717 240.623 33.8182C243.256 34.7244 246.72 36.037 248.786 37.9319L249.02 38.5311L249.125 38.5803C250.653 39.2507 253.046 38.7871 254.716 38.7845L254.786 42.5723C255.009 42.7848 255.058 42.8102 255.357 42.8841C255.208 43.0062 254.95 43.1391 254.932 43.332C254.455 48.4003 254.857 53.7484 254.775 58.8534C254.519 74.9277 254.794 91.0446 254.771 107.127C254.765 110.955 254.769 114.784 254.739 118.612C254.724 120.504 254.888 123.042 254.432 124.863C250.98 123.298 247.676 121.426 244.198 119.912C240.519 118.312 236.725 117.157 232.821 116.255C221.688 113.68 209.415 114.674 199.101 119.71C197.591 120.447 196.182 121.409 194.758 122.298C194.878 121.875 194.995 121.403 195.271 121.052C196.524 119.456 198.426 118.12 200.064 116.937C202.447 115.216 204.871 113.637 207.556 112.42C212.729 110.076 218.075 109.207 223.68 108.741L223.477 30.7471Z" fill="#C72F06"/>
<path d="M240.365 110.621C240.727 108.311 240.396 105.728 240.382 103.379C240.351 97.9848 240.35 92.5881 240.323 87.1929C240.234 69.4816 240.232 51.7517 240.31 34.0409L240.623 33.8182C243.256 34.7243 246.721 36.037 248.787 37.9319L249.02 38.5311C248.716 39.1707 248.711 39.8118 248.695 40.5056C248.505 48.3488 248.729 56.2543 248.715 64.1033C248.692 76.0459 248.63 87.9899 248.695 99.9324C248.71 102.728 248.69 105.522 248.68 108.318C248.673 110.249 248.493 112.574 249.139 114.421L249.209 114.614L249.066 114.503C246.671 112.662 243.241 111.453 240.365 110.621Z" fill="#F6A273"/>
<path d="M223.478 30.7471C229.314 30.8349 235.136 31.7717 240.623 33.8182L240.31 34.0409C240.232 51.7517 240.234 69.4816 240.323 87.1929C240.35 92.5881 240.351 97.9848 240.382 103.379C240.396 105.728 240.727 108.311 240.365 110.621C239.291 110.189 238.073 109.998 236.948 109.748C232.478 108.752 228.24 108.715 223.68 108.741L223.478 30.7471Z" fill="#E67121"/>
<path d="M182.213 38.5543C184.475 39.6516 186.69 41.3184 188.608 42.9394C196.345 36.2094 207.401 31.9062 217.554 30.8746C219.508 30.6762 221.514 30.7439 223.477 30.7471L223.68 108.741C218.075 109.207 212.729 110.076 207.556 112.42C204.871 113.637 202.447 115.216 200.064 116.937C198.426 118.12 196.524 119.456 195.271 121.052C194.995 121.403 194.878 121.875 194.758 122.298L194.59 122.416C192.088 124.2 190.047 127.87 189.075 130.777C188.679 131.961 188.473 133.202 188.003 134.361C187.902 133.524 187.912 132.426 187.686 131.642C186.735 128.348 184.166 125.88 182.339 123.097L182.346 123.088C182.607 122.678 182.614 122.397 182.622 121.922C182.781 112.06 182.435 102.163 182.422 92.2984C182.409 82.4314 182.402 72.5563 182.442 62.6898C182.458 58.7994 182.593 54.9108 182.567 51.0198C182.539 46.8629 182.231 42.7102 182.213 38.5543Z" fill="#DE520A"/>
</g>
<defs>
<linearGradient id="paint0_linear_242_40519" x1="105.089" y1="45.9132" x2="188.817" y2="60.5959" gradientUnits="userSpaceOnUse">
<stop stop-color="#C60601"/>
<stop offset="1" stop-color="#E72715"/>
</linearGradient>
<clipPath id="clip0_242_40519">
<path d="M0.0976562 20.1313C0.0976562 9.08565 9.05196 0.131348 20.0977 0.131348H347.098C358.143 0.131348 367.098 9.08565 367.098 20.1313V216.131H0.0976562V20.1313Z" fill="white"/>
</clipPath>
</defs>
</svg>
