<svg width="37" height="36" viewBox="0 0 37 36" fill="none" xmlns="http://www.w3.org/2000/svg">
<path d="M12.0312 11.2484V24.1312C12.0312 24.6858 12.6318 25.0322 13.1118 24.7545L24.2454 18.3132C24.7247 18.0359 24.7247 17.344 24.2454 17.0668L13.1118 10.6252C12.6318 10.3475 12.0312 10.6938 12.0312 11.2484Z" fill="white"/>
<path d="M31.8125 0H4.25C1.92378 0 0.03125 1.89253 0.03125 4.21875V31.7812C0.03125 34.1075 1.92378 36 4.25 36H31.8125C34.1387 36 36.0312 34.1075 36.0312 31.7812V4.21875C36.0312 1.89253 34.1387 0 31.8125 0ZM33.2188 31.7812C33.2188 32.5567 32.5879 33.1875 31.8125 33.1875H23.7969H19.439H4.25C3.47459 33.1875 2.84375 32.5567 2.84375 31.7812V4.21875C2.84375 3.44334 3.47459 2.8125 4.25 2.8125H31.8125C32.5879 2.8125 33.2188 3.44334 33.2188 4.21875V31.7812Z" fill="white"/>
</svg>
